<svg width="48" height="48" viewBox="0 0 48 48" fill="none" xmlns="http://www.w3.org/2000/svg" xmlns:xlink="http://www.w3.org/1999/xlink">
<mask id="mask_0_17_2994" style="mask-type:alpha" maskUnits="userSpaceOnUse" x="0" y="0" width="24" height="24">
<rect  x="0" y="0" width="48" height="48" fill="#D9D9D9"/>
</mask>
<g mask="url(#mask_0_17_2994)">
<path d="M23,43.75C20.067,43.75 17.576,42.725 15.526,40.674C13.476,38.625 12.45,36.15 12.45,33.25L12.45,11.6C12.45,9.5 13.2,7.7 14.7,6.2C16.2,4.7 18,3.95 20.1,3.95C22.2,3.95 24,4.7 25.5,6.2C27,7.7 27.75,9.5 27.75,11.6L27.75,31.1C27.75,32.434 27.292,33.567 26.376,34.5C25.459,35.434 24.334,35.9 23,35.9C21.667,35.9 20.542,35.434 19.624,34.5C18.708,33.567 18.25,32.434 18.25,31.1L18.25,11.6L20.6,11.6L20.6,31.1C20.6,31.8 20.834,32.376 21.3,32.826C21.767,33.276 22.334,33.5 23,33.5C23.667,33.5 24.234,33.276 24.7,32.826C25.167,32.376 25.4,31.8 25.4,31.1L25.4,11.6C25.4,10.134 24.892,8.892 23.876,7.874C22.859,6.858 21.6,6.35 20.1,6.35C18.634,6.35 17.392,6.858 16.376,7.874C15.359,8.892 14.85,10.134 14.85,11.6L14.85,33.25C14.85,35.484 15.642,37.4 17.226,39C18.809,40.6 20.734,41.4 23,41.4C25.267,41.4 27.192,40.6 28.776,39C30.359,37.4 31.15,35.484 31.15,33.25L31.15,11.6L33.55,11.6L33.55,33.25C33.55,36.15 32.526,38.625 30.476,40.674C28.426,42.725 25.934,43.75 23,43.75Z" fill="#FFFFFF"/>
</g>
</svg>
