<svg width="400" height="120" viewBox="0 0 400 120" fill="none" xmlns="http://www.w3.org/2000/svg" xmlns:xlink="http://www.w3.org/1999/xlink">
<mask id="mask_0_17_3005" style="mask-type:alpha" maskUnits="userSpaceOnUse" x="22" y="22" width="32" height="32">
<rect  x="22" y="22" width="64" height="64" fill="#D9D9D9"/>
</mask>
<mask id="mask_0_17_3008" style="mask-type:alpha" maskUnits="userSpaceOnUse" x="122" y="22" width="32" height="32">
<rect  x="122" y="22" width="64" height="64" fill="#D9D9D9"/>
</mask>
<mask id="mask_0_17_3011" style="mask-type:alpha" maskUnits="userSpaceOnUse" x="322" y="22" width="32" height="32">
<rect  x="322" y="22" width="64" height="64" fill="#D9D9D9"/>
</mask>
<mask id="mask_0_17_3014" style="mask-type:alpha" maskUnits="userSpaceOnUse" x="222" y="22" width="32" height="32">
<rect  x="222" y="22" width="64" height="64" fill="#D9D9D9"/>
</mask>
<path d="M0,16C0,7.163 7.163,0 16,0L384,0C392.836,0 400,7.163 400,16L400,85.221C400,94.057 392.836,101.221 384,101.221L221.138,101.221C216.212,101.221 211.562,103.49 208.528,107.372L198.667,120L188.804,107.372C185.772,103.49 181.121,101.221 176.195,101.221L16,101.221C7.163,101.221 0,94.057 0,85.221L0,16Z" fill="#BC9ADE" fill-opacity="0.43"/>
<g mask="url(#mask_0_17_3005)">
<path d="M36.667,78C34.8,78 33.222,77.356 31.933,76.067C30.644,74.778 30,73.2 30,71.333L30,36.667C30,34.8 30.644,33.222 31.933,31.933C33.222,30.644 34.8,30 36.667,30L71.333,30C73.2,30 74.778,30.644 76.067,31.933C77.356,33.222 78,34.8 78,36.667L78,71.333C78,73.2 77.356,74.778 76.067,76.067C74.778,77.356 73.2,78 71.333,78L36.667,78ZM36.667,75.333L71.333,75.333C72.444,75.333 73.388,74.944 74.165,74.165C74.944,73.388 75.333,72.444 75.333,71.333L75.333,36.667C75.333,35.556 74.944,34.612 74.165,33.835C73.388,33.056 72.444,32.667 71.333,32.667L36.667,32.667C35.556,32.667 34.612,33.056 33.835,33.835C33.056,34.612 32.667,35.556 32.667,36.667L32.667,71.333C32.667,72.444 33.056,73.388 33.835,74.165C34.612,74.944 35.556,75.333 36.667,75.333ZM41.2,67.333L48.667,59.867L53.6,64.733L59.333,57.467L67.2,67.333L41.2,67.333ZM44.667,47.333C43.556,47.333 42.612,46.944 41.835,46.165C41.056,45.388 40.667,44.444 40.667,43.333C40.667,42.222 41.056,41.278 41.835,40.501C42.612,39.723 43.556,39.333 44.667,39.333C45.778,39.333 46.722,39.723 47.499,40.501C48.277,41.278 48.667,42.222 48.667,43.333C48.667,44.444 48.277,45.388 47.499,46.165C46.722,46.944 45.778,47.333 44.667,47.333Z" fill="#7B559D" stroke="#7B559D" stroke-width="1" stroke-miterlimit="3.999327"/>
</g>
<g mask="url(#mask_0_17_3008)">
<path d="M154,52.667C155.111,52.667 156.055,52.278 156.832,51.499C157.611,50.722 158,49.778 158,48.667C158,47.556 157.611,46.612 156.832,45.835C156.055,45.056 155.111,44.667 154,44.667C152.889,44.667 151.945,45.056 151.168,45.835C150.389,46.612 150,47.556 150,48.667C150,49.778 150.389,50.722 151.168,51.499C151.945,52.278 152.889,52.667 154,52.667ZM154,76C159.556,71.156 163.833,66.311 166.832,61.467C169.833,56.623 171.333,52.534 171.333,49.2C171.333,43.956 169.656,39.667 166.301,36.334C162.945,33 158.844,31.334 154,31.334C149.156,31.334 145.056,33 141.701,36.334C138.345,39.667 136.667,43.956 136.667,49.2C136.667,52.534 138.167,56.623 141.168,61.467C144.167,66.311 148.444,71.156 154,76ZM154,79.667C147.244,73.667 142.222,68.111 138.933,63C135.644,57.889 134,53.289 134,49.2C134,42.934 136.012,37.945 140.035,34.235C144.056,30.523 148.711,28.667 154,28.667C159.289,28.667 163.945,30.523 167.968,34.235C171.989,37.945 174,42.934 174,49.2C174,53.289 172.356,57.889 169.067,63C165.778,68.111 160.756,73.667 154,79.667Z" fill="#7B559D"/>
</g>
<g mask="url(#mask_0_17_3011)">
<path d="M335.333,70.6C337.733,68.245 340.523,66.389 343.701,65.032C346.878,63.678 350.311,63 354,63C357.689,63 361.123,63.678 364.301,65.032C367.478,66.389 370.267,68.245 372.667,70.6L372.667,37C372.667,36.556 372.499,36.167 372.165,35.835C371.833,35.501 371.444,35.334 371,35.334L337,35.334C336.555,35.334 336.167,35.501 335.835,35.835C335.5,36.167 335.333,36.556 335.333,37L335.333,70.6ZM354,56.867C356.222,56.867 358.111,56.089 359.667,54.534C361.222,52.978 362,51.089 362,48.867C362,46.645 361.222,44.756 359.667,43.2C358.111,41.645 356.222,40.867 354,40.867C351.778,40.867 349.889,41.645 348.333,43.2C346.778,44.756 346,46.645 346,48.867C346,51.089 346.778,52.978 348.333,54.534C349.889,56.089 351.778,56.867 354,56.867ZM337,75.334C335.755,75.334 334.723,74.923 333.901,74.102C333.078,73.279 332.667,72.245 332.667,71L332.667,37C332.667,35.756 333.078,34.723 333.901,33.902C334.723,33.079 335.755,32.667 337,32.667L371,32.667C372.244,32.667 373.278,33.079 374.101,33.902C374.923,34.723 375.333,35.756 375.333,37L375.333,71C375.333,72.245 374.923,73.279 374.101,74.102C373.278,74.923 372.244,75.334 371,75.334L337,75.334ZM337.667,72.667L370.333,72.667L370.333,72.2C367.978,69.978 365.422,68.334 362.667,67.267C359.911,66.2 357.022,65.667 354,65.667C351.067,65.667 348.211,66.2 345.435,67.267C342.656,68.334 340.067,69.956 337.667,72.134L337.667,72.667ZM354,54.2C352.533,54.2 351.278,53.678 350.235,52.632C349.189,51.589 348.667,50.334 348.667,48.867C348.667,47.4 349.189,46.144 350.235,45.099C351.278,44.055 352.533,43.534 354,43.534C355.467,43.534 356.723,44.055 357.768,45.099C358.811,46.144 359.333,47.4 359.333,48.867C359.333,50.334 358.811,51.589 357.768,52.632C356.723,53.678 355.467,54.2 354,54.2Z" fill="#7B559D"/>
</g>
<g mask="url(#mask_0_17_3014)">
<path d="M244.667,68.667L263.333,68.667L263.333,66L244.667,66L244.667,68.667ZM244.667,58L263.333,58L263.333,55.333L244.667,55.333L244.667,58ZM239.667,78C238.422,78 237.389,77.589 236.568,76.768C235.745,75.945 235.333,74.911 235.333,73.667L235.333,34.333C235.333,33.089 235.745,32.055 236.568,31.232C237.389,30.411 238.422,30 239.667,30L260.667,30L272.667,42L272.667,73.667C272.667,74.911 272.256,75.945 271.435,76.768C270.612,77.589 269.578,78 268.333,78L239.667,78ZM259.333,43.333L259.333,32.667L239.667,32.667C239.222,32.667 238.834,32.834 238.501,33.168C238.167,33.5 238,33.889 238,34.333L238,73.667C238,74.111 238.167,74.5 238.501,74.832C238.834,75.166 239.222,75.333 239.667,75.333L268.333,75.333C268.778,75.333 269.166,75.166 269.499,74.832C269.833,74.5 270,74.111 270,73.667L270,43.333L259.333,43.333Z" fill="#7B559D"/>
</g>
</svg>
