<svg width="48" height="48" viewBox="0 0 48 48" fill="none" xmlns="http://www.w3.org/2000/svg" xmlns:xlink="http://www.w3.org/1999/xlink">
<mask id="mask_0_17_3061" style="mask-type:alpha" maskUnits="userSpaceOnUse" x="0" y="0" width="24" height="24">
<rect  x="0" y="0" width="48" height="48" fill="#D9D9D9"/>
</mask>
<g mask="url(#mask_0_17_3061)">
<path d="M38.85,42.101C34.983,42.101 31.142,41.162 27.326,39.282C23.508,37.404 20.1,34.941 17.1,31.894C14.1,28.848 11.675,25.395 9.826,21.535C7.975,17.676 7.05,13.766 7.05,9.805C7.05,9.195 7.25,8.687 7.65,8.281C8.05,7.875 8.55,7.672 9.15,7.672L15.65,7.672C16.183,7.672 16.641,7.832 17.024,8.153C17.408,8.476 17.65,8.891 17.75,9.398L18.9,15.391C18.966,15.898 18.95,16.355 18.85,16.762C18.75,17.168 18.533,17.523 18.2,17.828L13.6,22.398C15.2,25.107 17.091,27.561 19.274,29.762C21.458,31.962 23.933,33.875 26.7,35.5L31.15,30.93C31.483,30.591 31.875,30.354 32.326,30.219C32.775,30.083 33.233,30.049 33.7,30.117L39.25,31.285C39.75,31.387 40.158,31.624 40.476,31.996C40.792,32.368 40.95,32.825 40.95,33.367L40.95,39.969C40.95,40.578 40.75,41.086 40.35,41.492C39.95,41.898 39.45,42.101 38.85,42.101ZM12.2,19.504L15.75,16.051C15.816,15.983 15.858,15.907 15.876,15.821C15.892,15.737 15.883,15.661 15.85,15.594L15,11.023C14.966,10.922 14.916,10.845 14.85,10.794C14.783,10.744 14.7,10.719 14.6,10.719L10.35,10.719C10.25,10.719 10.174,10.744 10.124,10.794C10.074,10.845 10.05,10.905 10.05,10.973C10.15,12.361 10.375,13.774 10.726,15.212C11.075,16.651 11.566,18.082 12.2,19.504ZM29.5,36.922C30.833,37.565 32.216,38.056 33.65,38.394C35.083,38.733 36.433,38.919 37.7,38.953C37.766,38.953 37.825,38.927 37.876,38.876C37.925,38.826 37.95,38.767 37.95,38.699L37.95,34.434C37.95,34.332 37.925,34.247 37.876,34.18C37.825,34.112 37.75,34.061 37.65,34.027L33.45,33.164C33.383,33.13 33.316,33.13 33.25,33.164L33.05,33.266L29.5,36.922Z" fill="#FFFFFF"/>
</g>
</svg>
