<svg width="74" height="80" viewBox="0 0 74 80" fill="none" xmlns="http://www.w3.org/2000/svg" xmlns:xlink="http://www.w3.org/1999/xlink">
<path d="M0,40.055C0,18.185 16.565,0.456 37,0.456C57.435,0.456 74,18.185 74,40.055C74,61.924 57.435,79.653 37,79.653C16.565,79.653 0,61.924 0,40.055ZM37,7.056C19.971,7.056 6.167,21.83 6.167,40.055C6.167,58.28 19.971,73.054 37,73.054C54.029,73.054 67.833,58.28 67.833,40.055C67.833,21.83 54.029,7.056 37,7.056Z" clip-rule="evenodd" fill-rule="evenodd" fill="#0966FF"/>
<path d="M13.566,69.314C13.566,59.715 20.837,51.934 29.805,51.934L45.428,51.934C54.396,51.934 61.666,59.715 61.666,69.314L55.5,69.314C55.5,63.36 50.99,58.534 45.428,58.534L29.805,58.534C24.243,58.534 19.733,63.36 19.733,69.314L13.566,69.314Z" clip-rule="evenodd" fill-rule="evenodd" fill="#0966FF"/>
<path d="M37.617,20.255C32.508,20.255 28.367,24.688 28.367,30.155C28.367,35.623 32.508,40.055 37.617,40.055C42.725,40.055 46.867,35.623 46.867,30.155C46.867,24.688 42.725,20.255 37.617,20.255ZM22.2,30.155C22.2,21.043 29.102,13.656 37.617,13.656C46.131,13.656 53.034,21.043 53.034,30.155C53.034,39.267 46.131,46.655 37.617,46.655C29.102,46.655 22.2,39.267 22.2,30.155Z" clip-rule="evenodd" fill-rule="evenodd" fill="#0966FF"/>
</svg>
