<svg width="38" height="42" viewBox="0 0 38 42" fill="none" xmlns="http://www.w3.org/2000/svg" xmlns:xlink="http://www.w3.org/1999/xlink">
<path d="M30.727,21.64L30.727,17.826C30.727,12.262 27.096,7.547 22.121,6.007L22.121,4.28C22.121,2.303 20.542,0.695 18.601,0.695C16.66,0.695 15.08,2.303 15.08,4.28L15.08,6.007C10.105,7.547 6.475,12.262 6.475,17.826L6.475,21.64C6.475,26.526 4.646,31.16 1.325,34.687C0.999,35.033 0.908,35.543 1.092,35.984C1.277,36.424 1.701,36.71 2.172,36.71L12.851,36.71C13.396,39.434 15.767,41.491 18.601,41.491C21.434,41.491 23.805,39.434 24.35,36.71L35.03,36.71C35.5,36.71 35.925,36.424 36.109,35.984C36.294,35.543 36.202,35.033 35.877,34.687C32.556,31.16 30.727,26.526 30.727,21.64ZM17.427,4.28C17.427,3.621 17.954,3.085 18.601,3.085C19.248,3.085 19.774,3.621 19.774,4.28L19.774,5.533C19.388,5.496 18.997,5.475 18.601,5.475C18.205,5.475 17.814,5.496 17.427,5.533L17.427,4.28ZM18.601,39.1C17.071,39.1 15.767,38.101 15.282,36.71L21.919,36.71C21.435,38.101 20.131,39.1 18.601,39.1ZM4.701,34.32C7.374,30.671 8.822,26.255 8.822,21.64L8.822,17.826C8.822,12.334 13.209,7.866 18.601,7.866C23.993,7.866 28.38,12.334 28.38,17.826L28.38,21.64C28.38,26.255 29.828,30.671 32.501,34.32L4.701,34.32Z" fill="#4D7CFE"/>
<path d="M14.617,4.28C14.617,2.055 16.396,0.231 18.601,0.231C20.806,0.231 22.585,2.055 22.585,4.28L22.585,5.67C27.583,7.371 31.19,12.18 31.19,17.826L31.19,21.639C31.19,26.409 32.975,30.929 36.214,34.369C36.666,34.849 36.791,35.554 36.537,36.163C36.282,36.772 35.691,37.173 35.03,37.173L24.719,37.173C23.999,39.918 21.534,41.954 18.601,41.954C15.668,41.954 13.203,39.918 12.483,37.173L2.172,37.173C1.511,37.173 0.92,36.772 0.665,36.163C0.41,35.554 0.536,34.849 0.988,34.369C0.988,34.369 0.988,34.369 0.988,34.369C4.227,30.929 6.011,26.409 6.011,21.639L6.011,17.826C6.011,12.18 9.618,7.371 14.617,5.67L14.617,6.007L15.08,6.007L14.943,5.564C14.834,5.598 14.725,5.633 14.617,5.67L14.617,4.28ZM18.601,1.158C16.923,1.158 15.544,2.551 15.544,4.28L15.544,6.349L15.217,6.45C10.435,7.93 6.938,12.467 6.938,17.826L6.938,21.639C6.938,26.643 5.065,31.391 1.662,35.005C1.463,35.217 1.405,35.531 1.519,35.804C1.633,36.076 1.892,36.246 2.172,36.246L13.231,36.246L13.306,36.619C13.809,39.137 15.998,41.027 18.601,41.027C21.204,41.027 23.392,39.137 23.896,36.619L23.971,36.246L35.03,36.246C35.31,36.246 35.569,36.076 35.682,35.804C35.797,35.532 35.739,35.217 35.54,35.005M18.601,3.549C18.217,3.549 17.891,3.87 17.891,4.28L17.891,5.032C18.126,5.019 18.362,5.012 18.601,5.012C18.839,5.012 19.076,5.019 19.311,5.032L19.311,4.28C19.311,3.87 18.985,3.549 18.601,3.549ZM16.964,4.28C16.964,3.373 17.69,2.621 18.601,2.621C19.511,2.621 20.238,3.373 20.238,4.28L20.238,6.045L19.729,5.995C19.357,5.958 18.981,5.939 18.601,5.939C18.221,5.939 17.844,5.958 17.473,5.995L16.964,6.045L16.964,4.28ZM18.601,8.329C13.472,8.329 9.285,12.582 9.285,17.826L9.285,21.639C9.285,26.046 7.992,30.277 5.592,33.856L31.61,33.856C29.21,30.277 27.917,26.046 27.917,21.639L27.917,17.826C27.917,12.582 23.73,8.329 18.601,8.329ZM8.358,17.826C8.358,12.086 12.945,7.402 18.601,7.402C24.257,7.402 28.843,12.086 28.843,17.826L28.843,21.639C28.843,26.157 30.261,30.477 32.874,34.045L33.415,34.783L3.787,34.783L4.327,34.045C6.941,30.477 8.358,26.157 8.358,21.639L8.358,17.826ZM14.63,36.246L22.572,36.246L22.357,36.862C21.811,38.429 20.339,39.564 18.601,39.564C16.863,39.564 15.39,38.429 14.845,36.862L14.63,36.246ZM16.013,37.173C16.556,38.054 17.516,38.637 18.601,38.637C19.686,38.637 20.646,38.054 21.189,37.173L16.013,37.173Z" clip-rule="evenodd" fill-rule="evenodd" fill="#4D7CFE"/>
<path d="M36.203,15.53C36.203,19.626 32.885,22.947 28.792,22.947C24.698,22.947 21.38,19.626 21.38,15.53C21.38,11.433 24.698,8.112 28.792,8.112C32.885,8.112 36.203,11.433 36.203,15.53Z" fill="#DC1500"/>
</svg>
