<svg width="74" height="82" viewBox="0 0 74 82" fill="none" xmlns="http://www.w3.org/2000/svg" xmlns:xlink="http://www.w3.org/1999/xlink">
<path d="M0,40.348C0,18.264 16.565,0.362 37,0.362C57.435,0.362 74,18.264 74,40.348C74,62.431 57.435,80.333 37,80.333C16.565,80.333 0,62.431 0,40.348ZM37,7.027C19.971,7.027 6.167,21.945 6.167,40.348C6.167,58.751 19.971,73.669 37,73.669C54.029,73.669 67.833,58.751 67.833,40.348C67.833,21.945 54.029,7.027 37,7.027Z" clip-rule="evenodd" fill-rule="evenodd" fill="#0966FF"/>
<path d="M13.566,69.893C13.566,60.201 20.837,52.344 29.805,52.344L45.428,52.344C54.396,52.344 61.666,60.201 61.666,69.893L55.5,69.893C55.5,63.881 50.99,59.008 45.428,59.008L29.805,59.008C24.243,59.008 19.733,63.881 19.733,69.893L13.566,69.893Z" clip-rule="evenodd" fill-rule="evenodd" fill="#0966FF"/>
<path d="M37.617,20.355C32.508,20.355 28.367,24.83 28.367,30.351C28.367,35.872 32.508,40.347 37.617,40.347C42.725,40.347 46.867,35.872 46.867,30.351C46.867,24.83 42.725,20.355 37.617,20.355ZM22.2,30.351C22.2,21.15 29.102,13.69 37.617,13.69C46.131,13.69 53.034,21.15 53.034,30.351C53.034,39.552 46.131,47.012 37.617,47.012C29.102,47.012 22.2,39.552 22.2,30.351Z" clip-rule="evenodd" fill-rule="evenodd" fill="#0966FF"/>
</svg>
