<svg width="74" height="80" viewBox="0 0 74 80" fill="none" xmlns="http://www.w3.org/2000/svg" xmlns:xlink="http://www.w3.org/1999/xlink">
<path d="M0,39.351C0,17.716 16.565,0.178 37,0.178C57.435,0.178 74,17.716 74,39.351C74,60.986 57.435,78.524 37,78.524C16.565,78.524 0,60.986 0,39.351ZM37,6.707C19.971,6.707 6.167,21.322 6.167,39.351C6.167,57.38 19.971,71.996 37,71.996C54.029,71.996 67.833,57.38 67.833,39.351C67.833,21.322 54.029,6.707 37,6.707Z" clip-rule="evenodd" fill-rule="evenodd" fill="#0966FF"/>
<path d="M13.566,68.296C13.566,58.801 20.837,51.104 29.805,51.104L45.428,51.104C54.396,51.104 61.666,58.801 61.666,68.296L55.5,68.296C55.5,62.407 50.99,57.632 45.428,57.632L29.805,57.632C24.243,57.632 19.733,62.407 19.733,68.296L13.566,68.296Z" clip-rule="evenodd" fill-rule="evenodd" fill="#0966FF"/>
<path d="M37.617,19.764C32.508,19.764 28.367,24.149 28.367,29.558C28.367,34.966 32.508,39.351 37.617,39.351C42.725,39.351 46.867,34.966 46.867,29.558C46.867,24.149 42.725,19.764 37.617,19.764ZM22.2,29.558C22.2,20.543 29.102,13.235 37.617,13.235C46.131,13.235 53.034,20.543 53.034,29.558C53.034,38.572 46.131,45.88 37.617,45.88C29.102,45.88 22.2,38.572 22.2,29.558Z" clip-rule="evenodd" fill-rule="evenodd" fill="#0966FF"/>
</svg>
