<svg width="40" height="38" viewBox="0 0 40 38" fill="none" xmlns="http://www.w3.org/2000/svg" xmlns:xlink="http://www.w3.org/1999/xlink">
<path d="M37.412,30.792L29.426,23.091C27.947,21.665 25.606,21.665 24.127,23.09L24.127,23.09C22.568,24.592 22.568,27.087 24.127,28.589L31.917,36.094C32.79,36.936 34.228,36.936 35.101,36.094L37.412,33.867C38.286,33.018 38.286,31.626 37.412,30.792Z" fill="#FFFFFF"/>
<path d="M37.412,30.792L29.426,23.091C27.947,21.665 25.606,21.665 24.127,23.09L24.127,23.09C22.568,24.592 22.568,27.087 24.127,28.589L31.917,36.094C32.79,36.936 34.228,36.936 35.101,36.094L37.412,33.867C38.286,33.018 38.286,31.626 37.412,30.792Z" stroke="#000000" stroke-width="1" stroke-miterlimit="3.999327"/>
<path d="M37.412,30.792L29.426,23.091C27.947,21.665 25.606,21.665 24.127,23.09L24.127,23.09C22.568,24.592 22.568,27.087 24.127,28.589L31.917,36.094C32.79,36.936 34.228,36.936 35.101,36.094L37.412,33.867C38.286,33.018 38.286,31.626 37.412,30.792Z" stroke="#FFFFFF" stroke-width="1" stroke-miterlimit="3.999327"/>
<path d="M20.125,22.216C20.9,22.962 22.126,22.962 22.901,22.216L22.901,22.216C23.718,21.429 23.718,20.122 22.901,19.335L22.606,19.051C21.748,18.224 21.657,16.902 22.158,15.821C24.042,11.756 23.258,6.817 19.797,3.483C15.322,-0.829 8.048,-0.829 3.565,3.483C-0.918,7.795 -0.91,14.803 3.565,19.122C7.036,22.466 12.18,23.216 16.407,21.382C17.519,20.899 18.851,20.988 19.724,21.83L20.125,22.216ZM5.791,16.947C2.545,13.82 2.545,8.748 5.791,5.628C9.038,2.5 14.302,2.5 17.54,5.628C20.786,8.755 20.786,13.827 17.54,16.947C14.302,20.075 9.038,20.075 5.791,16.947Z" fill="#FFFFFF"/>
<path d="M20.125,22.216C20.9,22.962 22.126,22.962 22.901,22.216L22.901,22.216C23.718,21.429 23.718,20.122 22.901,19.335L22.606,19.051C21.748,18.224 21.657,16.902 22.158,15.821C24.042,11.756 23.258,6.817 19.797,3.483C15.322,-0.829 8.048,-0.829 3.565,3.483C-0.918,7.795 -0.91,14.803 3.565,19.122C7.036,22.466 12.18,23.216 16.407,21.382C17.519,20.899 18.851,20.988 19.724,21.83L20.125,22.216ZM5.791,16.947C2.545,13.82 2.545,8.748 5.791,5.628C9.038,2.5 14.302,2.5 17.54,5.628C20.786,8.755 20.786,13.827 17.54,16.947C14.302,20.075 9.038,20.075 5.791,16.947Z" stroke="#000000" stroke-width="1" stroke-miterlimit="3.999327"/>
<path d="M20.125,22.216C20.9,22.962 22.126,22.962 22.901,22.216L22.901,22.216C23.718,21.429 23.718,20.122 22.901,19.335L22.606,19.051C21.748,18.224 21.657,16.902 22.158,15.821C24.042,11.756 23.258,6.817 19.797,3.483C15.322,-0.829 8.048,-0.829 3.565,3.483C-0.918,7.795 -0.91,14.803 3.565,19.122C7.036,22.466 12.18,23.216 16.407,21.382C17.519,20.899 18.851,20.988 19.724,21.83L20.125,22.216ZM5.791,16.947C2.545,13.82 2.545,8.748 5.791,5.628C9.038,2.5 14.302,2.5 17.54,5.628C20.786,8.755 20.786,13.827 17.54,16.947C14.302,20.075 9.038,20.075 5.791,16.947Z" stroke="#FFFFFF" stroke-width="1" stroke-miterlimit="3.999327"/>
</svg>
