<svg width="74" height="82" viewBox="0 0 74 82" fill="none" xmlns="http://www.w3.org/2000/svg" xmlns:xlink="http://www.w3.org/1999/xlink">
<path d="M0,40.164C0,18.081 16.565,0.179 37,0.179C57.435,0.179 74,18.081 74,40.164C74,62.248 57.435,80.15 37,80.15C16.565,80.15 0,62.248 0,40.164ZM37,6.843C19.971,6.843 6.167,21.761 6.167,40.164C6.167,58.567 19.971,73.485 37,73.485C54.029,73.485 67.833,58.567 67.833,40.164C67.833,21.761 54.029,6.843 37,6.843Z" clip-rule="evenodd" fill-rule="evenodd" fill="#0966FF"/>
<path d="M13.566,69.709C13.566,60.017 20.837,52.16 29.805,52.16L45.428,52.16C54.396,52.16 61.666,60.017 61.666,69.709L55.5,69.709C55.5,63.698 50.99,58.824 45.428,58.824L29.805,58.824C24.243,58.824 19.733,63.698 19.733,69.709L13.566,69.709Z" clip-rule="evenodd" fill-rule="evenodd" fill="#0966FF"/>
<path d="M37.617,20.171C32.508,20.171 28.367,24.647 28.367,30.167C28.367,35.688 32.508,40.164 37.617,40.164C42.725,40.164 46.867,35.688 46.867,30.167C46.867,24.647 42.725,20.171 37.617,20.171ZM22.2,30.167C22.2,20.966 29.102,13.507 37.617,13.507C46.131,13.507 53.034,20.966 53.034,30.167C53.034,39.369 46.131,46.828 37.617,46.828C29.102,46.828 22.2,39.369 22.2,30.167Z" clip-rule="evenodd" fill-rule="evenodd" fill="#0966FF"/>
</svg>
