<svg width="66" height="66" viewBox="0 0 66 66" fill="none" xmlns="http://www.w3.org/2000/svg" xmlns:xlink="http://www.w3.org/1999/xlink">
<path d="M-0.549,32.32C-0.549,14.568 14.225,0.178 32.451,0.178C50.676,0.178 65.451,14.568 65.451,32.32C65.451,50.072 50.676,64.462 32.451,64.462C14.225,64.462 -0.549,50.072 -0.549,32.32ZM32.451,5.535C17.263,5.535 4.951,17.527 4.951,32.32C4.951,47.113 17.263,59.105 32.451,59.105C47.638,59.105 59.951,47.113 59.951,32.32C59.951,17.527 47.638,5.535 32.451,5.535Z" clip-rule="evenodd" fill-rule="evenodd" fill="#0966FF"/>
<path d="M11.551,56.07C11.551,48.279 18.035,41.963 26.034,41.963L39.967,41.963C47.966,41.963 54.451,48.279 54.451,56.07L48.951,56.07C48.951,51.237 44.929,47.32 39.967,47.32L26.034,47.32C21.073,47.32 17.051,51.237 17.051,56.07L11.551,56.07Z" clip-rule="evenodd" fill-rule="evenodd" fill="#0966FF"/>
<path d="M33,16.249C28.444,16.249 24.75,19.847 24.75,24.284C24.75,28.722 28.444,32.32 33,32.32C37.557,32.32 41.25,28.722 41.25,24.284C41.25,19.847 37.557,16.249 33,16.249ZM19.25,24.284C19.25,16.888 25.407,10.892 33,10.892C40.594,10.892 46.75,16.888 46.75,24.284C46.75,31.681 40.594,37.677 33,37.677C25.407,37.677 19.25,31.681 19.25,24.284Z" clip-rule="evenodd" fill-rule="evenodd" fill="#0966FF"/>
</svg>
