<svg width="40" height="38" viewBox="0 0 40 38" fill="none" xmlns="http://www.w3.org/2000/svg" xmlns:xlink="http://www.w3.org/1999/xlink">
<path d="M37.411,30.792L29.424,23.091C27.946,21.665 25.604,21.665 24.125,23.09L24.125,23.09C22.567,24.592 22.567,27.087 24.125,28.589L31.915,36.094C32.789,36.936 34.226,36.936 35.1,36.094L37.411,33.867C38.284,33.018 38.284,31.626 37.411,30.792Z" fill="#FFFFFF"/>
<path d="M37.411,30.792L29.424,23.091C27.946,21.665 25.604,21.665 24.125,23.09L24.125,23.09C22.567,24.592 22.567,27.087 24.125,28.589L31.915,36.094C32.789,36.936 34.226,36.936 35.1,36.094L37.411,33.867C38.284,33.018 38.284,31.626 37.411,30.792Z" stroke="#000000" stroke-width="1" stroke-miterlimit="3.999327"/>
<path d="M37.411,30.792L29.424,23.091C27.946,21.665 25.604,21.665 24.125,23.09L24.125,23.09C22.567,24.592 22.567,27.087 24.125,28.589L31.915,36.094C32.789,36.936 34.226,36.936 35.1,36.094L37.411,33.867C38.284,33.018 38.284,31.626 37.411,30.792Z" stroke="#FFFFFF" stroke-width="1" stroke-miterlimit="3.999327"/>
<path d="M20.124,22.216C20.899,22.962 22.125,22.962 22.9,22.216L22.9,22.216C23.717,21.429 23.717,20.121 22.9,19.335L22.605,19.051C21.747,18.224 21.656,16.902 22.157,15.821C24.041,11.755 23.257,6.817 19.796,3.483C15.321,-0.829 8.047,-0.829 3.564,3.483C-0.919,7.795 -0.911,14.802 3.564,19.122C7.035,22.466 12.18,23.216 16.406,21.381C17.518,20.899 18.85,20.988 19.723,21.829L20.124,22.216ZM5.791,16.947C2.544,13.819 2.544,8.748 5.791,5.628C9.037,2.5 14.301,2.5 17.539,5.628C20.785,8.755 20.785,13.827 17.539,16.947C14.301,20.075 9.037,20.075 5.791,16.947Z" fill="#FFFFFF"/>
<path d="M20.124,22.216C20.899,22.962 22.125,22.962 22.9,22.216L22.9,22.216C23.717,21.429 23.717,20.121 22.9,19.335L22.605,19.051C21.747,18.224 21.656,16.902 22.157,15.821C24.041,11.755 23.257,6.817 19.796,3.483C15.321,-0.829 8.047,-0.829 3.564,3.483C-0.919,7.795 -0.911,14.802 3.564,19.122C7.035,22.466 12.18,23.216 16.406,21.381C17.518,20.899 18.85,20.988 19.723,21.829L20.124,22.216ZM5.791,16.947C2.544,13.819 2.544,8.748 5.791,5.628C9.037,2.5 14.301,2.5 17.539,5.628C20.785,8.755 20.785,13.827 17.539,16.947C14.301,20.075 9.037,20.075 5.791,16.947Z" stroke="#000000" stroke-width="1" stroke-miterlimit="3.999327"/>
<path d="M20.124,22.216C20.899,22.962 22.125,22.962 22.9,22.216L22.9,22.216C23.717,21.429 23.717,20.121 22.9,19.335L22.605,19.051C21.747,18.224 21.656,16.902 22.157,15.821C24.041,11.755 23.257,6.817 19.796,3.483C15.321,-0.829 8.047,-0.829 3.564,3.483C-0.919,7.795 -0.911,14.802 3.564,19.122C7.035,22.466 12.18,23.216 16.406,21.381C17.518,20.899 18.85,20.988 19.723,21.829L20.124,22.216ZM5.791,16.947C2.544,13.819 2.544,8.748 5.791,5.628C9.037,2.5 14.301,2.5 17.539,5.628C20.785,8.755 20.785,13.827 17.539,16.947C14.301,20.075 9.037,20.075 5.791,16.947Z" stroke="#FFFFFF" stroke-width="1" stroke-miterlimit="3.999327"/>
</svg>
