<svg width="66" height="66" viewBox="0 0 66 66" fill="none" xmlns="http://www.w3.org/2000/svg" xmlns:xlink="http://www.w3.org/1999/xlink">
<path d="M-0.55,32.32C-0.55,14.568 14.225,0.178 32.45,0.178C50.676,0.178 65.45,14.568 65.45,32.32C65.45,50.072 50.676,64.462 32.45,64.462C14.225,64.462 -0.55,50.072 -0.55,32.32ZM32.45,5.535C17.262,5.535 4.95,17.527 4.95,32.32C4.95,47.113 17.262,59.105 32.45,59.105C47.638,59.105 59.95,47.113 59.95,32.32C59.95,17.527 47.638,5.535 32.45,5.535Z" clip-rule="evenodd" fill-rule="evenodd" fill="#0966FF"/>
<path d="M11.55,56.07C11.55,48.279 18.034,41.963 26.033,41.963L39.966,41.963C47.965,41.963 54.45,48.279 54.45,56.07L48.95,56.07C48.95,51.237 44.928,47.32 39.966,47.32L26.033,47.32C21.072,47.32 17.05,51.237 17.05,56.07L11.55,56.07Z" clip-rule="evenodd" fill-rule="evenodd" fill="#0966FF"/>
<path d="M33,16.249C28.444,16.249 24.75,19.847 24.75,24.284C24.75,28.722 28.444,32.32 33,32.32C37.556,32.32 41.25,28.722 41.25,24.284C41.25,19.847 37.556,16.249 33,16.249ZM19.25,24.284C19.25,16.888 25.406,10.892 33,10.892C40.594,10.892 46.75,16.888 46.75,24.284C46.75,31.681 40.594,37.677 33,37.677C25.406,37.677 19.25,31.681 19.25,24.284Z" clip-rule="evenodd" fill-rule="evenodd" fill="#0966FF"/>
</svg>
