<svg width="30" height="32" viewBox="0 0 30 32" fill="none" xmlns="http://www.w3.org/2000/svg" xmlns:xlink="http://www.w3.org/1999/xlink">
<path d="M0.434,23.919C-0.301,23.184 -0.301,21.992 0.434,21.257C1.169,20.522 2.361,20.522 3.096,21.257L10.625,28.787C11.361,29.522 11.361,30.714 10.625,31.449C9.89,32.184 8.698,32.184 7.963,31.449L0.434,23.919Z" transform="rotate(360 5.53 26.353)" fill="#4D7CFE"/>
<path d="M16.824,22.588C22.021,22.588 26.235,18.374 26.235,13.176C26.235,7.979 22.021,3.765 16.824,3.765C11.626,3.765 7.412,7.979 7.412,13.176C7.412,18.374 11.626,22.588 16.824,22.588ZM16.824,26.353C9.546,26.353 3.647,20.454 3.647,13.176C3.647,5.899 9.546,0 16.824,0C24.101,0 30,5.899 30,13.176C30,20.454 24.101,26.353 16.824,26.353Z" transform="rotate(360 16.824 13.176)" fill="#4D7CFE"/>
</svg>
