<svg width="36" height="42" viewBox="0 0 36 42" fill="none" xmlns="http://www.w3.org/2000/svg" xmlns:xlink="http://www.w3.org/1999/xlink">
<path d="M30.083,21.313L30.083,17.517C30.083,11.978 26.465,7.283 21.508,5.75L21.508,4.031C21.508,2.063 19.935,0.461 18,0.461C16.066,0.461 14.493,2.063 14.493,4.031L14.493,5.75C9.536,7.283 5.918,11.978 5.918,17.517L5.918,21.313C5.918,26.179 4.096,30.792 0.787,34.304C0.463,34.648 0.372,35.156 0.556,35.594C0.74,36.033 1.163,36.317 1.631,36.317L12.272,36.317C12.815,39.03 15.177,41.077 18,41.077C20.824,41.077 23.186,39.03 23.729,36.317L34.37,36.317C34.838,36.317 35.261,36.033 35.445,35.594C35.629,35.156 35.538,34.648 35.214,34.304C31.905,30.792 30.083,26.179 30.083,21.313ZM16.831,4.031C16.831,3.375 17.356,2.841 18,2.841C18.645,2.841 19.17,3.375 19.17,4.031L19.17,5.279C18.785,5.241 18.395,5.221 18,5.221C17.606,5.221 17.216,5.241 16.831,5.279L16.831,4.031ZM18,38.697C16.476,38.697 15.176,37.702 14.694,36.317L21.307,36.317C20.824,37.702 19.525,38.697 18,38.697ZM4.151,33.937C6.814,30.305 8.257,25.909 8.257,21.313L8.257,17.517C8.257,12.049 12.628,7.601 18,7.601C23.373,7.601 27.744,12.049 27.744,17.517L27.744,21.313C27.744,25.909 29.187,30.305 31.85,33.937L4.151,33.937Z" fill="#4D7CFE"/>
<path d="M14.031,4.031C14.031,1.816 15.803,0 18,0C20.197,0 21.969,1.816 21.969,4.031L21.969,5.415C26.95,7.109 30.544,11.896 30.544,17.517L30.544,21.314C30.544,26.062 32.322,30.562 35.549,33.987C35.999,34.465 36.124,35.167 35.87,35.773C35.616,36.379 35.027,36.779 34.369,36.779L24.095,36.779C23.378,39.511 20.923,41.538 18,41.538C15.077,41.538 12.622,39.511 11.905,36.779L1.631,36.779C0.973,36.779 0.384,36.379 0.13,35.773C-0.124,35.167 0.001,34.465 0.451,33.987C0.451,33.987 0.451,33.987 0.451,33.987C3.678,30.562 5.456,26.062 5.456,21.314L5.456,17.517C5.456,11.896 9.05,7.109 14.031,5.415L14.031,5.75L14.492,5.75L14.356,5.309C14.247,5.343 14.139,5.378 14.031,5.415L14.031,4.031ZM18,0.923C16.328,0.923 14.954,2.31 14.954,4.031L14.954,6.091L14.629,6.191C9.864,7.665 6.38,12.182 6.38,17.517L6.38,21.314C6.38,26.295 4.513,31.022 1.123,34.62C0.925,34.831 0.867,35.144 0.981,35.416C1.094,35.686 1.352,35.856 1.631,35.856L12.65,35.856L12.724,36.227C13.226,38.733 15.407,40.615 18,40.615C20.593,40.615 22.774,38.733 23.276,36.227L23.35,35.856L34.369,35.856C34.648,35.856 34.906,35.686 35.019,35.416C35.133,35.144 35.075,34.831 34.877,34.62M18,3.303C17.618,3.303 17.292,3.622 17.292,4.031L17.292,4.78C17.526,4.767 17.762,4.76 18,4.76C18.238,4.76 18.474,4.767 18.708,4.78L18.708,4.031C18.708,3.622 18.382,3.303 18,3.303ZM16.369,4.031C16.369,3.128 17.093,2.38 18,2.38C18.907,2.38 19.631,3.128 19.631,4.031L19.631,5.788L19.124,5.738C18.754,5.702 18.379,5.683 18,5.683C17.621,5.683 17.246,5.702 16.876,5.738L16.369,5.788L16.369,4.031ZM18,8.063C12.89,8.063 8.718,12.296 8.718,17.517L8.718,21.314C8.718,25.701 7.43,29.913 5.038,33.476L30.962,33.476C28.57,29.913 27.282,25.701 27.282,21.314L27.282,17.517C27.282,12.296 23.11,8.063 18,8.063ZM7.795,17.517C7.795,11.802 12.365,7.139 18,7.139C23.635,7.139 28.205,11.802 28.205,17.517L28.205,21.314C28.205,25.812 29.617,30.112 32.221,33.665L32.76,34.399L3.24,34.399L3.779,33.665C6.383,30.112 7.795,25.812 7.795,21.314L7.795,17.517ZM14.044,35.856L21.956,35.856L21.742,36.469C21.199,38.029 19.732,39.159 18,39.159C16.269,39.159 14.801,38.029 14.258,36.469L14.044,35.856ZM15.421,36.779C15.962,37.656 16.919,38.236 18,38.236C19.081,38.236 20.038,37.656 20.579,36.779L15.421,36.779Z" clip-rule="evenodd" fill-rule="evenodd" fill="#4D7CFE"/>
<path d="M35.539,15.231C35.539,19.309 32.233,22.615 28.154,22.615C24.076,22.615 20.77,19.309 20.77,15.231C20.77,11.152 24.076,7.846 28.154,7.846C32.233,7.846 35.539,11.152 35.539,15.231Z" fill="#DC1500"/>
</svg>
