<svg width="38" height="42" viewBox="0 0 38 42" fill="none" xmlns="http://www.w3.org/2000/svg" xmlns:xlink="http://www.w3.org/1999/xlink">
<path d="M30.728,21.639L30.728,17.825C30.728,12.262 27.097,7.547 22.122,6.007L22.122,4.28C22.122,2.303 20.542,0.694 18.601,0.694C16.66,0.694 15.081,2.303 15.081,4.28L15.081,6.007C10.106,7.547 6.475,12.262 6.475,17.825L6.475,21.639C6.475,26.526 4.646,31.16 1.325,34.687C1,35.033 0.908,35.543 1.093,35.983C1.277,36.424 1.702,36.71 2.172,36.71L12.852,36.71C13.397,39.434 15.768,41.49 18.601,41.49C21.435,41.49 23.806,39.434 24.351,36.71L35.03,36.71C35.501,36.71 35.925,36.424 36.11,35.983C36.294,35.543 36.203,35.033 35.878,34.687C32.557,31.16 30.728,26.526 30.728,21.639ZM17.428,4.28C17.428,3.621 17.954,3.085 18.601,3.085C19.248,3.085 19.775,3.621 19.775,4.28L19.775,5.533C19.389,5.495 18.997,5.475 18.601,5.475C18.205,5.475 17.814,5.495 17.428,5.533L17.428,4.28ZM18.601,39.1C17.071,39.1 15.767,38.101 15.283,36.71L21.92,36.71C21.436,38.101 20.131,39.1 18.601,39.1ZM4.701,34.319C7.374,30.67 8.822,26.255 8.822,21.639L8.822,17.825C8.822,12.334 13.209,7.865 18.601,7.865C23.994,7.865 28.381,12.334 28.381,17.825L28.381,21.639C28.381,26.255 29.829,30.67 32.501,34.319L4.701,34.319Z" fill="#4D7CFE"/>
<path d="M14.617,4.28C14.617,2.055 16.396,0.231 18.601,0.231C20.806,0.231 22.585,2.055 22.585,4.28L22.585,5.67C27.584,7.371 31.191,12.18 31.191,17.826L31.191,21.639C31.191,26.409 32.975,30.929 36.215,34.369C36.666,34.849 36.792,35.554 36.537,36.163C36.282,36.772 35.691,37.173 35.03,37.173L24.719,37.173C23.999,39.918 21.535,41.954 18.601,41.954C15.668,41.954 13.203,39.918 12.483,37.173L2.172,37.173C1.512,37.173 0.92,36.772 0.665,36.163C0.411,35.554 0.536,34.849 0.988,34.369C0.988,34.369 0.988,34.369 0.988,34.369C4.227,30.929 6.012,26.409 6.012,21.639L6.012,17.826C6.012,12.179 9.619,7.371 14.617,5.67L14.617,6.007L15.081,6.007L14.944,5.564C14.834,5.598 14.725,5.633 14.617,5.67L14.617,4.28ZM18.601,1.158C16.923,1.158 15.544,2.551 15.544,4.28L15.544,6.349L15.217,6.45C10.435,7.93 6.938,12.467 6.938,17.826L6.938,21.639C6.938,26.643 5.065,31.391 1.662,35.005C1.463,35.217 1.405,35.531 1.52,35.804C1.633,36.076 1.892,36.246 2.172,36.246L13.231,36.246L13.306,36.619C13.81,39.137 15.999,41.027 18.601,41.027C21.204,41.027 23.393,39.137 23.896,36.619L23.971,36.246L35.03,36.246C35.31,36.246 35.569,36.076 35.683,35.804C35.797,35.532 35.739,35.217 35.54,35.005M18.601,3.549C18.218,3.549 17.891,3.869 17.891,4.28L17.891,5.032C18.126,5.019 18.363,5.012 18.601,5.012C18.84,5.012 19.076,5.019 19.311,5.032L19.311,4.28C19.311,3.869 18.985,3.549 18.601,3.549ZM16.964,4.28C16.964,3.373 17.691,2.621 18.601,2.621C19.512,2.621 20.238,3.373 20.238,4.28L20.238,6.045L19.729,5.995C19.358,5.958 18.981,5.939 18.601,5.939C18.221,5.939 17.845,5.958 17.473,5.995L16.964,6.045L16.964,4.28ZM18.601,8.329C13.472,8.329 9.285,12.582 9.285,17.826L9.285,21.639C9.285,26.046 7.992,30.277 5.592,33.856L31.61,33.856C29.21,30.277 27.917,26.046 27.917,21.639L27.917,17.826C27.917,12.582 23.73,8.329 18.601,8.329ZM8.359,17.826C8.359,12.085 12.945,7.402 18.601,7.402C24.257,7.402 28.844,12.085 28.844,17.826L28.844,21.639C28.844,26.157 30.261,30.477 32.875,34.045L33.415,34.783L3.787,34.783L4.328,34.045C6.942,30.477 8.359,26.157 8.359,21.639L8.359,17.826ZM14.63,36.246L22.572,36.246L22.357,36.862C21.812,38.429 20.339,39.564 18.601,39.564C16.863,39.564 15.391,38.429 14.845,36.862L14.63,36.246ZM16.013,37.173C16.556,38.054 17.516,38.637 18.601,38.637C19.686,38.637 20.646,38.054 21.19,37.173L16.013,37.173Z" clip-rule="evenodd" fill-rule="evenodd" fill="#4D7CFE"/>
<path d="M36.204,15.529C36.204,19.626 32.885,22.947 28.792,22.947C24.699,22.947 21.38,19.626 21.38,15.529C21.38,11.433 24.699,8.112 28.792,8.112C32.885,8.112 36.204,11.433 36.204,15.529Z" fill="#DC1500"/>
</svg>
