<svg width="74" height="80" viewBox="0 0 74 80" fill="none" xmlns="http://www.w3.org/2000/svg" xmlns:xlink="http://www.w3.org/1999/xlink">
<path d="M0,40.213C0,18.343 16.565,0.614 37,0.614C57.435,0.614 74,18.343 74,40.213C74,62.082 57.435,79.811 37,79.811C16.565,79.811 0,62.082 0,40.213ZM37,7.214C19.971,7.214 6.167,21.988 6.167,40.213C6.167,58.438 19.971,73.212 37,73.212C54.029,73.212 67.833,58.438 67.833,40.213C67.833,21.988 54.029,7.214 37,7.214Z" clip-rule="evenodd" fill-rule="evenodd" fill="#0966FF"/>
<path d="M13.566,69.472C13.566,59.873 20.837,52.092 29.805,52.092L45.428,52.092C54.396,52.092 61.666,59.873 61.666,69.472L55.5,69.472C55.5,63.518 50.99,58.692 45.428,58.692L29.805,58.692C24.243,58.692 19.733,63.518 19.733,69.472L13.566,69.472Z" clip-rule="evenodd" fill-rule="evenodd" fill="#0966FF"/>
<path d="M37.617,20.413C32.508,20.413 28.367,24.845 28.367,30.313C28.367,35.78 32.508,40.213 37.617,40.213C42.725,40.213 46.867,35.78 46.867,30.313C46.867,24.845 42.725,20.413 37.617,20.413ZM22.2,30.313C22.2,21.201 29.102,13.813 37.617,13.813C46.131,13.813 53.034,21.201 53.034,30.313C53.034,39.425 46.131,46.812 37.617,46.812C29.102,46.812 22.2,39.425 22.2,30.313Z" clip-rule="evenodd" fill-rule="evenodd" fill="#0966FF"/>
</svg>
