<svg width="74" height="80" viewBox="0 0 74 80" fill="none" xmlns="http://www.w3.org/2000/svg" xmlns:xlink="http://www.w3.org/1999/xlink">
<path d="M0,38.996C0,16.913 16.565,-0.989 37,-0.989C57.435,-0.989 74,16.913 74,38.996C74,61.08 57.435,78.982 37,78.982C16.565,78.982 0,61.08 0,38.996ZM37,5.675C19.971,5.675 6.167,20.593 6.167,38.996C6.167,57.399 19.971,72.317 37,72.317C54.029,72.317 67.833,57.399 67.833,38.996C67.833,20.593 54.029,5.675 37,5.675Z" clip-rule="evenodd" fill-rule="evenodd" fill="#0966FF"/>
<path d="M13.566,68.541C13.566,58.849 20.837,50.992 29.805,50.992L45.428,50.992C54.396,50.992 61.666,58.849 61.666,68.541L55.5,68.541C55.5,62.53 50.99,57.656 45.428,57.656L29.805,57.656C24.243,57.656 19.733,62.53 19.733,68.541L13.566,68.541Z" clip-rule="evenodd" fill-rule="evenodd" fill="#0966FF"/>
<path d="M37.617,19.003C32.508,19.003 28.367,23.479 28.367,28.999C28.367,34.52 32.508,38.996 37.617,38.996C42.725,38.996 46.867,34.52 46.867,28.999C46.867,23.479 42.725,19.003 37.617,19.003ZM22.2,28.999C22.2,19.798 29.102,12.339 37.617,12.339C46.131,12.339 53.034,19.798 53.034,28.999C53.034,38.201 46.131,45.66 37.617,45.66C29.102,45.66 22.2,38.201 22.2,28.999Z" clip-rule="evenodd" fill-rule="evenodd" fill="#0966FF"/>
</svg>
