<svg width="32" height="32" viewBox="0 0 32 32" fill="none" xmlns="http://www.w3.org/2000/svg" xmlns:xlink="http://www.w3.org/1999/xlink">
<path d="M29.4,20C29.4,19.227 28.773,18.6 28,18.6C27.227,18.6 26.6,19.227 26.6,20L29.4,20ZM4,25.333L2.6,25.333L4,25.333ZM5.4,20C5.4,19.227 4.773,18.6 4,18.6C3.227,18.6 2.6,19.227 2.6,20L5.4,20ZM26.6,20L26.6,25.333L29.4,25.333L29.4,20L26.6,20ZM26.6,25.333C26.6,25.669 26.467,25.991 26.229,26.229L28.209,28.209C28.972,27.446 29.4,26.412 29.4,25.333L26.6,25.333ZM26.229,26.229C25.991,26.467 25.669,26.6 25.333,26.6L25.333,29.4C26.412,29.4 27.446,28.972 28.209,28.209L26.229,26.229ZM25.333,26.6L6.667,26.6L6.667,29.4L25.333,29.4L25.333,26.6ZM6.667,26.6C6.331,26.6 6.009,26.467 5.771,26.229L3.791,28.209C4.554,28.972 5.588,29.4 6.667,29.4L6.667,26.6ZM5.771,26.229C5.533,25.991 5.4,25.669 5.4,25.333L2.6,25.333C2.6,26.412 3.028,27.446 3.791,28.209L5.771,26.229ZM5.4,25.333L5.4,20L2.6,20L2.6,25.333L5.4,25.333Z" fill="#778CA2"/>
<path d="M10.323,12.343C9.776,11.796 8.89,11.796 8.343,12.343C7.796,12.89 7.796,13.776 8.343,14.323L10.323,12.343ZM16,20L15.01,20.99C15.272,21.252 15.628,21.4 16,21.4C16.371,21.4 16.727,21.252 16.99,20.99L16,20ZM23.656,14.323C24.203,13.776 24.203,12.89 23.656,12.343C23.11,11.796 22.223,11.796 21.676,12.343L23.656,14.323ZM8.343,14.323L15.01,20.99L16.99,19.01L10.323,12.343L8.343,14.323ZM16.99,20.99L23.656,14.323L21.676,12.343L15.01,19.01L16.99,20.99Z" fill="#778CA2"/>
<line x1="14.6" y1="4" x2="14.6" y2="20" stroke="#778CA2" stroke-width="1.4" stroke-miterlimit="3.999327" stroke-linecap="round" stroke-linejoin="round"/>
</svg>
