<svg width="48" height="48" viewBox="0 0 48 48" fill="none" xmlns="http://www.w3.org/2000/svg" xmlns:xlink="http://www.w3.org/1999/xlink">
<line x1="6" y1="10" x2="42" y2="10" stroke="#98A9BC" stroke-width="2" stroke-miterlimit="3.999327" stroke-linecap="round" stroke-linejoin="round"/>
<path d="M38,12L40,12C40,10.896 39.105,10 38,10L38,12ZM10,40L8,40L10,40ZM10,12L10,10C8.895,10 8,10.896 8,12L10,12ZM14,12C14,13.105 14.895,14 16,14C17.105,14 18,13.105 18,12L14,12ZM20,4L20,2L20,4ZM28,4L28,2L28,4ZM30,12C30,13.105 30.895,14 32,14C33.105,14 34,13.105 34,12L30,12ZM36,12L36,40L40,40L40,12L36,12ZM36,40C36,40.531 35.789,41.039 35.414,41.414L38.243,44.243C39.368,43.118 40,41.592 40,40L36,40ZM35.414,41.414C35.039,41.789 34.53,42 34,42L34,46C35.591,46 37.117,45.368 38.243,44.243L35.414,41.414ZM34,42L14,42L14,46L34,46L34,42ZM14,42C13.47,42 12.961,41.789 12.586,41.414L9.757,44.243C10.883,45.368 12.409,46 14,46L14,42ZM12.586,41.414C12.211,41.039 12,40.531 12,40L8,40C8,41.592 8.632,43.118 9.757,44.243L12.586,41.414ZM12,40L12,12L8,12L8,40L12,40ZM10,14L38,14L38,10L10,10L10,14ZM18,12L18,8L14,8L14,12L18,12ZM18,8C18,7.47 18.211,6.961 18.586,6.586L15.757,3.758C14.632,4.883 14,6.409 14,8L18,8ZM18.586,6.586C18.961,6.211 19.47,6 20,6L20,2C18.409,2 16.883,2.632 15.757,3.758L18.586,6.586ZM20,6L28,6L28,2L20,2L20,6ZM28,6C28.53,6 29.039,6.211 29.414,6.586L32.243,3.758C31.117,2.632 29.591,2 28,2L28,6ZM29.414,6.586C29.789,6.961 30,7.47 30,8L34,8C34,6.409 33.368,4.883 32.243,3.758L29.414,6.586ZM30,8L30,12L34,12L34,8L30,8Z" fill="#98A9BC"/>
</svg>
