<svg width="32" height="32" viewBox="0 0 32 32" fill="none" xmlns="http://www.w3.org/2000/svg" xmlns:xlink="http://www.w3.org/1999/xlink">
<path d="M2.117,4C2.117,3.263 2.714,2.667 3.451,2.667L12.784,2.667C13.52,2.667 14.117,3.263 14.117,4L14.117,13.333C14.117,14.07 13.52,14.667 12.784,14.667L3.451,14.667C2.714,14.667 2.117,14.07 2.117,13.333L2.117,4ZM4.784,5.333L4.784,12L11.451,12L11.451,5.333L4.784,5.333Z" clip-rule="evenodd" fill-rule="evenodd" fill="#98A9BC"/>
<path d="M16.784,4C16.784,3.263 17.381,2.667 18.118,2.667L27.451,2.667C28.187,2.667 28.784,3.263 28.784,4L28.784,13.333C28.784,14.07 28.187,14.667 27.451,14.667L18.118,14.667C17.381,14.667 16.784,14.07 16.784,13.333L16.784,4ZM19.451,5.333L19.451,12L26.118,12L26.118,5.333L19.451,5.333Z" clip-rule="evenodd" fill-rule="evenodd" fill="#98A9BC"/>
<path d="M16.784,18.667C16.784,17.93 17.381,17.333 18.118,17.333L27.451,17.333C28.187,17.333 28.784,17.93 28.784,18.667L28.784,28C28.784,28.737 28.187,29.333 27.451,29.333L18.118,29.333C17.381,29.333 16.784,28.737 16.784,28L16.784,18.667ZM19.451,20L19.451,26.667L26.118,26.667L26.118,20L19.451,20Z" clip-rule="evenodd" fill-rule="evenodd" fill="#98A9BC"/>
<path d="M2.117,18.667C2.117,17.93 2.714,17.333 3.451,17.333L12.784,17.333C13.52,17.333 14.117,17.93 14.117,18.667L14.117,28C14.117,28.737 13.52,29.333 12.784,29.333L3.451,29.333C2.714,29.333 2.117,28.737 2.117,28L2.117,18.667ZM4.784,20L4.784,26.667L11.451,26.667L11.451,20L4.784,20Z" clip-rule="evenodd" fill-rule="evenodd" fill="#98A9BC"/>
</svg>
