<svg width="48" height="48" viewBox="0 0 48 48" fill="none" xmlns="http://www.w3.org/2000/svg" xmlns:xlink="http://www.w3.org/1999/xlink">
<path d="M6,23.168L4.214,22.269C3.929,22.834 3.929,23.502 4.214,24.067L6,23.168ZM42,23.168L43.786,24.067C44.071,23.502 44.071,22.834 43.786,22.269L42,23.168ZM6,23.168C7.786,24.067 7.786,24.068 7.786,24.068C7.786,24.069 7.786,24.069 7.785,24.069C7.785,24.07 7.785,24.07 7.785,24.07C7.785,24.07 7.785,24.069 7.786,24.068C7.788,24.065 7.791,24.059 7.795,24.05C7.804,24.032 7.82,24.003 7.841,23.963C7.884,23.882 7.952,23.757 8.044,23.595C8.227,23.271 8.507,22.798 8.878,22.227C9.624,21.081 10.727,19.557 12.159,18.041C15.057,14.971 19.066,12.168 24,12.168L24,8.168C17.479,8.168 12.488,11.865 9.25,15.295C7.613,17.029 6.365,18.755 5.525,20.046C5.104,20.694 4.782,21.237 4.563,21.624C4.454,21.817 4.37,21.972 4.311,22.081C4.282,22.136 4.259,22.18 4.243,22.211C4.235,22.227 4.228,22.24 4.223,22.249C4.221,22.254 4.219,22.258 4.217,22.261C4.217,22.263 4.216,22.264 4.215,22.265C4.215,22.266 4.214,22.267 4.214,22.267C4.214,22.268 4.214,22.269 6,23.168ZM24,12.168C28.934,12.168 32.943,14.971 35.841,18.041C37.273,19.557 38.376,21.081 39.122,22.227C39.493,22.798 39.773,23.271 39.956,23.595C40.048,23.757 40.116,23.882 40.159,23.963C40.18,24.003 40.196,24.032 40.205,24.05C40.209,24.059 40.212,24.065 40.214,24.068C40.215,24.069 40.215,24.07 40.215,24.07C40.215,24.07 40.215,24.07 40.215,24.069C40.214,24.069 40.214,24.069 40.214,24.068C40.214,24.068 40.214,24.067 42,23.168C43.786,22.269 43.786,22.268 43.786,22.267C43.786,22.267 43.785,22.266 43.785,22.265C43.784,22.264 43.783,22.263 43.783,22.261C43.781,22.258 43.779,22.254 43.777,22.249C43.772,22.24 43.765,22.227 43.757,22.211C43.741,22.18 43.718,22.136 43.689,22.081C43.63,21.972 43.546,21.817 43.437,21.624C43.218,21.237 42.896,20.694 42.475,20.046C41.635,18.755 40.387,17.029 38.75,15.295C35.512,11.865 30.521,8.168 24,8.168L24,12.168ZM42,23.168C40.214,22.269 40.214,22.268 40.214,22.267C40.214,22.267 40.214,22.267 40.215,22.267C40.215,22.266 40.215,22.266 40.215,22.266C40.215,22.266 40.215,22.267 40.214,22.268C40.212,22.271 40.209,22.277 40.205,22.286C40.196,22.304 40.18,22.333 40.159,22.373C40.116,22.454 40.048,22.579 39.956,22.741C39.773,23.065 39.493,23.538 39.122,24.109C38.376,25.255 37.273,26.779 35.841,28.295C32.943,31.365 28.934,34.168 24,34.168L24,38.168C30.521,38.168 35.512,34.471 38.75,31.041C40.387,29.307 41.635,27.581 42.475,26.29C42.896,25.642 43.218,25.099 43.437,24.712C43.546,24.519 43.63,24.364 43.689,24.255C43.718,24.2 43.741,24.156 43.757,24.125C43.765,24.109 43.772,24.096 43.777,24.087C43.779,24.082 43.781,24.078 43.783,24.075C43.783,24.073 43.784,24.072 43.785,24.07C43.785,24.07 43.786,24.069 43.786,24.069C43.786,24.068 43.786,24.067 42,23.168ZM24,34.168C19.066,34.168 15.057,31.365 12.159,28.295C10.727,26.779 9.624,25.255 8.878,24.109C8.507,23.538 8.227,23.065 8.044,22.741C7.952,22.579 7.884,22.454 7.841,22.373C7.82,22.333 7.804,22.304 7.795,22.286C7.791,22.277 7.788,22.271 7.786,22.268C7.785,22.267 7.785,22.266 7.785,22.266C7.785,22.266 7.785,22.266 7.785,22.267C7.786,22.267 7.786,22.267 7.786,22.267C7.786,22.268 7.786,22.269 6,23.168C4.214,24.067 4.214,24.068 4.214,24.069C4.214,24.069 4.215,24.07 4.215,24.07C4.216,24.072 4.217,24.073 4.217,24.075C4.219,24.078 4.221,24.082 4.223,24.087C4.228,24.096 4.235,24.109 4.243,24.125C4.259,24.156 4.282,24.2 4.311,24.255C4.37,24.364 4.454,24.519 4.563,24.712C4.782,25.099 5.104,25.642 5.525,26.29C6.365,27.581 7.613,29.307 9.25,31.041C12.488,34.471 17.479,38.168 24,38.168L24,34.168Z" fill="#98A9BC"/>
<path d="M26,23.168C26,25.264 24.711,26.168 24,26.168L24,30.168C27.707,30.168 30,26.594 30,23.168L26,23.168ZM24,26.168C23.289,26.168 22,25.264 22,23.168L18,23.168C18,26.594 20.293,30.168 24,30.168L24,26.168ZM22,23.168C22,21.072 23.289,20.168 24,20.168L24,16.168C20.293,16.168 18,19.742 18,23.168L22,23.168ZM24,20.168C24.711,20.168 26,21.072 26,23.168L30,23.168C30,19.742 27.707,16.168 24,16.168L24,20.168Z" fill="#98A9BC"/>
</svg>
