<svg width="48" height="48" viewBox="0 0 48 48" fill="none" xmlns="http://www.w3.org/2000/svg" xmlns:xlink="http://www.w3.org/1999/xlink">
<path d="M6,23.352L4.214,22.452C3.929,23.018 3.929,23.685 4.214,24.251L6,23.352ZM42,23.352L43.786,24.251C44.071,23.685 44.071,23.018 43.786,22.452L42,23.352ZM6,23.352C7.786,24.251 7.786,24.252 7.786,24.252C7.786,24.252 7.786,24.253 7.785,24.253C7.785,24.253 7.785,24.254 7.785,24.254C7.785,24.254 7.785,24.253 7.786,24.251C7.788,24.249 7.791,24.243 7.795,24.234C7.804,24.216 7.82,24.187 7.841,24.146C7.884,24.065 7.952,23.941 8.044,23.779C8.227,23.454 8.507,22.982 8.878,22.411C9.624,21.264 10.727,19.741 12.159,18.225C15.057,15.155 19.066,12.352 24,12.352L24,8.352C17.479,8.352 12.488,12.049 9.25,15.479C7.613,17.212 6.365,18.939 5.525,20.23C5.104,20.877 4.782,21.421 4.563,21.807C4.454,22.001 4.37,22.155 4.311,22.265C4.282,22.32 4.259,22.363 4.243,22.395C4.235,22.411 4.228,22.423 4.223,22.433C4.221,22.438 4.219,22.442 4.217,22.445C4.217,22.446 4.216,22.448 4.215,22.449C4.215,22.45 4.214,22.45 4.214,22.451C4.214,22.451 4.214,22.452 6,23.352ZM24,12.352C28.934,12.352 32.943,15.155 35.841,18.225C37.273,19.741 38.376,21.264 39.122,22.411C39.493,22.982 39.773,23.454 39.956,23.779C40.048,23.941 40.116,24.065 40.159,24.146C40.18,24.187 40.196,24.216 40.205,24.234C40.209,24.243 40.212,24.249 40.214,24.251C40.215,24.253 40.215,24.254 40.215,24.254C40.215,24.254 40.215,24.253 40.215,24.253C40.214,24.253 40.214,24.252 40.214,24.252C40.214,24.252 40.214,24.251 42,23.352C43.786,22.452 43.786,22.451 43.786,22.451C43.786,22.45 43.785,22.45 43.785,22.449C43.784,22.448 43.783,22.446 43.783,22.445C43.781,22.442 43.779,22.438 43.777,22.433C43.772,22.423 43.765,22.411 43.757,22.395C43.741,22.363 43.718,22.32 43.689,22.265C43.63,22.155 43.546,22.001 43.437,21.807C43.218,21.421 42.896,20.877 42.475,20.23C41.635,18.939 40.387,17.212 38.75,15.479C35.512,12.049 30.521,8.352 24,8.352L24,12.352ZM42,23.352C40.214,22.452 40.214,22.452 40.214,22.451C40.214,22.451 40.214,22.45 40.215,22.45C40.215,22.45 40.215,22.45 40.215,22.45C40.215,22.45 40.215,22.45 40.214,22.452C40.212,22.455 40.209,22.46 40.205,22.469C40.196,22.487 40.18,22.517 40.159,22.557C40.116,22.638 40.048,22.762 39.956,22.924C39.773,23.249 39.493,23.721 39.122,24.292C38.376,25.439 37.273,26.962 35.841,28.479C32.943,31.549 28.934,34.352 24,34.352L24,38.352C30.521,38.352 35.512,34.655 38.75,31.225C40.387,29.491 41.635,27.764 42.475,26.473C42.896,25.826 43.218,25.283 43.437,24.896C43.546,24.702 43.63,24.548 43.689,24.438C43.718,24.383 43.741,24.34 43.757,24.308C43.765,24.293 43.772,24.28 43.777,24.27C43.779,24.266 43.781,24.262 43.783,24.258C43.783,24.257 43.784,24.255 43.785,24.254C43.785,24.253 43.786,24.253 43.786,24.252C43.786,24.252 43.786,24.251 42,23.352ZM24,34.352C19.066,34.352 15.057,31.549 12.159,28.479C10.727,26.962 9.624,25.439 8.878,24.292C8.507,23.721 8.227,23.249 8.044,22.924C7.952,22.762 7.884,22.638 7.841,22.557C7.82,22.517 7.804,22.487 7.795,22.469C7.791,22.46 7.788,22.455 7.786,22.452C7.785,22.45 7.785,22.45 7.785,22.45C7.785,22.45 7.785,22.45 7.785,22.45C7.786,22.45 7.786,22.451 7.786,22.451C7.786,22.452 7.786,22.452 6,23.352C4.214,24.251 4.214,24.252 4.214,24.252C4.214,24.253 4.215,24.253 4.215,24.254C4.216,24.255 4.217,24.257 4.217,24.258C4.219,24.262 4.221,24.266 4.223,24.27C4.228,24.28 4.235,24.293 4.243,24.308C4.259,24.34 4.282,24.383 4.311,24.438C4.37,24.548 4.454,24.702 4.563,24.896C4.782,25.283 5.104,25.826 5.525,26.473C6.365,27.764 7.613,29.491 9.25,31.225C12.488,34.655 17.479,38.352 24,38.352L24,34.352Z" fill="#98A9BC"/>
<path d="M26,23.352C26,25.448 24.711,26.352 24,26.352L24,30.352C27.707,30.352 30,26.778 30,23.352L26,23.352ZM24,26.352C23.289,26.352 22,25.448 22,23.352L18,23.352C18,26.778 20.293,30.352 24,30.352L24,26.352ZM22,23.352C22,21.255 23.289,20.352 24,20.352L24,16.352C20.293,16.352 18,19.925 18,23.352L22,23.352ZM24,20.352C24.711,20.352 26,21.255 26,23.352L30,23.352C30,19.925 27.707,16.352 24,16.352L24,20.352Z" fill="#98A9BC"/>
</svg>
