<svg width="32" height="34" viewBox="0 0 32 34" fill="none" xmlns="http://www.w3.org/2000/svg" xmlns:xlink="http://www.w3.org/1999/xlink">
<path d="M15.427,4.178C8.8,4.178 3.427,9.55 3.427,16.178C3.427,22.805 8.8,28.178 15.427,28.178C22.055,28.178 27.427,22.805 27.427,16.178C27.427,9.55 22.055,4.178 15.427,4.178ZM0.761,16.178C0.761,8.078 7.327,1.511 15.427,1.511C23.528,1.511 30.094,8.078 30.094,16.178C30.094,24.278 23.528,30.845 15.427,30.845C7.327,30.845 0.761,24.278 0.761,16.178Z" clip-rule="evenodd" fill-rule="evenodd" fill="#FFFFFF"/>
<path d="M15.428,9.511C16.164,9.511 16.761,10.108 16.761,10.844L16.761,21.511C16.761,22.247 16.164,22.844 15.428,22.844C14.692,22.844 14.095,22.247 14.095,21.511L14.095,10.844C14.095,10.108 14.692,9.511 15.428,9.511Z" clip-rule="evenodd" fill-rule="evenodd" fill="#FFFFFF"/>
<path d="M8.761,16.178C8.761,15.441 9.358,14.844 10.094,14.844L20.761,14.844C21.497,14.844 22.094,15.441 22.094,16.178C22.094,16.914 21.497,17.511 20.761,17.511L10.094,17.511C9.358,17.511 8.761,16.914 8.761,16.178Z" clip-rule="evenodd" fill-rule="evenodd" fill="#FFFFFF"/>
</svg>
