<svg width="48" height="48" viewBox="0 0 48 48" fill="none" xmlns="http://www.w3.org/2000/svg" xmlns:xlink="http://www.w3.org/1999/xlink">
<line x1="6" y1="9.164" x2="42" y2="9.164" stroke="#98A9BC" stroke-width="2" stroke-miterlimit="3.999327" stroke-linecap="round" stroke-linejoin="round"/>
<path d="M38,11.164L40,11.164C40,10.06 39.105,9.164 38,9.164L38,11.164ZM10,39.164L8,39.164L10,39.164ZM10,11.164L10,9.164C8.895,9.164 8,10.06 8,11.164L10,11.164ZM14,11.164C14,12.269 14.895,13.164 16,13.164C17.105,13.164 18,12.269 18,11.164L14,11.164ZM20,3.164L20,1.164L20,3.164ZM28,3.164L28,1.164L28,3.164ZM30,11.164C30,12.269 30.895,13.164 32,13.164C33.105,13.164 34,12.269 34,11.164L30,11.164ZM36,11.164L36,39.164L40,39.164L40,11.164L36,11.164ZM36,39.164C36,39.694 35.789,40.203 35.414,40.578L38.243,43.407C39.368,42.281 40,40.755 40,39.164L36,39.164ZM35.414,40.578C35.039,40.953 34.53,41.164 34,41.164L34,45.164C35.591,45.164 37.117,44.532 38.243,43.407L35.414,40.578ZM34,41.164L14,41.164L14,45.164L34,45.164L34,41.164ZM14,41.164C13.47,41.164 12.961,40.953 12.586,40.578L9.757,43.407C10.883,44.532 12.409,45.164 14,45.164L14,41.164ZM12.586,40.578C12.211,40.203 12,39.694 12,39.164L8,39.164C8,40.755 8.632,42.281 9.757,43.407L12.586,40.578ZM12,39.164L12,11.164L8,11.164L8,39.164L12,39.164ZM10,13.164L38,13.164L38,9.164L10,9.164L10,13.164ZM18,11.164L18,7.164L14,7.164L14,11.164L18,11.164ZM18,7.164C18,6.634 18.211,6.125 18.586,5.75L15.757,2.921C14.632,4.047 14,5.573 14,7.164L18,7.164ZM18.586,5.75C18.961,5.375 19.47,5.164 20,5.164L20,1.164C18.409,1.164 16.883,1.796 15.757,2.921L18.586,5.75ZM20,5.164L28,5.164L28,1.164L20,1.164L20,5.164ZM28,5.164C28.53,5.164 29.039,5.375 29.414,5.75L32.243,2.921C31.117,1.796 29.591,1.164 28,1.164L28,5.164ZM29.414,5.75C29.789,6.125 30,6.634 30,7.164L34,7.164C34,5.573 33.368,4.047 32.243,2.921L29.414,5.75ZM30,7.164L30,11.164L34,11.164L34,7.164L30,7.164Z" fill="#98A9BC"/>
</svg>
