<svg width="48" height="48" viewBox="0 0 48 48" fill="none" xmlns="http://www.w3.org/2000/svg" xmlns:xlink="http://www.w3.org/1999/xlink">
<path d="M6,23.842L4.214,22.942C3.929,23.508 3.929,24.176 4.214,24.741L6,23.842ZM42,23.842L43.786,24.741C44.071,24.176 44.071,23.508 43.786,22.942L42,23.842ZM6,23.842C7.786,24.741 7.786,24.742 7.786,24.742C7.786,24.743 7.786,24.743 7.785,24.743C7.785,24.744 7.785,24.744 7.785,24.744C7.785,24.744 7.785,24.743 7.786,24.742C7.788,24.739 7.791,24.733 7.795,24.724C7.804,24.706 7.82,24.677 7.841,24.636C7.884,24.556 7.952,24.431 8.044,24.269C8.227,23.945 8.507,23.472 8.878,22.901C9.624,21.755 10.727,20.231 12.159,18.715C15.057,15.645 19.066,12.842 24,12.842L24,8.842C17.479,8.842 12.488,12.539 9.25,15.969C7.613,17.703 6.365,19.429 5.525,20.72C5.104,21.368 4.782,21.911 4.563,22.298C4.454,22.491 4.37,22.646 4.311,22.755C4.282,22.81 4.259,22.854 4.243,22.885C4.235,22.901 4.228,22.914 4.223,22.923C4.221,22.928 4.219,22.932 4.217,22.935C4.217,22.937 4.216,22.938 4.215,22.939C4.215,22.94 4.214,22.941 4.214,22.941C4.214,22.942 4.214,22.942 6,23.842ZM24,12.842C28.934,12.842 32.943,15.645 35.841,18.715C37.273,20.231 38.376,21.755 39.122,22.901C39.493,23.472 39.773,23.945 39.956,24.269C40.048,24.431 40.116,24.556 40.159,24.636C40.18,24.677 40.196,24.706 40.205,24.724C40.209,24.733 40.212,24.739 40.214,24.742C40.215,24.743 40.215,24.744 40.215,24.744C40.215,24.744 40.215,24.744 40.215,24.743C40.214,24.743 40.214,24.743 40.214,24.742C40.214,24.742 40.214,24.741 42,23.842C43.786,22.942 43.786,22.942 43.786,22.941C43.786,22.941 43.785,22.94 43.785,22.939C43.784,22.938 43.783,22.937 43.783,22.935C43.781,22.932 43.779,22.928 43.777,22.923C43.772,22.914 43.765,22.901 43.757,22.885C43.741,22.854 43.718,22.81 43.689,22.755C43.63,22.646 43.546,22.491 43.437,22.298C43.218,21.911 42.896,21.368 42.475,20.72C41.635,19.429 40.387,17.703 38.75,15.969C35.512,12.539 30.521,8.842 24,8.842L24,12.842ZM42,23.842C40.214,22.942 40.214,22.942 40.214,22.941C40.214,22.941 40.214,22.941 40.215,22.941C40.215,22.94 40.215,22.94 40.215,22.94C40.215,22.94 40.215,22.941 40.214,22.942C40.212,22.945 40.209,22.951 40.205,22.96C40.196,22.977 40.18,23.007 40.159,23.047C40.116,23.128 40.048,23.253 39.956,23.415C39.773,23.739 39.493,24.212 39.122,24.783C38.376,25.929 37.273,27.453 35.841,28.969C32.943,32.039 28.934,34.842 24,34.842L24,38.842C30.521,38.842 35.512,35.145 38.75,31.715C40.387,29.981 41.635,28.255 42.475,26.964C42.896,26.316 43.218,25.773 43.437,25.386C43.546,25.193 43.63,25.038 43.689,24.928C43.718,24.874 43.741,24.83 43.757,24.799C43.765,24.783 43.772,24.77 43.777,24.761C43.779,24.756 43.781,24.752 43.783,24.749C43.783,24.747 43.784,24.746 43.785,24.744C43.785,24.744 43.786,24.743 43.786,24.743C43.786,24.742 43.786,24.741 42,23.842ZM24,34.842C19.066,34.842 15.057,32.039 12.159,28.969C10.727,27.453 9.624,25.929 8.878,24.783C8.507,24.212 8.227,23.739 8.044,23.415C7.952,23.253 7.884,23.128 7.841,23.047C7.82,23.007 7.804,22.977 7.795,22.96C7.791,22.951 7.788,22.945 7.786,22.942C7.785,22.941 7.785,22.94 7.785,22.94C7.785,22.94 7.785,22.94 7.785,22.941C7.786,22.941 7.786,22.941 7.786,22.941C7.786,22.942 7.786,22.942 6,23.842C4.214,24.741 4.214,24.742 4.214,24.743C4.214,24.743 4.215,24.744 4.215,24.744C4.216,24.746 4.217,24.747 4.217,24.749C4.219,24.752 4.221,24.756 4.223,24.761C4.228,24.77 4.235,24.783 4.243,24.799C4.259,24.83 4.282,24.874 4.311,24.928C4.37,25.038 4.454,25.193 4.563,25.386C4.782,25.773 5.104,26.316 5.525,26.964C6.365,28.255 7.613,29.981 9.25,31.715C12.488,35.145 17.479,38.842 24,38.842L24,34.842Z" fill="#98A9BC"/>
<path d="M26,23.842C26,25.938 24.711,26.842 24,26.842L24,30.842C27.707,30.842 30,27.268 30,23.842L26,23.842ZM24,26.842C23.289,26.842 22,25.938 22,23.842L18,23.842C18,27.268 20.293,30.842 24,30.842L24,26.842ZM22,23.842C22,21.746 23.289,20.842 24,20.842L24,16.842C20.293,16.842 18,20.415 18,23.842L22,23.842ZM24,20.842C24.711,20.842 26,21.746 26,23.842L30,23.842C30,20.415 27.707,16.842 24,16.842L24,20.842Z" fill="#98A9BC"/>
</svg>
