<svg width="48" height="48" viewBox="0 0 48 48" fill="none" xmlns="http://www.w3.org/2000/svg" xmlns:xlink="http://www.w3.org/1999/xlink">
<path d="M41.232,24C41.232,33.935 33.151,42 23.169,42L23.169,46C35.348,46 45.232,36.156 45.232,24L41.232,24ZM23.169,42C13.188,42 5.106,33.935 5.106,24L1.106,24C1.106,36.156 10.99,46 23.169,46L23.169,42ZM5.106,24C5.106,14.065 13.188,6 23.169,6L23.169,2C10.99,2 1.106,11.844 1.106,24L5.106,24ZM23.169,6C33.151,6 41.232,14.065 41.232,24L45.232,24C45.232,11.844 35.348,2 23.169,2L23.169,6Z" fill="#FF3D00"/>
<path d="M30.6,19.416C31.382,18.637 31.384,17.37 30.604,16.588C29.825,15.806 28.558,15.804 27.776,16.584L30.6,19.416ZM15.738,28.584C14.956,29.363 14.954,30.63 15.734,31.412C16.514,32.194 17.78,32.196 18.562,31.416L15.738,28.584ZM27.776,16.584L15.738,28.584L18.562,31.416L30.6,19.416L27.776,16.584Z" fill="#FF3D00"/>
<path d="M18.562,16.584C17.78,15.804 16.514,15.806 15.734,16.588C14.954,17.37 14.956,18.637 15.738,19.416L18.562,16.584ZM27.776,31.416C28.558,32.196 29.825,32.194 30.604,31.412C31.384,30.63 31.382,29.363 30.6,28.584L27.776,31.416ZM15.738,19.416L27.776,31.416L30.6,28.584L18.562,16.584L15.738,19.416Z" fill="#FF3D00"/>
</svg>
