<svg width="32" height="32" viewBox="0 0 32 32" fill="none" xmlns="http://www.w3.org/2000/svg" xmlns:xlink="http://www.w3.org/1999/xlink">
<path d="M28.85,20C28.85,19.227 28.223,18.6 27.45,18.6C26.677,18.6 26.05,19.227 26.05,20L28.85,20ZM3.45,25.333L2.05,25.333L3.45,25.333ZM4.85,20C4.85,19.227 4.223,18.6 3.45,18.6C2.677,18.6 2.05,19.227 2.05,20L4.85,20ZM26.05,20L26.05,25.333L28.85,25.333L28.85,20L26.05,20ZM26.05,25.333C26.05,25.669 25.917,25.991 25.679,26.229L27.659,28.209C28.422,27.446 28.85,26.412 28.85,25.333L26.05,25.333ZM25.679,26.229C25.442,26.467 25.119,26.6 24.784,26.6L24.784,29.4C25.862,29.4 26.896,28.972 27.659,28.209L25.679,26.229ZM24.784,26.6L6.117,26.6L6.117,29.4L24.784,29.4L24.784,26.6ZM6.117,26.6C5.781,26.6 5.459,26.467 5.221,26.229L3.241,28.209C4.004,28.972 5.038,29.4 6.117,29.4L6.117,26.6ZM5.221,26.229C4.984,25.991 4.85,25.669 4.85,25.333L2.05,25.333C2.05,26.412 2.479,27.446 3.241,28.209L5.221,26.229ZM4.85,25.333L4.85,20L2.05,20L2.05,25.333L4.85,25.333Z" fill="#778CA2"/>
<path d="M9.773,12.343C9.226,11.796 8.34,11.796 7.793,12.343C7.247,12.89 7.247,13.776 7.793,14.323L9.773,12.343ZM15.45,20L14.46,20.99C14.722,21.252 15.079,21.4 15.45,21.4C15.821,21.4 16.177,21.252 16.44,20.99L15.45,20ZM23.106,14.323C23.653,13.776 23.653,12.89 23.106,12.343C22.56,11.796 21.673,11.796 21.127,12.343L23.106,14.323ZM7.793,14.323L14.46,20.99L16.44,19.01L9.773,12.343L7.793,14.323ZM16.44,20.99L23.106,14.323L21.127,12.343L14.46,19.01L16.44,20.99Z" fill="#778CA2"/>
<line x1="14.05" y1="4" x2="14.05" y2="20" stroke="#778CA2" stroke-width="1.4" stroke-miterlimit="3.999327" stroke-linecap="round" stroke-linejoin="round"/>
</svg>
