<svg width="48" height="48" viewBox="0 0 48 48" fill="none" xmlns="http://www.w3.org/2000/svg" xmlns:xlink="http://www.w3.org/1999/xlink">
<path d="M27.45,24C27.45,26.209 25.659,28 23.45,28L23.45,32C27.868,32 31.45,28.418 31.45,24L27.45,24ZM23.45,28C21.241,28 19.45,26.209 19.45,24L15.45,24C15.45,28.418 19.032,32 23.45,32L23.45,28ZM19.45,24C19.45,21.791 21.241,20 23.45,20L23.45,16C19.032,16 15.45,19.582 15.45,24L19.45,24ZM23.45,20C25.659,20 27.45,21.791 27.45,24L31.45,24C31.45,19.582 27.868,16 23.45,16L23.45,20Z" fill="#4D7CFE"/>
<path d="M38.91,33.64L37.48,35.039L37.496,35.054L38.91,33.64ZM39.03,33.76L37.616,35.174L37.617,35.175L39.03,33.76ZM39.03,39.42L37.617,38.005L37.615,38.007L39.03,39.42ZM33.37,39.42L34.785,38.007L34.784,38.006L33.37,39.42ZM33.25,39.3L34.664,37.886L34.649,37.87L33.25,39.3ZM29.61,38.64L30.398,40.478L30.418,40.47L29.61,38.64ZM27.61,41.66L25.61,41.652L25.61,41.66L27.61,41.66ZM19.61,41.82L21.61,41.82C21.61,41.804 21.61,41.789 21.61,41.773L19.61,41.82ZM17.45,38.8L16.643,40.63C16.681,40.647 16.72,40.663 16.76,40.677L17.45,38.8ZM13.81,39.46L12.412,38.03L12.396,38.046L13.81,39.46ZM13.69,39.58L12.276,38.166L12.275,38.167L13.69,39.58ZM8.03,39.58L9.445,38.167L9.444,38.165L8.03,39.58ZM6.857,36.75L8.857,36.75L6.857,36.75ZM8.03,33.92L9.444,35.335L9.444,35.334L8.03,33.92ZM8.15,33.8L9.564,35.214L9.58,35.199L8.15,33.8ZM8.81,30.16L6.972,30.948L6.98,30.968L8.81,30.16ZM5.79,28.16L5.798,26.16L5.79,26.16L5.79,28.16ZM1.45,24.16L-0.55,24.16L1.45,24.16ZM5.45,20.16L5.45,22.16L5.45,20.16ZM5.63,20.16L5.63,22.16C5.646,22.16 5.661,22.16 5.677,22.159L5.63,20.16ZM8.65,18L6.82,17.192C6.803,17.231 6.788,17.27 6.773,17.31L8.65,18ZM7.99,14.36L9.42,12.961L9.404,12.946L7.99,14.36ZM7.87,14.24L9.284,12.826L9.284,12.825L7.87,14.24ZM7.87,8.58L9.284,9.995L9.285,9.993L7.87,8.58ZM13.53,8.58L12.115,9.993L12.116,9.994L13.53,8.58ZM13.65,8.7L12.236,10.114L12.252,10.13L13.65,8.7ZM17.29,9.36L17.29,7.36C17.012,7.36 16.737,7.418 16.483,7.53L17.29,9.36ZM17.45,9.36L17.45,11.36C17.721,11.36 17.989,11.305 18.238,11.198L17.45,9.36ZM19.45,6.34L21.45,6.348L21.45,6.34L19.45,6.34ZM23.45,2L23.45,0L23.45,2ZM27.45,6.18L25.45,6.18L25.45,6.188L27.45,6.18ZM29.45,9.2L30.258,7.37L30.238,7.362L29.45,9.2ZM33.09,8.54L34.489,9.97L34.504,9.954L33.09,8.54ZM33.21,8.42L34.624,9.834L34.625,9.833L33.21,8.42ZM36.04,7.247L36.04,9.247L36.04,7.247ZM38.87,8.42L37.455,9.833L37.457,9.835L38.87,8.42ZM38.87,14.08L37.457,12.665L37.456,12.666L38.87,14.08ZM38.75,14.2L37.336,12.786L37.32,12.801L38.75,14.2ZM38.09,17.84L40.09,17.84C40.09,17.562 40.032,17.287 39.92,17.032L38.09,17.84ZM38.09,18L36.09,18C36.09,18.271 36.145,18.539 36.252,18.788L38.09,18ZM41.11,20L41.102,22L41.11,22L41.11,20ZM41.27,28L41.27,26L41.262,26L41.27,28ZM36.42,29.192C35.993,30.161 35.865,31.236 36.054,32.278L39.99,31.564C39.944,31.309 39.975,31.045 40.08,30.808L36.42,29.192ZM36.054,32.278C36.243,33.32 36.74,34.281 37.48,35.039L40.34,32.241C40.158,32.056 40.036,31.82 39.99,31.564L36.054,32.278ZM37.496,35.054L37.616,35.174L40.444,32.346L40.324,32.226L37.496,35.054ZM37.617,35.175C37.803,35.361 37.95,35.581 38.051,35.824L41.746,34.292C41.444,33.564 41.001,32.902 40.444,32.345L37.617,35.175ZM38.051,35.824C38.152,36.067 38.203,36.327 38.203,36.59L42.203,36.59C42.203,35.802 42.048,35.021 41.746,34.292L38.051,35.824ZM38.203,36.59C38.203,36.853 38.152,37.113 38.051,37.356L41.746,38.888C42.048,38.159 42.203,37.378 42.203,36.59L38.203,36.59ZM38.051,37.356C37.95,37.599 37.803,37.819 37.617,38.005L40.444,40.835C41.001,40.278 41.444,39.616 41.746,38.888L38.051,37.356ZM37.615,38.007C37.429,38.193 37.209,38.34 36.966,38.441L38.498,42.136C39.226,41.834 39.888,41.391 40.445,40.833L37.615,38.007ZM36.966,38.441C36.723,38.541 36.463,38.593 36.2,38.593L36.2,42.593C36.989,42.593 37.769,42.438 38.498,42.136L36.966,38.441ZM36.2,38.593C35.937,38.593 35.677,38.541 35.434,38.441L33.903,42.136C34.631,42.438 35.412,42.593 36.2,42.593L36.2,38.593ZM35.434,38.441C35.192,38.34 34.971,38.193 34.785,38.007L31.955,40.833C32.512,41.391 33.174,41.834 33.903,42.136L35.434,38.441ZM34.784,38.006L34.664,37.886L31.836,40.714L31.956,40.834L34.784,38.006ZM34.649,37.87C33.892,37.13 32.93,36.633 31.888,36.444L31.175,40.38C31.43,40.426 31.666,40.548 31.852,40.73L34.649,37.87ZM31.888,36.444C30.846,36.255 29.771,36.383 28.803,36.81L30.418,40.47C30.655,40.365 30.919,40.334 31.175,40.38L31.888,36.444ZM28.822,36.802C27.872,37.209 27.062,37.885 26.491,38.747L29.826,40.955C29.966,40.744 30.165,40.578 30.398,40.478L28.822,36.802ZM26.491,38.747C25.921,39.609 25.614,40.618 25.61,41.652L29.61,41.668C29.611,41.414 29.686,41.167 29.826,40.955L26.491,38.747ZM25.61,41.66L25.61,42L29.61,42L29.61,41.66L25.61,41.66ZM25.61,42C25.61,42.53 25.399,43.039 25.024,43.414L27.853,46.243C28.978,45.117 29.61,43.591 29.61,42L25.61,42ZM25.024,43.414C24.649,43.789 24.141,44 23.61,44L23.61,48C25.202,48 26.728,47.368 27.853,46.243L25.024,43.414ZM23.61,44C23.08,44 22.571,43.789 22.196,43.414L19.368,46.243C20.493,47.368 22.019,48 23.61,48L23.61,44ZM22.196,43.414C21.821,43.039 21.61,42.53 21.61,42L17.61,42C17.61,43.591 18.242,45.117 19.368,46.243L22.196,43.414ZM21.61,42L21.61,41.82L17.61,41.82L17.61,42L21.61,42ZM21.61,41.773C21.585,40.71 21.241,39.679 20.622,38.814L17.368,41.141C17.52,41.353 17.605,41.606 17.611,41.867L21.61,41.773ZM20.622,38.814C20.003,37.949 19.139,37.29 18.141,36.923L16.76,40.677C17.005,40.767 17.217,40.929 17.368,41.141L20.622,38.814ZM18.258,36.97C17.289,36.543 16.214,36.415 15.172,36.604L15.886,40.54C16.141,40.494 16.405,40.525 16.643,40.63L18.258,36.97ZM15.172,36.604C14.13,36.793 13.169,37.29 12.412,38.03L15.209,40.89C15.394,40.708 15.63,40.586 15.886,40.54L15.172,36.604ZM12.396,38.046L12.276,38.166L15.104,40.994L15.224,40.874L12.396,38.046ZM12.275,38.167C12.089,38.353 11.869,38.5 11.626,38.601L13.158,42.296C13.886,41.994 14.548,41.551 15.105,40.993L12.275,38.167ZM11.626,38.601C11.383,38.701 11.123,38.753 10.86,38.753L10.86,42.753C11.649,42.753 12.429,42.598 13.158,42.296L11.626,38.601ZM10.86,38.753C10.597,38.753 10.337,38.701 10.094,38.601L8.563,42.296C9.291,42.598 10.072,42.753 10.86,42.753L10.86,38.753ZM10.094,38.601C9.852,38.5 9.631,38.353 9.445,38.167L6.615,40.993C7.172,41.551 7.834,41.994 8.563,42.296L10.094,38.601ZM9.444,38.165C9.258,37.979 9.11,37.759 9.009,37.516L5.314,39.048C5.616,39.776 6.059,40.438 6.617,40.995L9.444,38.165ZM9.009,37.516C8.909,37.273 8.857,37.013 8.857,36.75L4.857,36.75C4.857,37.538 5.012,38.319 5.314,39.048L9.009,37.516ZM8.857,36.75C8.857,36.487 8.909,36.227 9.009,35.984L5.314,34.452C5.012,35.181 4.857,35.962 4.857,36.75L8.857,36.75ZM9.009,35.984C9.11,35.741 9.258,35.521 9.444,35.335L6.617,32.505C6.059,33.062 5.616,33.724 5.314,34.452L9.009,35.984ZM9.444,35.334L9.564,35.214L6.736,32.386L6.616,32.506L9.444,35.334ZM9.58,35.199C10.32,34.441 10.817,33.48 11.006,32.438L7.07,31.724C7.024,31.98 6.902,32.216 6.72,32.401L9.58,35.199ZM11.006,32.438C11.195,31.396 11.067,30.321 10.64,29.352L6.98,30.968C7.085,31.205 7.117,31.469 7.07,31.724L11.006,32.438ZM10.648,29.372C10.241,28.422 9.565,27.612 8.703,27.041L6.495,30.376C6.706,30.516 6.872,30.715 6.972,30.948L10.648,29.372ZM8.703,27.041C7.842,26.47 6.832,26.164 5.798,26.16L5.782,30.16C6.036,30.161 6.283,30.236 6.495,30.376L8.703,27.041ZM5.79,26.16L5.45,26.16L5.45,30.16L5.79,30.16L5.79,26.16ZM5.45,26.16C4.92,26.16 4.411,25.949 4.036,25.574L1.208,28.403C2.333,29.528 3.859,30.16 5.45,30.16L5.45,26.16ZM4.036,25.574C3.661,25.199 3.45,24.69 3.45,24.16L-0.55,24.16C-0.55,25.751 0.082,27.277 1.208,28.403L4.036,25.574ZM3.45,24.16C3.45,23.63 3.661,23.121 4.036,22.746L1.208,19.917C0.082,21.043 -0.55,22.569 -0.55,24.16L3.45,24.16ZM4.036,22.746C4.411,22.371 4.92,22.16 5.45,22.16L5.45,18.16C3.859,18.16 2.333,18.792 1.208,19.917L4.036,22.746ZM5.45,22.16L5.63,22.16L5.63,18.16L5.45,18.16L5.45,22.16ZM5.677,22.159C6.74,22.135 7.771,21.79 8.636,21.172L6.309,17.918C6.097,18.07 5.844,18.154 5.583,18.161L5.677,22.159ZM8.636,21.172C9.501,20.553 10.16,19.688 10.527,18.69L6.773,17.31C6.683,17.554 6.521,17.767 6.309,17.918L8.636,21.172ZM10.48,18.808C10.907,17.839 11.035,16.764 10.846,15.722L6.91,16.436C6.957,16.691 6.925,16.955 6.82,17.192L10.48,18.808ZM10.846,15.722C10.657,14.68 10.16,13.718 9.42,12.961L6.56,15.759C6.742,15.944 6.864,16.18 6.91,16.436L10.846,15.722ZM9.404,12.946L9.284,12.826L6.456,15.654L6.576,15.774L9.404,12.946ZM9.284,12.825C9.098,12.639 8.95,12.419 8.849,12.176L5.154,13.708C5.456,14.436 5.899,15.098 6.457,15.655L9.284,12.825ZM8.849,12.176C8.749,11.933 8.697,11.673 8.697,11.41L4.697,11.41C4.697,12.198 4.852,12.979 5.154,13.708L8.849,12.176ZM8.697,11.41C8.697,11.147 8.749,10.887 8.849,10.644L5.154,9.112C4.852,9.841 4.697,10.622 4.697,11.41L8.697,11.41ZM8.849,10.644C8.95,10.401 9.098,10.181 9.284,9.995L6.457,7.165C5.899,7.722 5.456,8.384 5.154,9.112L8.849,10.644ZM9.285,9.993C9.471,9.807 9.692,9.66 9.934,9.559L8.403,5.864C7.674,6.166 7.012,6.609 6.455,7.167L9.285,9.993ZM9.934,9.559C10.177,9.459 10.437,9.407 10.7,9.407L10.7,5.407C9.912,5.407 9.131,5.562 8.403,5.864L9.934,9.559ZM10.7,9.407C10.963,9.407 11.223,9.459 11.466,9.559L12.998,5.864C12.269,5.562 11.489,5.407 10.7,5.407L10.7,9.407ZM11.466,9.559C11.709,9.66 11.929,9.807 12.115,9.993L14.945,7.167C14.388,6.609 13.726,6.166 12.998,5.864L11.466,9.559ZM12.116,9.994L12.236,10.114L15.064,7.286L14.944,7.166L12.116,9.994ZM12.252,10.13C13.009,10.87 13.97,11.367 15.012,11.556L15.726,7.62C15.47,7.574 15.234,7.452 15.049,7.27L12.252,10.13ZM15.012,11.556C16.054,11.745 17.129,11.617 18.098,11.19L16.483,7.53C16.245,7.635 15.981,7.666 15.726,7.62L15.012,11.556ZM17.29,11.36L17.45,11.36L17.45,7.36L17.29,7.36L17.29,11.36ZM18.238,11.198C19.188,10.791 19.998,10.115 20.569,9.253L17.234,7.045C17.094,7.256 16.895,7.422 16.662,7.522L18.238,11.198ZM20.569,9.253C21.14,8.391 21.446,7.382 21.45,6.348L17.45,6.332C17.449,6.586 17.374,6.833 17.234,7.045L20.569,9.253ZM21.45,6.34L21.45,6L17.45,6L17.45,6.34L21.45,6.34ZM21.45,6C21.45,5.47 21.661,4.961 22.036,4.586L19.208,1.757C18.082,2.883 17.45,4.409 17.45,6L21.45,6ZM22.036,4.586C22.411,4.211 22.92,4 23.45,4L23.45,0C21.859,0 20.333,0.632 19.208,1.757L22.036,4.586ZM23.45,4C23.981,4 24.489,4.211 24.864,4.586L27.693,1.757C26.568,0.632 25.041,0 23.45,0L23.45,4ZM24.864,4.586C25.239,4.961 25.45,5.47 25.45,6L29.45,6C29.45,4.409 28.818,2.883 27.693,1.757L24.864,4.586ZM25.45,6L25.45,6.18L29.45,6.18L29.45,6L25.45,6ZM25.45,6.188C25.454,7.222 25.761,8.231 26.331,9.093L29.666,6.885C29.526,6.673 29.451,6.426 29.45,6.172L25.45,6.188ZM26.331,9.093C26.902,9.955 27.712,10.631 28.662,11.038L30.238,7.362C30.005,7.262 29.806,7.096 29.666,6.885L26.331,9.093ZM28.643,11.03C29.611,11.457 30.686,11.585 31.728,11.396L31.015,7.46C30.759,7.506 30.495,7.475 30.258,7.37L28.643,11.03ZM31.728,11.396C32.77,11.207 33.732,10.71 34.489,9.97L31.692,7.11C31.506,7.292 31.27,7.414 31.015,7.46L31.728,11.396ZM34.504,9.954L34.624,9.834L31.796,7.006L31.676,7.126L34.504,9.954ZM34.625,9.833C34.811,9.647 35.032,9.5 35.274,9.399L33.743,5.704C33.014,6.006 32.352,6.449 31.795,7.007L34.625,9.833ZM35.274,9.399C35.517,9.299 35.777,9.247 36.04,9.247L36.04,5.247C35.252,5.247 34.471,5.402 33.743,5.704L35.274,9.399ZM36.04,9.247C36.303,9.247 36.563,9.299 36.806,9.399L38.338,5.704C37.609,5.402 36.829,5.247 36.04,5.247L36.04,9.247ZM36.806,9.399C37.049,9.5 37.269,9.647 37.455,9.833L40.285,7.007C39.728,6.449 39.066,6.006 38.338,5.704L36.806,9.399ZM37.457,9.835C37.643,10.021 37.79,10.241 37.891,10.484L41.586,8.952C41.284,8.224 40.841,7.562 40.284,7.005L37.457,9.835ZM37.891,10.484C37.992,10.727 38.043,10.987 38.043,11.25L42.043,11.25C42.043,10.461 41.888,9.681 41.586,8.952L37.891,10.484ZM38.043,11.25C38.043,11.513 37.992,11.773 37.891,12.016L41.586,13.548C41.888,12.819 42.043,12.039 42.043,11.25L38.043,11.25ZM37.891,12.016C37.79,12.259 37.643,12.479 37.457,12.665L40.284,15.495C40.841,14.938 41.284,14.276 41.586,13.548L37.891,12.016ZM37.456,12.666L37.336,12.786L40.164,15.614L40.284,15.494L37.456,12.666ZM37.32,12.801C36.58,13.559 36.083,14.52 35.894,15.562L39.83,16.276C39.876,16.02 39.998,15.784 40.18,15.599L37.32,12.801ZM35.894,15.562C35.705,16.604 35.833,17.679 36.26,18.648L39.92,17.032C39.815,16.795 39.784,16.531 39.83,16.276L35.894,15.562ZM36.09,17.84L36.09,18L40.09,18L40.09,17.84L36.09,17.84ZM36.252,18.788C36.659,19.738 37.335,20.548 38.197,21.119L40.406,17.784C40.194,17.644 40.028,17.445 39.928,17.212L36.252,18.788ZM38.197,21.119C39.059,21.69 40.069,21.996 41.102,22L41.118,18C40.865,17.999 40.617,17.924 40.406,17.784L38.197,21.119ZM41.11,22L41.45,22L41.45,18L41.11,18L41.11,22ZM41.45,22C41.981,22 42.489,22.211 42.864,22.586L45.693,19.757C44.568,18.632 43.042,18 41.45,18L41.45,22ZM42.864,22.586C43.239,22.961 43.45,23.47 43.45,24L47.45,24C47.45,22.409 46.818,20.883 45.693,19.757L42.864,22.586ZM43.45,24C43.45,24.53 43.239,25.039 42.864,25.414L45.693,28.243C46.818,27.117 47.45,25.591 47.45,24L43.45,24ZM42.864,25.414C42.489,25.789 41.981,26 41.45,26L41.45,30C43.042,30 44.568,29.368 45.693,28.243L42.864,25.414ZM41.45,26L41.27,26L41.27,30L41.45,30L41.45,26ZM41.262,26C40.229,26.004 39.219,26.31 38.357,26.881L40.566,30.216C40.777,30.076 41.025,30.001 41.278,30L41.262,26ZM38.357,26.881C37.495,27.452 36.819,28.262 36.412,29.212L40.088,30.788C40.188,30.555 40.354,30.356 40.566,30.216L38.357,26.881Z" fill="#4D7CFE"/>
</svg>
