<svg width="32" height="32" viewBox="0 0 32 32" fill="none" xmlns="http://www.w3.org/2000/svg" xmlns:xlink="http://www.w3.org/1999/xlink">
<path d="M2.118,4C2.118,3.263 2.715,2.667 3.451,2.667L12.785,2.667C13.521,2.667 14.118,3.263 14.118,4L14.118,13.333C14.118,14.07 13.521,14.667 12.785,14.667L3.451,14.667C2.715,14.667 2.118,14.07 2.118,13.333L2.118,4ZM4.785,5.333L4.785,12L11.452,12L11.452,5.333L4.785,5.333Z" clip-rule="evenodd" fill-rule="evenodd" fill="#98A9BC"/>
<path d="M16.784,4C16.784,3.263 17.381,2.667 18.118,2.667L27.451,2.667C28.187,2.667 28.784,3.263 28.784,4L28.784,13.333C28.784,14.07 28.187,14.667 27.451,14.667L18.118,14.667C17.381,14.667 16.784,14.07 16.784,13.333L16.784,4ZM19.451,5.333L19.451,12L26.118,12L26.118,5.333L19.451,5.333Z" clip-rule="evenodd" fill-rule="evenodd" fill="#98A9BC"/>
<path d="M16.784,18.667C16.784,17.93 17.381,17.333 18.118,17.333L27.451,17.333C28.187,17.333 28.784,17.93 28.784,18.667L28.784,28C28.784,28.737 28.187,29.333 27.451,29.333L18.118,29.333C17.381,29.333 16.784,28.737 16.784,28L16.784,18.667ZM19.451,20L19.451,26.667L26.118,26.667L26.118,20L19.451,20Z" clip-rule="evenodd" fill-rule="evenodd" fill="#98A9BC"/>
<path d="M2.118,18.667C2.118,17.93 2.715,17.333 3.451,17.333L12.785,17.333C13.521,17.333 14.118,17.93 14.118,18.667L14.118,28C14.118,28.737 13.521,29.333 12.785,29.333L3.451,29.333C2.715,29.333 2.118,28.737 2.118,28L2.118,18.667ZM4.785,20L4.785,26.667L11.452,26.667L11.452,20L4.785,20Z" clip-rule="evenodd" fill-rule="evenodd" fill="#98A9BC"/>
</svg>
