<svg width="32" height="32" viewBox="0 0 32 32" fill="none" xmlns="http://www.w3.org/2000/svg" xmlns:xlink="http://www.w3.org/1999/xlink">
<path d="M16,4C9.372,4 4,9.372 4,16C4,22.627 9.372,28 16,28C22.627,28 28,22.627 28,16C28,9.372 22.627,4 16,4ZM1.333,16C1.333,7.899 7.899,1.333 16,1.333C24.1,1.333 30.666,7.899 30.666,16C30.666,24.1 24.1,30.666 16,30.666C7.899,30.666 1.333,24.1 1.333,16Z" clip-rule="evenodd" fill-rule="evenodd" fill="#98A9BC"/>
<path d="M16,9.333C16.737,9.333 17.334,9.93 17.334,10.666L17.334,21.333C17.334,22.069 16.737,22.666 16,22.666C15.264,22.666 14.667,22.069 14.667,21.333L14.667,10.666C14.667,9.93 15.264,9.333 16,9.333Z" clip-rule="evenodd" fill-rule="evenodd" fill="#98A9BC"/>
<path d="M9.333,16C9.333,15.264 9.93,14.667 10.666,14.667L21.333,14.667C22.069,14.667 22.666,15.264 22.666,16C22.666,16.737 22.069,17.334 21.333,17.334L10.666,17.334C9.93,17.334 9.333,16.737 9.333,16Z" clip-rule="evenodd" fill-rule="evenodd" fill="#98A9BC"/>
</svg>
