<svg width="32" height="32" viewBox="0 0 32 32" fill="none" xmlns="http://www.w3.org/2000/svg" xmlns:xlink="http://www.w3.org/1999/xlink">
<path d="M15.935,4C9.335,4 3.985,9.372 3.985,16C3.985,22.627 9.335,28 15.935,28C22.535,28 27.885,22.627 27.885,16C27.885,9.372 22.535,4 15.935,4ZM1.329,16C1.329,7.899 7.868,1.333 15.935,1.333C24.001,1.333 30.54,7.899 30.54,16C30.54,24.1 24.001,30.666 15.935,30.666C7.868,30.666 1.329,24.1 1.329,16Z" clip-rule="evenodd" fill-rule="evenodd" fill="#98A9BC"/>
<path d="M15.934,14.667C16.668,14.667 17.262,15.264 17.262,16L17.262,21.334C17.262,22.07 16.668,22.667 15.934,22.667C15.201,22.667 14.606,22.07 14.606,21.334L14.606,16C14.606,15.264 15.201,14.667 15.934,14.667Z" clip-rule="evenodd" fill-rule="evenodd" fill="#98A9BC"/>
<path d="M14.606,10.666C14.606,9.93 15.201,9.333 15.934,9.333L15.948,9.333C16.681,9.333 17.275,9.93 17.275,10.666C17.275,11.403 16.681,12 15.948,12L15.934,12C15.201,12 14.606,11.403 14.606,10.666Z" clip-rule="evenodd" fill-rule="evenodd" fill="#98A9BC"/>
</svg>
