<svg width="32" height="32" viewBox="0 0 32 32" fill="none" xmlns="http://www.w3.org/2000/svg" xmlns:xlink="http://www.w3.org/1999/xlink">
<path d="M2.117,4C2.117,3.264 2.714,2.667 3.451,2.667L12.784,2.667C13.52,2.667 14.117,3.264 14.117,4L14.117,13.334C14.117,14.07 13.52,14.667 12.784,14.667L3.451,14.667C2.714,14.667 2.117,14.07 2.117,13.334L2.117,4ZM4.784,5.334L4.784,12L11.451,12L11.451,5.334L4.784,5.334Z" clip-rule="evenodd" fill-rule="evenodd" fill="#98A9BC"/>
<path d="M16.783,4C16.783,3.264 17.38,2.667 18.117,2.667L27.45,2.667C28.186,2.667 28.783,3.264 28.783,4L28.783,13.334C28.783,14.07 28.186,14.667 27.45,14.667L18.117,14.667C17.38,14.667 16.783,14.07 16.783,13.334L16.783,4ZM19.45,5.334L19.45,12L26.117,12L26.117,5.334L19.45,5.334Z" clip-rule="evenodd" fill-rule="evenodd" fill="#98A9BC"/>
<path d="M16.783,18.666C16.783,17.93 17.38,17.333 18.117,17.333L27.45,17.333C28.186,17.333 28.783,17.93 28.783,18.666L28.783,28C28.783,28.736 28.186,29.333 27.45,29.333L18.117,29.333C17.38,29.333 16.783,28.736 16.783,28L16.783,18.666ZM19.45,20L19.45,26.666L26.117,26.666L26.117,20L19.45,20Z" clip-rule="evenodd" fill-rule="evenodd" fill="#98A9BC"/>
<path d="M2.117,18.666C2.117,17.93 2.714,17.333 3.451,17.333L12.784,17.333C13.52,17.333 14.117,17.93 14.117,18.666L14.117,28C14.117,28.736 13.52,29.333 12.784,29.333L3.451,29.333C2.714,29.333 2.117,28.736 2.117,28L2.117,18.666ZM4.784,20L4.784,26.666L11.451,26.666L11.451,20L4.784,20Z" clip-rule="evenodd" fill-rule="evenodd" fill="#98A9BC"/>
</svg>
