<svg width="32" height="34" viewBox="0 0 32 34" fill="none" xmlns="http://www.w3.org/2000/svg" xmlns:xlink="http://www.w3.org/1999/xlink">
<path d="M15.428,4.178C8.801,4.178 3.428,9.55 3.428,16.178C3.428,22.805 8.801,28.178 15.428,28.178C22.056,28.178 27.428,22.805 27.428,16.178C27.428,9.55 22.056,4.178 15.428,4.178ZM0.762,16.178C0.762,8.078 7.328,1.511 15.428,1.511C23.529,1.511 30.095,8.078 30.095,16.178C30.095,24.278 23.529,30.845 15.428,30.845C7.328,30.845 0.762,24.278 0.762,16.178Z" clip-rule="evenodd" fill-rule="evenodd" fill="#FFFFFF"/>
<path d="M15.429,9.511C16.165,9.511 16.762,10.108 16.762,10.844L16.762,21.511C16.762,22.247 16.165,22.844 15.429,22.844C14.693,22.844 14.096,22.247 14.096,21.511L14.096,10.844C14.096,10.108 14.693,9.511 15.429,9.511Z" clip-rule="evenodd" fill-rule="evenodd" fill="#FFFFFF"/>
<path d="M8.762,16.178C8.762,15.441 9.359,14.844 10.095,14.844L20.762,14.844C21.498,14.844 22.095,15.441 22.095,16.178C22.095,16.914 21.498,17.511 20.762,17.511L10.095,17.511C9.359,17.511 8.762,16.914 8.762,16.178Z" clip-rule="evenodd" fill-rule="evenodd" fill="#FFFFFF"/>
</svg>
