<svg width="32" height="32" viewBox="0 0 32 32" fill="none" xmlns="http://www.w3.org/2000/svg" xmlns:xlink="http://www.w3.org/1999/xlink">
<path d="M15.934,4C9.334,4 3.984,9.373 3.984,16C3.984,22.627 9.334,28 15.934,28C22.534,28 27.884,22.627 27.884,16C27.884,9.373 22.534,4 15.934,4ZM1.328,16C1.328,7.9 7.867,1.333 15.934,1.333C24,1.333 30.539,7.9 30.539,16C30.539,24.1 24,30.667 15.934,30.667C7.867,30.667 1.328,24.1 1.328,16Z" clip-rule="evenodd" fill-rule="evenodd" fill="#F5FAF3"/>
<path d="M15.934,14.667C16.667,14.667 17.262,15.263 17.262,16L17.262,21.333C17.262,22.07 16.667,22.667 15.934,22.667C15.2,22.667 14.606,22.07 14.606,21.333L14.606,16C14.606,15.263 15.2,14.667 15.934,14.667Z" clip-rule="evenodd" fill-rule="evenodd" fill="#F5FAF3"/>
<path d="M14.606,10.667C14.606,9.93 15.2,9.333 15.934,9.333L15.947,9.333C16.68,9.333 17.275,9.93 17.275,10.667C17.275,11.403 16.68,12 15.947,12L15.934,12C15.2,12 14.606,11.403 14.606,10.667Z" clip-rule="evenodd" fill-rule="evenodd" fill="#F5FAF3"/>
</svg>
