<svg width="48" height="50" viewBox="0 0 48 50" fill="none" xmlns="http://www.w3.org/2000/svg" xmlns:xlink="http://www.w3.org/1999/xlink">
<path d="M6,24.414L4.214,23.515C3.929,24.08 3.929,24.748 4.214,25.313L6,24.414ZM42,24.414L43.786,25.313C44.071,24.748 44.071,24.08 43.786,23.515L42,24.414ZM6,24.414C7.786,25.313 7.786,25.314 7.786,25.315C7.786,25.315 7.786,25.315 7.785,25.315C7.785,25.316 7.785,25.316 7.785,25.316C7.785,25.316 7.785,25.315 7.786,25.314C7.788,25.311 7.791,25.305 7.795,25.296C7.804,25.279 7.82,25.249 7.841,25.209C7.884,25.128 7.952,25.003 8.044,24.841C8.227,24.517 8.507,24.044 8.878,23.473C9.624,22.327 10.727,20.803 12.159,19.287C15.057,16.217 19.066,13.414 24,13.414L24,9.414C17.479,9.414 12.488,13.111 9.25,16.541C7.613,18.275 6.365,20.001 5.525,21.292C5.104,21.94 4.782,22.483 4.563,22.87C4.454,23.063 4.37,23.218 4.311,23.328C4.282,23.382 4.259,23.426 4.243,23.457C4.235,23.473 4.228,23.486 4.223,23.495C4.221,23.5 4.219,23.504 4.217,23.507C4.217,23.509 4.216,23.51 4.215,23.512C4.215,23.512 4.214,23.513 4.214,23.513C4.214,23.514 4.214,23.515 6,24.414ZM24,13.414C28.934,13.414 32.943,16.217 35.841,19.287C37.273,20.803 38.376,22.327 39.122,23.473C39.493,24.044 39.773,24.517 39.956,24.841C40.048,25.003 40.116,25.128 40.159,25.209C40.18,25.249 40.196,25.279 40.205,25.296C40.209,25.305 40.212,25.311 40.214,25.314C40.215,25.315 40.215,25.316 40.215,25.316C40.215,25.316 40.215,25.316 40.215,25.315C40.214,25.315 40.214,25.315 40.214,25.315C40.214,25.314 40.214,25.313 42,24.414C43.786,23.515 43.786,23.514 43.786,23.513C43.786,23.513 43.785,23.512 43.785,23.512C43.784,23.51 43.783,23.509 43.783,23.507C43.781,23.504 43.779,23.5 43.777,23.495C43.772,23.486 43.765,23.473 43.757,23.457C43.741,23.426 43.718,23.382 43.689,23.328C43.63,23.218 43.546,23.063 43.437,22.87C43.218,22.483 42.896,21.94 42.475,21.292C41.635,20.001 40.387,18.275 38.75,16.541C35.512,13.111 30.521,9.414 24,9.414L24,13.414ZM42,24.414C40.214,23.515 40.214,23.514 40.214,23.514C40.214,23.513 40.214,23.513 40.215,23.513C40.215,23.512 40.215,23.512 40.215,23.512C40.215,23.512 40.215,23.513 40.214,23.514C40.212,23.517 40.209,23.523 40.205,23.532C40.196,23.55 40.18,23.579 40.159,23.62C40.116,23.7 40.048,23.825 39.956,23.987C39.773,24.311 39.493,24.784 39.122,25.355C38.376,26.501 37.273,28.025 35.841,29.541C32.943,32.611 28.934,35.414 24,35.414L24,39.414C30.521,39.414 35.512,35.717 38.75,32.287C40.387,30.553 41.635,28.827 42.475,27.536C42.896,26.888 43.218,26.345 43.437,25.958C43.546,25.765 43.63,25.61 43.689,25.501C43.718,25.446 43.741,25.402 43.757,25.371C43.765,25.355 43.772,25.342 43.777,25.333C43.779,25.328 43.781,25.324 43.783,25.321C43.783,25.319 43.784,25.318 43.785,25.317C43.785,25.316 43.786,25.315 43.786,25.315C43.786,25.314 43.786,25.313 42,24.414ZM24,35.414C19.066,35.414 15.057,32.611 12.159,29.541C10.727,28.025 9.624,26.501 8.878,25.355C8.507,24.784 8.227,24.311 8.044,23.987C7.952,23.825 7.884,23.7 7.841,23.62C7.82,23.579 7.804,23.55 7.795,23.532C7.791,23.523 7.788,23.517 7.786,23.514C7.785,23.513 7.785,23.512 7.785,23.512C7.785,23.512 7.785,23.512 7.785,23.513C7.786,23.513 7.786,23.513 7.786,23.514C7.786,23.514 7.786,23.515 6,24.414C4.214,25.313 4.214,25.314 4.214,25.315C4.214,25.315 4.215,25.316 4.215,25.317C4.216,25.318 4.217,25.319 4.217,25.321C4.219,25.324 4.221,25.328 4.223,25.333C4.228,25.342 4.235,25.355 4.243,25.371C4.259,25.402 4.282,25.446 4.311,25.501C4.37,25.61 4.454,25.765 4.563,25.958C4.782,26.345 5.104,26.888 5.525,27.536C6.365,28.827 7.613,30.553 9.25,32.287C12.488,35.717 17.479,39.414 24,39.414L24,35.414Z" fill="#98A9BC"/>
<path d="M26,24.414C26,26.51 24.711,27.414 24,27.414L24,31.414C27.707,31.414 30,27.841 30,24.414L26,24.414ZM24,27.414C23.289,27.414 22,26.51 22,24.414L18,24.414C18,27.841 20.293,31.414 24,31.414L24,27.414ZM22,24.414C22,22.318 23.289,21.414 24,21.414L24,17.414C20.293,17.414 18,20.988 18,24.414L22,24.414ZM24,21.414C24.711,21.414 26,22.318 26,24.414L30,24.414C30,20.988 27.707,17.414 24,17.414L24,21.414Z" fill="#98A9BC"/>
</svg>
