<svg width="48" height="48" viewBox="0 0 48 48" fill="none" xmlns="http://www.w3.org/2000/svg" xmlns:xlink="http://www.w3.org/1999/xlink">
<path d="M6,23.164L4.214,22.265C3.929,22.83 3.929,23.498 4.214,24.063L6,23.164ZM42,23.164L43.786,24.063C44.071,23.498 44.071,22.83 43.786,22.265L42,23.164ZM6,23.164C7.786,24.063 7.786,24.064 7.786,24.065C7.786,24.065 7.786,24.065 7.785,24.065C7.785,24.066 7.785,24.066 7.785,24.066C7.785,24.066 7.785,24.065 7.786,24.064C7.788,24.061 7.791,24.055 7.795,24.046C7.804,24.029 7.82,23.999 7.841,23.959C7.884,23.878 7.952,23.753 8.044,23.591C8.227,23.267 8.507,22.794 8.878,22.223C9.624,21.077 10.727,19.553 12.159,18.037C15.057,14.967 19.066,12.164 24,12.164L24,8.164C17.479,8.164 12.488,11.861 9.25,15.291C7.613,17.025 6.365,18.751 5.525,20.042C5.104,20.69 4.782,21.233 4.563,21.62C4.454,21.813 4.37,21.968 4.311,22.078C4.282,22.132 4.259,22.176 4.243,22.207C4.235,22.223 4.228,22.236 4.223,22.245C4.221,22.25 4.219,22.254 4.217,22.257C4.217,22.259 4.216,22.26 4.215,22.262C4.215,22.262 4.214,22.263 4.214,22.263C4.214,22.264 4.214,22.265 6,23.164ZM24,12.164C28.934,12.164 32.943,14.967 35.841,18.037C37.273,19.553 38.376,21.077 39.122,22.223C39.493,22.794 39.773,23.267 39.956,23.591C40.048,23.753 40.116,23.878 40.159,23.959C40.18,23.999 40.196,24.029 40.205,24.046C40.209,24.055 40.212,24.061 40.214,24.064C40.215,24.065 40.215,24.066 40.215,24.066C40.215,24.066 40.215,24.066 40.215,24.065C40.214,24.065 40.214,24.065 40.214,24.065C40.214,24.064 40.214,24.063 42,23.164C43.786,22.265 43.786,22.264 43.786,22.263C43.786,22.263 43.785,22.262 43.785,22.262C43.784,22.26 43.783,22.259 43.783,22.257C43.781,22.254 43.779,22.25 43.777,22.245C43.772,22.236 43.765,22.223 43.757,22.207C43.741,22.176 43.718,22.132 43.689,22.078C43.63,21.968 43.546,21.813 43.437,21.62C43.218,21.233 42.896,20.69 42.475,20.042C41.635,18.751 40.387,17.025 38.75,15.291C35.512,11.861 30.521,8.164 24,8.164L24,12.164ZM42,23.164C40.214,22.265 40.214,22.264 40.214,22.264C40.214,22.263 40.214,22.263 40.215,22.263C40.215,22.262 40.215,22.262 40.215,22.262C40.215,22.262 40.215,22.263 40.214,22.264C40.212,22.267 40.209,22.273 40.205,22.282C40.196,22.3 40.18,22.329 40.159,22.37C40.116,22.45 40.048,22.575 39.956,22.737C39.773,23.061 39.493,23.534 39.122,24.105C38.376,25.251 37.273,26.775 35.841,28.291C32.943,31.361 28.934,34.164 24,34.164L24,38.164C30.521,38.164 35.512,34.467 38.75,31.037C40.387,29.303 41.635,27.577 42.475,26.286C42.896,25.638 43.218,25.095 43.437,24.708C43.546,24.515 43.63,24.36 43.689,24.251C43.718,24.196 43.741,24.152 43.757,24.121C43.765,24.105 43.772,24.092 43.777,24.083C43.779,24.078 43.781,24.074 43.783,24.071C43.783,24.069 43.784,24.068 43.785,24.067C43.785,24.066 43.786,24.065 43.786,24.065C43.786,24.064 43.786,24.063 42,23.164ZM24,34.164C19.066,34.164 15.057,31.361 12.159,28.291C10.727,26.775 9.624,25.251 8.878,24.105C8.507,23.534 8.227,23.061 8.044,22.737C7.952,22.575 7.884,22.45 7.841,22.37C7.82,22.329 7.804,22.3 7.795,22.282C7.791,22.273 7.788,22.267 7.786,22.264C7.785,22.263 7.785,22.262 7.785,22.262C7.785,22.262 7.785,22.262 7.785,22.263C7.786,22.263 7.786,22.263 7.786,22.264C7.786,22.264 7.786,22.265 6,23.164C4.214,24.063 4.214,24.064 4.214,24.065C4.214,24.065 4.215,24.066 4.215,24.067C4.216,24.068 4.217,24.069 4.217,24.071C4.219,24.074 4.221,24.078 4.223,24.083C4.228,24.092 4.235,24.105 4.243,24.121C4.259,24.152 4.282,24.196 4.311,24.251C4.37,24.36 4.454,24.515 4.563,24.708C4.782,25.095 5.104,25.638 5.525,26.286C6.365,27.577 7.613,29.303 9.25,31.037C12.488,34.467 17.479,38.164 24,38.164L24,34.164Z" fill="#98A9BC"/>
<path d="M26,23.164C26,25.26 24.711,26.164 24,26.164L24,30.164C27.707,30.164 30,26.591 30,23.164L26,23.164ZM24,26.164C23.289,26.164 22,25.26 22,23.164L18,23.164C18,26.591 20.293,30.164 24,30.164L24,26.164ZM22,23.164C22,21.068 23.289,20.164 24,20.164L24,16.164C20.293,16.164 18,19.738 18,23.164L22,23.164ZM24,20.164C24.711,20.164 26,21.068 26,23.164L30,23.164C30,19.738 27.707,16.164 24,16.164L24,20.164Z" fill="#98A9BC"/>
</svg>
