<svg width="32" height="32" viewBox="0 0 32 32" fill="none" xmlns="http://www.w3.org/2000/svg" xmlns:xlink="http://www.w3.org/1999/xlink">
<path d="M28.851,20C28.851,19.227 28.224,18.6 27.451,18.6C26.677,18.6 26.051,19.227 26.051,20L28.851,20ZM3.451,25.333L2.051,25.333L3.451,25.333ZM4.851,20C4.851,19.227 4.224,18.6 3.451,18.6C2.677,18.6 2.051,19.227 2.051,20L4.851,20ZM26.051,20L26.051,25.333L28.851,25.333L28.851,20L26.051,20ZM26.051,25.333C26.051,25.669 25.917,25.991 25.68,26.229L27.66,28.209C28.422,27.446 28.851,26.412 28.851,25.333L26.051,25.333ZM25.68,26.229C25.442,26.467 25.12,26.6 24.784,26.6L24.784,29.4C25.862,29.4 26.897,28.972 27.66,28.209L25.68,26.229ZM24.784,26.6L6.117,26.6L6.117,29.4L24.784,29.4L24.784,26.6ZM6.117,26.6C5.781,26.6 5.459,26.467 5.222,26.229L3.242,28.209C4.004,28.972 5.039,29.4 6.117,29.4L6.117,26.6ZM5.222,26.229C4.984,25.991 4.851,25.669 4.851,25.333L2.051,25.333C2.051,26.412 2.479,27.446 3.242,28.209L5.222,26.229ZM4.851,25.333L4.851,20L2.051,20L2.051,25.333L4.851,25.333Z" fill="#778CA2"/>
<path d="M9.774,12.343C9.227,11.797 8.341,11.797 7.794,12.343C7.247,12.89 7.247,13.777 7.794,14.323L9.774,12.343ZM15.451,20L14.461,20.99C14.723,21.253 15.08,21.4 15.451,21.4C15.822,21.4 16.178,21.253 16.441,20.99L15.451,20ZM23.107,14.323C23.654,13.777 23.654,12.89 23.107,12.343C22.561,11.797 21.674,11.797 21.128,12.343L23.107,14.323ZM7.794,14.323L14.461,20.99L16.441,19.01L9.774,12.343L7.794,14.323ZM16.441,20.99L23.107,14.323L21.128,12.343L14.461,19.01L16.441,20.99Z" fill="#778CA2"/>
<line x1="14.051" y1="4" x2="14.051" y2="20" stroke="#778CA2" stroke-width="1.4" stroke-miterlimit="3.999327" stroke-linecap="round" stroke-linejoin="round"/>
</svg>
