<svg width="48" height="48" viewBox="0 0 48 48" fill="none" xmlns="http://www.w3.org/2000/svg" xmlns:xlink="http://www.w3.org/1999/xlink">
<path d="M28,24C28,26.209 26.209,28 24,28L24,32C28.418,32 32,28.418 32,24L28,24ZM24,28C21.791,28 20,26.209 20,24L16,24C16,28.418 19.582,32 24,32L24,28ZM20,24C20,21.791 21.791,20 24,20L24,16C19.582,16 16,19.582 16,24L20,24ZM24,20C26.209,20 28,21.791 28,24L32,24C32,19.582 28.418,16 24,16L24,20Z" fill="#4D7CFE"/>
<path d="M39.46,33.64L38.03,35.039L38.046,35.054L39.46,33.64ZM39.58,33.76L38.166,35.174L38.167,35.175L39.58,33.76ZM39.58,39.42L38.167,38.005L38.165,38.007L39.58,39.42ZM33.92,39.42L35.335,38.007L35.334,38.006L33.92,39.42ZM33.8,39.3L35.214,37.886L35.199,37.87L33.8,39.3ZM30.16,38.64L30.948,40.478L30.968,40.47L30.16,38.64ZM28.16,41.66L26.16,41.652L26.16,41.66L28.16,41.66ZM20.16,41.82L22.16,41.82C22.16,41.804 22.16,41.789 22.159,41.773L20.16,41.82ZM18,38.8L17.192,40.63C17.231,40.647 17.27,40.663 17.31,40.677L18,38.8ZM14.36,39.46L12.961,38.03L12.946,38.046L14.36,39.46ZM14.24,39.58L12.826,38.166L12.825,38.167L14.24,39.58ZM8.58,39.58L9.995,38.167L9.993,38.165L8.58,39.58ZM7.407,36.75L9.407,36.75L7.407,36.75ZM8.58,33.92L9.993,35.335L9.994,35.334L8.58,33.92ZM8.7,33.8L10.114,35.214L10.13,35.199L8.7,33.8ZM9.36,30.16L7.522,30.948L7.53,30.968L9.36,30.16ZM6.34,28.16L6.348,26.16L6.34,26.16L6.34,28.16ZM2,24.16L0,24.16L2,24.16ZM6,20.16L6,22.16L6,20.16ZM6.18,20.16L6.18,22.16C6.196,22.16 6.211,22.16 6.227,22.159L6.18,20.16ZM9.2,18L7.37,17.192C7.353,17.231 7.337,17.27 7.323,17.31L9.2,18ZM8.54,14.36L9.97,12.961L9.954,12.946L8.54,14.36ZM8.42,14.24L9.834,12.826L9.833,12.825L8.42,14.24ZM8.42,8.58L9.833,9.995L9.835,9.993L8.42,8.58ZM14.08,8.58L12.665,9.993L12.666,9.994L14.08,8.58ZM14.2,8.7L12.786,10.114L12.801,10.13L14.2,8.7ZM17.84,9.36L17.84,7.36C17.562,7.36 17.287,7.418 17.032,7.53L17.84,9.36ZM18,9.36L18,11.36C18.271,11.36 18.539,11.305 18.788,11.198L18,9.36ZM20,6.34L22,6.348L22,6.34L20,6.34ZM24,2L24,0L24,2ZM28,6.18L26,6.18L26,6.188L28,6.18ZM30,9.2L30.808,7.37L30.788,7.362L30,9.2ZM33.64,8.54L35.039,9.97L35.054,9.954L33.64,8.54ZM33.76,8.42L35.174,9.834L35.175,9.833L33.76,8.42ZM36.59,7.247L36.59,9.247L36.59,7.247ZM39.42,8.42L38.005,9.833L38.007,9.835L39.42,8.42ZM39.42,14.08L38.007,12.665L38.006,12.666L39.42,14.08ZM39.3,14.2L37.886,12.786L37.87,12.801L39.3,14.2ZM38.64,17.84L40.64,17.84C40.64,17.562 40.582,17.287 40.47,17.032L38.64,17.84ZM38.64,18L36.64,18C36.64,18.271 36.695,18.539 36.802,18.788L38.64,18ZM41.66,20L41.652,22L41.66,22L41.66,20ZM41.82,28L41.82,26L41.812,26L41.82,28ZM36.97,29.192C36.543,30.161 36.415,31.236 36.604,32.278L40.54,31.564C40.494,31.309 40.525,31.045 40.63,30.808L36.97,29.192ZM36.604,32.278C36.793,33.32 37.29,34.281 38.03,35.039L40.89,32.241C40.708,32.056 40.586,31.82 40.54,31.564L36.604,32.278ZM38.046,35.054L38.166,35.174L40.994,32.346L40.874,32.226L38.046,35.054ZM38.167,35.175C38.353,35.361 38.5,35.581 38.601,35.824L42.296,34.292C41.994,33.564 41.551,32.902 40.993,32.345L38.167,35.175ZM38.601,35.824C38.701,36.067 38.753,36.327 38.753,36.59L42.753,36.59C42.753,35.802 42.598,35.021 42.296,34.292L38.601,35.824ZM38.753,36.59C38.753,36.853 38.701,37.113 38.601,37.356L42.296,38.888C42.598,38.159 42.753,37.378 42.753,36.59L38.753,36.59ZM38.601,37.356C38.5,37.599 38.353,37.819 38.167,38.005L40.993,40.835C41.551,40.278 41.994,39.616 42.296,38.888L38.601,37.356ZM38.165,38.007C37.979,38.193 37.759,38.34 37.516,38.441L39.048,42.136C39.776,41.834 40.438,41.391 40.995,40.833L38.165,38.007ZM37.516,38.441C37.273,38.541 37.013,38.593 36.75,38.593L36.75,42.593C37.538,42.593 38.319,42.438 39.048,42.136L37.516,38.441ZM36.75,38.593C36.487,38.593 36.227,38.541 35.984,38.441L34.452,42.136C35.181,42.438 35.962,42.593 36.75,42.593L36.75,38.593ZM35.984,38.441C35.741,38.34 35.521,38.193 35.335,38.007L32.505,40.833C33.062,41.391 33.724,41.834 34.452,42.136L35.984,38.441ZM35.334,38.006L35.214,37.886L32.386,40.714L32.506,40.834L35.334,38.006ZM35.199,37.87C34.441,37.13 33.48,36.633 32.438,36.444L31.724,40.38C31.98,40.426 32.216,40.548 32.401,40.73L35.199,37.87ZM32.438,36.444C31.396,36.255 30.321,36.383 29.352,36.81L30.968,40.47C31.205,40.365 31.469,40.334 31.724,40.38L32.438,36.444ZM29.372,36.802C28.422,37.209 27.612,37.885 27.041,38.747L30.376,40.955C30.516,40.744 30.715,40.578 30.948,40.478L29.372,36.802ZM27.041,38.747C26.47,39.609 26.164,40.618 26.16,41.652L30.16,41.668C30.161,41.414 30.236,41.167 30.376,40.955L27.041,38.747ZM26.16,41.66L26.16,42L30.16,42L30.16,41.66L26.16,41.66ZM26.16,42C26.16,42.53 25.949,43.039 25.574,43.414L28.403,46.243C29.528,45.117 30.16,43.591 30.16,42L26.16,42ZM25.574,43.414C25.199,43.789 24.69,44 24.16,44L24.16,48C25.751,48 27.277,47.368 28.403,46.243L25.574,43.414ZM24.16,44C23.63,44 23.121,43.789 22.746,43.414L19.917,46.243C21.043,47.368 22.569,48 24.16,48L24.16,44ZM22.746,43.414C22.371,43.039 22.16,42.53 22.16,42L18.16,42C18.16,43.591 18.792,45.117 19.917,46.243L22.746,43.414ZM22.16,42L22.16,41.82L18.16,41.82L18.16,42L22.16,42ZM22.159,41.773C22.135,40.71 21.79,39.679 21.172,38.814L17.918,41.141C18.07,41.353 18.154,41.606 18.161,41.867L22.159,41.773ZM21.172,38.814C20.553,37.949 19.688,37.29 18.69,36.923L17.31,40.677C17.554,40.767 17.767,40.929 17.918,41.141L21.172,38.814ZM18.808,36.97C17.839,36.543 16.764,36.415 15.722,36.604L16.436,40.54C16.691,40.494 16.955,40.525 17.192,40.63L18.808,36.97ZM15.722,36.604C14.68,36.793 13.719,37.29 12.961,38.03L15.759,40.89C15.944,40.708 16.18,40.586 16.436,40.54L15.722,36.604ZM12.946,38.046L12.826,38.166L15.654,40.994L15.774,40.874L12.946,38.046ZM12.825,38.167C12.639,38.353 12.419,38.5 12.176,38.601L13.708,42.296C14.436,41.994 15.098,41.551 15.655,40.993L12.825,38.167ZM12.176,38.601C11.933,38.701 11.673,38.753 11.41,38.753L11.41,42.753C12.199,42.753 12.979,42.598 13.708,42.296L12.176,38.601ZM11.41,38.753C11.147,38.753 10.887,38.701 10.644,38.601L9.112,42.296C9.841,42.598 10.621,42.753 11.41,42.753L11.41,38.753ZM10.644,38.601C10.401,38.5 10.181,38.353 9.995,38.167L7.165,40.993C7.722,41.551 8.384,41.994 9.112,42.296L10.644,38.601ZM9.993,38.165C9.807,37.979 9.66,37.759 9.559,37.516L5.864,39.048C6.166,39.776 6.609,40.438 7.167,40.995L9.993,38.165ZM9.559,37.516C9.459,37.273 9.407,37.013 9.407,36.75L5.407,36.75C5.407,37.538 5.562,38.319 5.864,39.048L9.559,37.516ZM9.407,36.75C9.407,36.487 9.459,36.227 9.559,35.984L5.864,34.452C5.562,35.181 5.407,35.962 5.407,36.75L9.407,36.75ZM9.559,35.984C9.66,35.741 9.807,35.521 9.993,35.335L7.167,32.505C6.609,33.062 6.166,33.724 5.864,34.452L9.559,35.984ZM9.994,35.334L10.114,35.214L7.286,32.386L7.166,32.506L9.994,35.334ZM10.13,35.199C10.87,34.441 11.367,33.48 11.556,32.438L7.62,31.724C7.574,31.98 7.452,32.216 7.27,32.401L10.13,35.199ZM11.556,32.438C11.745,31.396 11.617,30.321 11.19,29.352L7.53,30.968C7.635,31.205 7.666,31.469 7.62,31.724L11.556,32.438ZM11.198,29.372C10.791,28.422 10.115,27.612 9.253,27.041L7.045,30.376C7.256,30.516 7.422,30.715 7.522,30.948L11.198,29.372ZM9.253,27.041C8.391,26.47 7.382,26.164 6.348,26.16L6.332,30.16C6.586,30.161 6.833,30.236 7.045,30.376L9.253,27.041ZM6.34,26.16L6,26.16L6,30.16L6.34,30.16L6.34,26.16ZM6,26.16C5.47,26.16 4.961,25.949 4.586,25.574L1.757,28.403C2.883,29.528 4.409,30.16 6,30.16L6,26.16ZM4.586,25.574C4.211,25.199 4,24.69 4,24.16L0,24.16C0,25.751 0.632,27.277 1.757,28.403L4.586,25.574ZM4,24.16C4,23.63 4.211,23.121 4.586,22.746L1.757,19.917C0.632,21.043 0,22.569 0,24.16L4,24.16ZM4.586,22.746C4.961,22.371 5.47,22.16 6,22.16L6,18.16C4.409,18.16 2.883,18.792 1.757,19.917L4.586,22.746ZM6,22.16L6.18,22.16L6.18,18.16L6,18.16L6,22.16ZM6.227,22.159C7.29,22.135 8.321,21.79 9.186,21.172L6.859,17.918C6.647,18.07 6.394,18.154 6.133,18.161L6.227,22.159ZM9.186,21.172C10.051,20.553 10.71,19.688 11.077,18.69L7.323,17.31C7.233,17.554 7.071,17.767 6.859,17.918L9.186,21.172ZM11.03,18.808C11.457,17.839 11.585,16.764 11.396,15.722L7.46,16.436C7.506,16.691 7.475,16.955 7.37,17.192L11.03,18.808ZM11.396,15.722C11.207,14.68 10.71,13.719 9.97,12.961L7.11,15.759C7.292,15.944 7.414,16.18 7.46,16.436L11.396,15.722ZM9.954,12.946L9.834,12.826L7.006,15.654L7.126,15.774L9.954,12.946ZM9.833,12.825C9.647,12.639 9.5,12.419 9.399,12.176L5.704,13.708C6.006,14.436 6.449,15.098 7.007,15.655L9.833,12.825ZM9.399,12.176C9.299,11.933 9.247,11.673 9.247,11.41L5.247,11.41C5.247,12.199 5.402,12.979 5.704,13.708L9.399,12.176ZM9.247,11.41C9.247,11.147 9.299,10.887 9.399,10.644L5.704,9.112C5.402,9.841 5.247,10.621 5.247,11.41L9.247,11.41ZM9.399,10.644C9.5,10.401 9.647,10.181 9.833,9.995L7.007,7.165C6.449,7.722 6.006,8.384 5.704,9.112L9.399,10.644ZM9.835,9.993C10.021,9.807 10.241,9.66 10.484,9.559L8.952,5.864C8.224,6.166 7.562,6.609 7.005,7.167L9.835,9.993ZM10.484,9.559C10.727,9.459 10.987,9.407 11.25,9.407L11.25,5.407C10.461,5.407 9.681,5.562 8.952,5.864L10.484,9.559ZM11.25,9.407C11.513,9.407 11.773,9.459 12.016,9.559L13.548,5.864C12.819,5.562 12.039,5.407 11.25,5.407L11.25,9.407ZM12.016,9.559C12.259,9.66 12.479,9.807 12.665,9.993L15.495,7.167C14.938,6.609 14.276,6.166 13.548,5.864L12.016,9.559ZM12.666,9.994L12.786,10.114L15.614,7.286L15.494,7.166L12.666,9.994ZM12.801,10.13C13.558,10.87 14.52,11.367 15.562,11.556L16.276,7.62C16.02,7.574 15.784,7.452 15.599,7.27L12.801,10.13ZM15.562,11.556C16.604,11.745 17.679,11.617 18.648,11.19L17.032,7.53C16.795,7.635 16.531,7.666 16.276,7.62L15.562,11.556ZM17.84,11.36L18,11.36L18,7.36L17.84,7.36L17.84,11.36ZM18.788,11.198C19.738,10.791 20.548,10.115 21.119,9.253L17.784,7.045C17.644,7.256 17.445,7.422 17.212,7.522L18.788,11.198ZM21.119,9.253C21.69,8.391 21.996,7.382 22,6.348L18,6.332C17.999,6.586 17.924,6.833 17.784,7.045L21.119,9.253ZM22,6.34L22,6L18,6L18,6.34L22,6.34ZM22,6C22,5.47 22.211,4.961 22.586,4.586L19.757,1.757C18.632,2.883 18,4.409 18,6L22,6ZM22.586,4.586C22.961,4.211 23.47,4 24,4L24,0C22.409,0 20.883,0.632 19.757,1.757L22.586,4.586ZM24,4C24.53,4 25.039,4.211 25.414,4.586L28.243,1.757C27.117,0.632 25.591,0 24,0L24,4ZM25.414,4.586C25.789,4.961 26,5.47 26,6L30,6C30,4.409 29.368,2.883 28.243,1.757L25.414,4.586ZM26,6L26,6.18L30,6.18L30,6L26,6ZM26,6.188C26.004,7.222 26.31,8.231 26.881,9.093L30.216,6.885C30.076,6.673 30.001,6.426 30,6.172L26,6.188ZM26.881,9.093C27.452,9.955 28.262,10.631 29.212,11.038L30.788,7.362C30.555,7.262 30.356,7.096 30.216,6.885L26.881,9.093ZM29.192,11.03C30.161,11.457 31.236,11.585 32.278,11.396L31.564,7.46C31.309,7.506 31.045,7.475 30.808,7.37L29.192,11.03ZM32.278,11.396C33.32,11.207 34.281,10.71 35.039,9.97L32.241,7.11C32.056,7.292 31.82,7.414 31.564,7.46L32.278,11.396ZM35.054,9.954L35.174,9.834L32.346,7.006L32.226,7.126L35.054,9.954ZM35.175,9.833C35.361,9.647 35.581,9.5 35.824,9.399L34.292,5.704C33.564,6.006 32.902,6.449 32.345,7.007L35.175,9.833ZM35.824,9.399C36.067,9.299 36.327,9.247 36.59,9.247L36.59,5.247C35.802,5.247 35.021,5.402 34.292,5.704L35.824,9.399ZM36.59,9.247C36.853,9.247 37.113,9.299 37.356,9.399L38.888,5.704C38.159,5.402 37.378,5.247 36.59,5.247L36.59,9.247ZM37.356,9.399C37.599,9.5 37.819,9.647 38.005,9.833L40.835,7.007C40.278,6.449 39.616,6.006 38.888,5.704L37.356,9.399ZM38.007,9.835C38.193,10.021 38.34,10.241 38.441,10.484L42.136,8.952C41.834,8.224 41.391,7.562 40.833,7.005L38.007,9.835ZM38.441,10.484C38.541,10.727 38.593,10.987 38.593,11.25L42.593,11.25C42.593,10.461 42.438,9.681 42.136,8.952L38.441,10.484ZM38.593,11.25C38.593,11.513 38.541,11.773 38.441,12.016L42.136,13.548C42.438,12.819 42.593,12.039 42.593,11.25L38.593,11.25ZM38.441,12.016C38.34,12.259 38.193,12.479 38.007,12.665L40.833,15.495C41.391,14.938 41.834,14.276 42.136,13.548L38.441,12.016ZM38.006,12.666L37.886,12.786L40.714,15.614L40.834,15.494L38.006,12.666ZM37.87,12.801C37.13,13.558 36.633,14.52 36.444,15.562L40.38,16.276C40.426,16.02 40.548,15.784 40.73,15.599L37.87,12.801ZM36.444,15.562C36.255,16.604 36.383,17.679 36.81,18.648L40.47,17.032C40.365,16.795 40.334,16.531 40.38,16.276L36.444,15.562ZM36.64,17.84L36.64,18L40.64,18L40.64,17.84L36.64,17.84ZM36.802,18.788C37.209,19.738 37.885,20.548 38.747,21.119L40.955,17.784C40.744,17.644 40.578,17.445 40.478,17.212L36.802,18.788ZM38.747,21.119C39.609,21.69 40.618,21.996 41.652,22L41.668,18C41.414,17.999 41.167,17.924 40.955,17.784L38.747,21.119ZM41.66,22L42,22L42,18L41.66,18L41.66,22ZM42,22C42.53,22 43.039,22.211 43.414,22.586L46.243,19.757C45.117,18.632 43.591,18 42,18L42,22ZM43.414,22.586C43.789,22.961 44,23.47 44,24L48,24C48,22.409 47.368,20.883 46.243,19.757L43.414,22.586ZM44,24C44,24.53 43.789,25.039 43.414,25.414L46.243,28.243C47.368,27.117 48,25.591 48,24L44,24ZM43.414,25.414C43.039,25.789 42.53,26 42,26L42,30C43.591,30 45.117,29.368 46.243,28.243L43.414,25.414ZM42,26L41.82,26L41.82,30L42,30L42,26ZM41.812,26C40.778,26.004 39.769,26.31 38.907,26.881L41.115,30.216C41.327,30.076 41.574,30.001 41.828,30L41.812,26ZM38.907,26.881C38.045,27.452 37.369,28.262 36.962,29.212L40.638,30.788C40.738,30.555 40.904,30.356 41.115,30.216L38.907,26.881Z" fill="#4D7CFE"/>
</svg>
