<svg width="48" height="48" viewBox="0 0 48 48" fill="none" xmlns="http://www.w3.org/2000/svg" xmlns:xlink="http://www.w3.org/1999/xlink">
<line x1="6" y1="9.664" x2="42" y2="9.664" stroke="#98A9BC" stroke-width="2" stroke-miterlimit="3.999327" stroke-linecap="round" stroke-linejoin="round"/>
<path d="M38,11.664L40,11.664C40,10.56 39.105,9.664 38,9.664L38,11.664ZM10,39.664L8,39.664L10,39.664ZM10,11.664L10,9.664C8.895,9.664 8,10.56 8,11.664L10,11.664ZM14,11.664C14,12.769 14.895,13.664 16,13.664C17.105,13.664 18,12.769 18,11.664L14,11.664ZM20,3.664L20,1.664L20,3.664ZM28,3.664L28,1.664L28,3.664ZM30,11.664C30,12.769 30.895,13.664 32,13.664C33.105,13.664 34,12.769 34,11.664L30,11.664ZM36,11.664L36,39.664L40,39.664L40,11.664L36,11.664ZM36,39.664C36,40.194 35.789,40.703 35.414,41.078L38.243,43.907C39.368,42.781 40,41.255 40,39.664L36,39.664ZM35.414,41.078C35.039,41.453 34.53,41.664 34,41.664L34,45.664C35.591,45.664 37.117,45.032 38.243,43.907L35.414,41.078ZM34,41.664L14,41.664L14,45.664L34,45.664L34,41.664ZM14,41.664C13.47,41.664 12.961,41.453 12.586,41.078L9.757,43.907C10.883,45.032 12.409,45.664 14,45.664L14,41.664ZM12.586,41.078C12.211,40.703 12,40.194 12,39.664L8,39.664C8,41.255 8.632,42.781 9.757,43.907L12.586,41.078ZM12,39.664L12,11.664L8,11.664L8,39.664L12,39.664ZM10,13.664L38,13.664L38,9.664L10,9.664L10,13.664ZM18,11.664L18,7.664L14,7.664L14,11.664L18,11.664ZM18,7.664C18,7.134 18.211,6.625 18.586,6.25L15.757,3.421C14.632,4.547 14,6.073 14,7.664L18,7.664ZM18.586,6.25C18.961,5.875 19.47,5.664 20,5.664L20,1.664C18.409,1.664 16.883,2.296 15.757,3.421L18.586,6.25ZM20,5.664L28,5.664L28,1.664L20,1.664L20,5.664ZM28,5.664C28.53,5.664 29.039,5.875 29.414,6.25L32.243,3.421C31.117,2.296 29.591,1.664 28,1.664L28,5.664ZM29.414,6.25C29.789,6.625 30,7.134 30,7.664L34,7.664C34,6.073 33.368,4.547 32.243,3.421L29.414,6.25ZM30,7.664L30,11.664L34,11.664L34,7.664L30,7.664Z" fill="#98A9BC"/>
</svg>
