<svg width="48" height="50" viewBox="0 0 48 50" fill="none" xmlns="http://www.w3.org/2000/svg" xmlns:xlink="http://www.w3.org/1999/xlink">
<line x1="6" y1="10.414" x2="42" y2="10.414" stroke="#98A9BC" stroke-width="2" stroke-miterlimit="3.999327" stroke-linecap="round" stroke-linejoin="round"/>
<path d="M38,12.414L40,12.414C40,11.31 39.105,10.414 38,10.414L38,12.414ZM10,40.414L8,40.414L10,40.414ZM10,12.414L10,10.414C8.895,10.414 8,11.31 8,12.414L10,12.414ZM14,12.414C14,13.519 14.895,14.414 16,14.414C17.105,14.414 18,13.519 18,12.414L14,12.414ZM20,4.414L20,2.414L20,4.414ZM28,4.414L28,2.414L28,4.414ZM30,12.414C30,13.519 30.895,14.414 32,14.414C33.105,14.414 34,13.519 34,12.414L30,12.414ZM36,12.414L36,40.414L40,40.414L40,12.414L36,12.414ZM36,40.414C36,40.944 35.789,41.453 35.414,41.828L38.243,44.657C39.368,43.531 40,42.005 40,40.414L36,40.414ZM35.414,41.828C35.039,42.203 34.53,42.414 34,42.414L34,46.414C35.591,46.414 37.117,45.782 38.243,44.657L35.414,41.828ZM34,42.414L14,42.414L14,46.414L34,46.414L34,42.414ZM14,42.414C13.47,42.414 12.961,42.203 12.586,41.828L9.757,44.657C10.883,45.782 12.409,46.414 14,46.414L14,42.414ZM12.586,41.828C12.211,41.453 12,40.944 12,40.414L8,40.414C8,42.005 8.632,43.531 9.757,44.657L12.586,41.828ZM12,40.414L12,12.414L8,12.414L8,40.414L12,40.414ZM10,14.414L38,14.414L38,10.414L10,10.414L10,14.414ZM18,12.414L18,8.414L14,8.414L14,12.414L18,12.414ZM18,8.414C18,7.884 18.211,7.375 18.586,7L15.757,4.171C14.632,5.297 14,6.823 14,8.414L18,8.414ZM18.586,7C18.961,6.625 19.47,6.414 20,6.414L20,2.414C18.409,2.414 16.883,3.046 15.757,4.171L18.586,7ZM20,6.414L28,6.414L28,2.414L20,2.414L20,6.414ZM28,6.414C28.53,6.414 29.039,6.625 29.414,7L32.243,4.171C31.117,3.046 29.591,2.414 28,2.414L28,6.414ZM29.414,7C29.789,7.375 30,7.884 30,8.414L34,8.414C34,6.823 33.368,5.297 32.243,4.171L29.414,7ZM30,8.414L30,12.414L34,12.414L34,8.414L30,8.414Z" fill="#98A9BC"/>
</svg>
