<svg width="48" height="48" viewBox="0 0 48 48" fill="none" xmlns="http://www.w3.org/2000/svg" xmlns:xlink="http://www.w3.org/1999/xlink">
<path d="M42,24C42,33.941 33.941,42 24,42L24,46C36.15,46 46,36.15 46,24L42,24ZM24,42C14.059,42 6,33.941 6,24L2,24C2,36.15 11.85,46 24,46L24,42ZM6,24C6,14.059 14.059,6 24,6L24,2C11.85,2 2,11.85 2,24L6,24ZM24,6C33.941,6 42,14.059 42,24L46,24C46,11.85 36.15,2 24,2L24,6Z" fill="#FF3D00"/>
<path d="M31.414,19.414C32.195,18.633 32.195,17.367 31.414,16.586C30.633,15.805 29.367,15.805 28.586,16.586L31.414,19.414ZM16.586,28.586C15.805,29.367 15.805,30.633 16.586,31.414C17.367,32.195 18.633,32.195 19.414,31.414L16.586,28.586ZM28.586,16.586L16.586,28.586L19.414,31.414L31.414,19.414L28.586,16.586Z" fill="#FF3D00"/>
<path d="M19.414,16.586C18.633,15.805 17.367,15.805 16.586,16.586C15.805,17.367 15.805,18.633 16.586,19.414L19.414,16.586ZM28.586,31.414C29.367,32.195 30.633,32.195 31.414,31.414C32.195,30.633 32.195,29.367 31.414,28.586L28.586,31.414ZM16.586,19.414L28.586,31.414L31.414,28.586L19.414,16.586L16.586,19.414Z" fill="#FF3D00"/>
</svg>
