<svg width="48" height="48" viewBox="0 0 48 48" fill="none" xmlns="http://www.w3.org/2000/svg" xmlns:xlink="http://www.w3.org/1999/xlink">
<path d="M6,23.664L4.214,22.765C3.929,23.33 3.929,23.998 4.214,24.563L6,23.664ZM42,23.664L43.786,24.563C44.071,23.998 44.071,23.33 43.786,22.765L42,23.664ZM6,23.664C7.786,24.563 7.786,24.564 7.786,24.565C7.786,24.565 7.786,24.565 7.785,24.565C7.785,24.566 7.785,24.566 7.785,24.566C7.785,24.566 7.785,24.565 7.786,24.564C7.788,24.561 7.791,24.555 7.795,24.546C7.804,24.529 7.82,24.499 7.841,24.459C7.884,24.378 7.952,24.253 8.044,24.091C8.227,23.767 8.507,23.294 8.878,22.723C9.624,21.577 10.727,20.053 12.159,18.537C15.057,15.467 19.066,12.664 24,12.664L24,8.664C17.479,8.664 12.488,12.361 9.25,15.791C7.613,17.525 6.365,19.251 5.525,20.542C5.104,21.19 4.782,21.733 4.563,22.12C4.454,22.313 4.37,22.468 4.311,22.578C4.282,22.632 4.259,22.676 4.243,22.707C4.235,22.723 4.228,22.736 4.223,22.745C4.221,22.75 4.219,22.754 4.217,22.757C4.217,22.759 4.216,22.76 4.215,22.762C4.215,22.762 4.214,22.763 4.214,22.763C4.214,22.764 4.214,22.765 6,23.664ZM24,12.664C28.934,12.664 32.943,15.467 35.841,18.537C37.273,20.053 38.376,21.577 39.122,22.723C39.493,23.294 39.773,23.767 39.956,24.091C40.048,24.253 40.116,24.378 40.159,24.459C40.18,24.499 40.196,24.529 40.205,24.546C40.209,24.555 40.212,24.561 40.214,24.564C40.215,24.565 40.215,24.566 40.215,24.566C40.215,24.566 40.215,24.566 40.215,24.565C40.214,24.565 40.214,24.565 40.214,24.565C40.214,24.564 40.214,24.563 42,23.664C43.786,22.765 43.786,22.764 43.786,22.763C43.786,22.763 43.785,22.762 43.785,22.762C43.784,22.76 43.783,22.759 43.783,22.757C43.781,22.754 43.779,22.75 43.777,22.745C43.772,22.736 43.765,22.723 43.757,22.707C43.741,22.676 43.718,22.632 43.689,22.578C43.63,22.468 43.546,22.313 43.437,22.12C43.218,21.733 42.896,21.19 42.475,20.542C41.635,19.251 40.387,17.525 38.75,15.791C35.512,12.361 30.521,8.664 24,8.664L24,12.664ZM42,23.664C40.214,22.765 40.214,22.764 40.214,22.764C40.214,22.763 40.214,22.763 40.215,22.763C40.215,22.762 40.215,22.762 40.215,22.762C40.215,22.762 40.215,22.763 40.214,22.764C40.212,22.767 40.209,22.773 40.205,22.782C40.196,22.8 40.18,22.829 40.159,22.87C40.116,22.95 40.048,23.075 39.956,23.237C39.773,23.561 39.493,24.034 39.122,24.605C38.376,25.751 37.273,27.275 35.841,28.791C32.943,31.861 28.934,34.664 24,34.664L24,38.664C30.521,38.664 35.512,34.967 38.75,31.537C40.387,29.803 41.635,28.077 42.475,26.786C42.896,26.138 43.218,25.595 43.437,25.208C43.546,25.015 43.63,24.86 43.689,24.751C43.718,24.696 43.741,24.652 43.757,24.621C43.765,24.605 43.772,24.592 43.777,24.583C43.779,24.578 43.781,24.574 43.783,24.571C43.783,24.569 43.784,24.568 43.785,24.567C43.785,24.566 43.786,24.565 43.786,24.565C43.786,24.564 43.786,24.563 42,23.664ZM24,34.664C19.066,34.664 15.057,31.861 12.159,28.791C10.727,27.275 9.624,25.751 8.878,24.605C8.507,24.034 8.227,23.561 8.044,23.237C7.952,23.075 7.884,22.95 7.841,22.87C7.82,22.829 7.804,22.8 7.795,22.782C7.791,22.773 7.788,22.767 7.786,22.764C7.785,22.763 7.785,22.762 7.785,22.762C7.785,22.762 7.785,22.762 7.785,22.763C7.786,22.763 7.786,22.763 7.786,22.764C7.786,22.764 7.786,22.765 6,23.664C4.214,24.563 4.214,24.564 4.214,24.565C4.214,24.565 4.215,24.566 4.215,24.567C4.216,24.568 4.217,24.569 4.217,24.571C4.219,24.574 4.221,24.578 4.223,24.583C4.228,24.592 4.235,24.605 4.243,24.621C4.259,24.652 4.282,24.696 4.311,24.751C4.37,24.86 4.454,25.015 4.563,25.208C4.782,25.595 5.104,26.138 5.525,26.786C6.365,28.077 7.613,29.803 9.25,31.537C12.488,34.967 17.479,38.664 24,38.664L24,34.664Z" fill="#98A9BC"/>
<path d="M26,23.664C26,25.76 24.711,26.664 24,26.664L24,30.664C27.707,30.664 30,27.091 30,23.664L26,23.664ZM24,26.664C23.289,26.664 22,25.76 22,23.664L18,23.664C18,27.091 20.293,30.664 24,30.664L24,26.664ZM22,23.664C22,21.568 23.289,20.664 24,20.664L24,16.664C20.293,16.664 18,20.238 18,23.664L22,23.664ZM24,20.664C24.711,20.664 26,21.568 26,23.664L30,23.664C30,20.238 27.707,16.664 24,16.664L24,20.664Z" fill="#98A9BC"/>
</svg>
