<svg width="48" height="48" viewBox="0 0 48 48" fill="none" xmlns="http://www.w3.org/2000/svg" xmlns:xlink="http://www.w3.org/1999/xlink">
<path d="M27.451,24C27.451,26.209 25.66,28 23.451,28L23.451,32C27.869,32 31.451,28.418 31.451,24L27.451,24ZM23.451,28C21.242,28 19.451,26.209 19.451,24L15.451,24C15.451,28.418 19.032,32 23.451,32L23.451,28ZM19.451,24C19.451,21.791 21.242,20 23.451,20L23.451,16C19.032,16 15.451,19.582 15.451,24L19.451,24ZM23.451,20C25.66,20 27.451,21.791 27.451,24L31.451,24C31.451,19.582 27.869,16 23.451,16L23.451,20Z" fill="#4D7CFE"/>
<path d="M38.911,33.64L37.481,35.039L37.496,35.054L38.911,33.64ZM39.031,33.76L37.616,35.174L37.617,35.175L39.031,33.76ZM39.031,39.42L37.617,38.005L37.616,38.007L39.031,39.42ZM33.371,39.42L34.786,38.007L34.785,38.006L33.371,39.42ZM33.251,39.3L34.665,37.886L34.649,37.87L33.251,39.3ZM29.611,38.64L30.399,40.478L30.418,40.47L29.611,38.64ZM27.611,41.66L25.611,41.652L25.611,41.66L27.611,41.66ZM19.611,41.82L21.611,41.82C21.611,41.804 21.61,41.789 21.61,41.773L19.611,41.82ZM17.451,38.8L16.643,40.63C16.682,40.647 16.721,40.663 16.76,40.677L17.451,38.8ZM13.811,39.46L12.412,38.03L12.396,38.046L13.811,39.46ZM13.691,39.58L12.276,38.166L12.276,38.167L13.691,39.58ZM8.031,39.58L9.446,38.167L9.444,38.165L8.031,39.58ZM6.858,36.75L8.858,36.75L6.858,36.75ZM8.031,33.92L9.444,35.335L9.445,35.334L8.031,33.92ZM8.151,33.8L9.565,35.214L9.58,35.199L8.151,33.8ZM8.811,30.16L6.972,30.948L6.981,30.968L8.811,30.16ZM5.791,28.16L5.799,26.16L5.791,26.16L5.791,28.16ZM1.451,24.16L-0.549,24.16L1.451,24.16ZM5.451,20.16L5.451,22.16L5.451,20.16ZM5.631,20.16L5.631,22.16C5.646,22.16 5.662,22.16 5.677,22.159L5.631,20.16ZM8.651,18L6.821,17.192C6.804,17.231 6.788,17.27 6.774,17.31L8.651,18ZM7.991,14.36L9.421,12.961L9.405,12.946L7.991,14.36ZM7.871,14.24L9.285,12.826L9.284,12.825L7.871,14.24ZM7.871,8.58L9.284,9.995L9.286,9.993L7.871,8.58ZM13.531,8.58L12.116,9.993L12.116,9.994L13.531,8.58ZM13.651,8.7L12.236,10.114L12.252,10.13L13.651,8.7ZM17.291,9.36L17.291,7.36C17.013,7.36 16.738,7.418 16.483,7.53L17.291,9.36ZM17.451,9.36L17.451,11.36C17.722,11.36 17.99,11.305 18.239,11.198L17.451,9.36ZM19.451,6.34L21.451,6.348L21.451,6.34L19.451,6.34ZM23.451,2L23.451,0L23.451,2ZM27.451,6.18L25.451,6.18L25.451,6.188L27.451,6.18ZM29.451,9.2L30.258,7.37L30.238,7.362L29.451,9.2ZM33.091,8.54L34.489,9.97L34.505,9.954L33.091,8.54ZM33.211,8.42L34.625,9.834L34.626,9.833L33.211,8.42ZM36.041,7.247L36.041,9.247L36.041,7.247ZM38.871,8.42L37.456,9.833L37.457,9.835L38.871,8.42ZM38.871,14.08L37.457,12.665L37.456,12.666L38.871,14.08ZM38.751,14.2L37.336,12.786L37.321,12.801L38.751,14.2ZM38.091,17.84L40.091,17.84C40.091,17.562 40.033,17.287 39.92,17.032L38.091,17.84ZM38.091,18L36.091,18C36.091,18.271 36.146,18.539 36.252,18.788L38.091,18ZM41.111,20L41.103,22L41.111,22L41.111,20ZM41.271,28L41.271,26L41.263,26L41.271,28ZM36.421,29.192C35.993,30.161 35.866,31.236 36.055,32.278L39.991,31.564C39.944,31.309 39.975,31.045 40.08,30.808L36.421,29.192ZM36.055,32.278C36.244,33.32 36.74,34.281 37.481,35.039L40.34,32.241C40.159,32.056 40.037,31.82 39.991,31.564L36.055,32.278ZM37.496,35.054L37.616,35.174L40.445,32.346L40.325,32.226L37.496,35.054ZM37.617,35.175C37.803,35.361 37.951,35.581 38.051,35.824L41.746,34.292C41.444,33.564 41.002,32.902 40.444,32.345L37.617,35.175ZM38.051,35.824C38.152,36.067 38.204,36.327 38.204,36.59L42.204,36.59C42.204,35.802 42.048,35.021 41.746,34.292L38.051,35.824ZM38.204,36.59C38.204,36.853 38.152,37.113 38.051,37.356L41.746,38.888C42.048,38.159 42.204,37.378 42.204,36.59L38.204,36.59ZM38.051,37.356C37.951,37.599 37.803,37.819 37.617,38.005L40.444,40.835C41.002,40.278 41.444,39.616 41.746,38.888L38.051,37.356ZM37.616,38.007C37.43,38.193 37.209,38.34 36.966,38.441L38.498,42.136C39.227,41.834 39.888,41.391 40.446,40.833L37.616,38.007ZM36.966,38.441C36.724,38.541 36.463,38.593 36.201,38.593L36.201,42.593C36.989,42.593 37.77,42.438 38.498,42.136L36.966,38.441ZM36.201,38.593C35.938,38.593 35.678,38.541 35.435,38.441L33.903,42.136C34.631,42.438 35.412,42.593 36.201,42.593L36.201,38.593ZM35.435,38.441C35.192,38.34 34.971,38.193 34.786,38.007L31.956,40.833C32.513,41.391 33.175,41.834 33.903,42.136L35.435,38.441ZM34.785,38.006L34.665,37.886L31.836,40.714L31.956,40.834L34.785,38.006ZM34.649,37.87C33.892,37.13 32.931,36.633 31.889,36.444L31.175,40.38C31.431,40.426 31.666,40.548 31.852,40.73L34.649,37.87ZM31.889,36.444C30.847,36.255 29.772,36.383 28.803,36.81L30.418,40.47C30.656,40.365 30.919,40.334 31.175,40.38L31.889,36.444ZM28.823,36.802C27.873,37.209 27.062,37.885 26.492,38.747L29.827,40.955C29.967,40.744 30.165,40.578 30.398,40.478L28.823,36.802ZM26.492,38.747C25.921,39.609 25.615,40.618 25.611,41.652L29.611,41.668C29.612,41.414 29.687,41.167 29.827,40.955L26.492,38.747ZM25.611,41.66L25.611,42L29.611,42L29.611,41.66L25.611,41.66ZM25.611,42C25.611,42.53 25.4,43.039 25.025,43.414L27.853,46.243C28.978,45.117 29.611,43.591 29.611,42L25.611,42ZM25.025,43.414C24.65,43.789 24.141,44 23.611,44L23.611,48C25.202,48 26.728,47.368 27.853,46.243L25.025,43.414ZM23.611,44C23.08,44 22.571,43.789 22.196,43.414L19.368,46.243C20.493,47.368 22.019,48 23.611,48L23.611,44ZM22.196,43.414C21.821,43.039 21.611,42.53 21.611,42L17.611,42C17.611,43.591 18.243,45.117 19.368,46.243L22.196,43.414ZM21.611,42L21.611,41.82L17.611,41.82L17.611,42L21.611,42ZM21.61,41.773C21.585,40.71 21.241,39.679 20.622,38.814L17.369,41.141C17.521,41.353 17.605,41.606 17.611,41.867L21.61,41.773ZM20.622,38.814C20.004,37.949 19.139,37.29 18.141,36.923L16.76,40.677C17.005,40.767 17.217,40.929 17.369,41.141L20.622,38.814ZM18.258,36.97C17.289,36.543 16.215,36.415 15.173,36.604L15.886,40.54C16.142,40.494 16.406,40.525 16.643,40.63L18.258,36.97ZM15.173,36.604C14.131,36.793 13.169,37.29 12.412,38.03L15.209,40.89C15.395,40.708 15.631,40.586 15.886,40.54L15.173,36.604ZM12.396,38.046L12.276,38.166L15.105,40.994L15.225,40.874L12.396,38.046ZM12.276,38.167C12.09,38.353 11.869,38.5 11.627,38.601L13.158,42.296C13.887,41.994 14.548,41.551 15.106,40.993L12.276,38.167ZM11.627,38.601C11.384,38.701 11.124,38.753 10.861,38.753L10.861,42.753C11.649,42.753 12.43,42.598 13.158,42.296L11.627,38.601ZM10.861,38.753C10.598,38.753 10.338,38.701 10.095,38.601L8.563,42.296C9.291,42.598 10.072,42.753 10.861,42.753L10.861,38.753ZM10.095,38.601C9.852,38.5 9.631,38.353 9.446,38.167L6.616,40.993C7.173,41.551 7.835,41.994 8.563,42.296L10.095,38.601ZM9.444,38.165C9.258,37.979 9.111,37.759 9.01,37.516L5.315,39.048C5.617,39.776 6.059,40.438 6.617,40.995L9.444,38.165ZM9.01,37.516C8.909,37.273 8.858,37.013 8.858,36.75L4.858,36.75C4.858,37.538 5.013,38.319 5.315,39.048L9.01,37.516ZM8.858,36.75C8.858,36.487 8.909,36.227 9.01,35.984L5.315,34.452C5.013,35.181 4.858,35.962 4.858,36.75L8.858,36.75ZM9.01,35.984C9.111,35.741 9.258,35.521 9.444,35.335L6.617,32.505C6.059,33.062 5.617,33.724 5.315,34.452L9.01,35.984ZM9.445,35.334L9.565,35.214L6.736,32.386L6.616,32.506L9.445,35.334ZM9.58,35.199C10.321,34.441 10.818,33.48 11.007,32.438L7.071,31.724C7.024,31.98 6.903,32.216 6.721,32.401L9.58,35.199ZM11.007,32.438C11.196,31.396 11.068,30.321 10.64,29.352L6.981,30.968C7.086,31.205 7.117,31.469 7.071,31.724L11.007,32.438ZM10.649,29.372C10.242,28.422 9.566,27.612 8.704,27.041L6.495,30.376C6.707,30.516 6.873,30.715 6.972,30.948L10.649,29.372ZM8.704,27.041C7.842,26.47 6.832,26.164 5.799,26.16L5.783,30.16C6.036,30.161 6.284,30.236 6.495,30.376L8.704,27.041ZM5.791,26.16L5.451,26.16L5.451,30.16L5.791,30.16L5.791,26.16ZM5.451,26.16C4.92,26.16 4.412,25.949 4.036,25.574L1.208,28.403C2.333,29.528 3.859,30.16 5.451,30.16L5.451,26.16ZM4.036,25.574C3.661,25.199 3.451,24.69 3.451,24.16L-0.549,24.16C-0.549,25.751 0.083,27.277 1.208,28.403L4.036,25.574ZM3.451,24.16C3.451,23.63 3.661,23.121 4.036,22.746L1.208,19.917C0.083,21.043 -0.549,22.569 -0.549,24.16L3.451,24.16ZM4.036,22.746C4.412,22.371 4.92,22.16 5.451,22.16L5.451,18.16C3.859,18.16 2.333,18.792 1.208,19.917L4.036,22.746ZM5.451,22.16L5.631,22.16L5.631,18.16L5.451,18.16L5.451,22.16ZM5.677,22.159C6.741,22.135 7.772,21.79 8.637,21.172L6.31,17.918C6.098,18.07 5.845,18.154 5.584,18.161L5.677,22.159ZM8.637,21.172C9.502,20.553 10.161,19.688 10.528,18.69L6.774,17.31C6.684,17.554 6.522,17.767 6.31,17.918L8.637,21.172ZM10.48,18.808C10.908,17.839 11.036,16.764 10.847,15.722L6.911,16.436C6.957,16.691 6.926,16.955 6.821,17.192L10.48,18.808ZM10.847,15.722C10.658,14.68 10.161,13.718 9.42,12.961L6.561,15.759C6.743,15.944 6.864,16.18 6.911,16.436L10.847,15.722ZM9.405,12.946L9.285,12.826L6.456,15.654L6.576,15.774L9.405,12.946ZM9.284,12.825C9.098,12.639 8.951,12.419 8.85,12.176L5.155,13.708C5.457,14.436 5.899,15.098 6.457,15.655L9.284,12.825ZM8.85,12.176C8.749,11.933 8.698,11.673 8.698,11.41L4.698,11.41C4.698,12.199 4.853,12.979 5.155,13.708L8.85,12.176ZM8.698,11.41C8.698,11.147 8.749,10.887 8.85,10.644L5.155,9.112C4.853,9.841 4.698,10.622 4.698,11.41L8.698,11.41ZM8.85,10.644C8.951,10.401 9.098,10.181 9.284,9.995L6.457,7.165C5.899,7.722 5.457,8.384 5.155,9.112L8.85,10.644ZM9.286,9.993C9.471,9.807 9.692,9.66 9.935,9.559L8.403,5.864C7.675,6.166 7.013,6.609 6.456,7.167L9.286,9.993ZM9.935,9.559C10.178,9.459 10.438,9.407 10.701,9.407L10.701,5.407C9.912,5.407 9.131,5.562 8.403,5.864L9.935,9.559ZM10.701,9.407C10.964,9.407 11.224,9.459 11.467,9.559L12.998,5.864C12.27,5.562 11.489,5.407 10.701,5.407L10.701,9.407ZM11.467,9.559C11.709,9.66 11.93,9.807 12.116,9.993L14.946,7.167C14.388,6.609 13.727,6.166 12.998,5.864L11.467,9.559ZM12.116,9.994L12.236,10.114L15.065,7.286L14.945,7.166L12.116,9.994ZM12.252,10.13C13.009,10.87 13.971,11.367 15.013,11.556L15.726,7.62C15.471,7.574 15.235,7.452 15.049,7.27L12.252,10.13ZM15.013,11.556C16.055,11.745 17.129,11.617 18.098,11.19L16.483,7.53C16.246,7.635 15.982,7.666 15.726,7.62L15.013,11.556ZM17.291,11.36L17.451,11.36L17.451,7.36L17.291,7.36L17.291,11.36ZM18.239,11.198C19.189,10.791 19.999,10.115 20.57,9.253L17.235,7.045C17.095,7.256 16.896,7.422 16.663,7.522L18.239,11.198ZM20.57,9.253C21.14,8.391 21.447,7.382 21.451,6.348L17.451,6.332C17.45,6.586 17.375,6.833 17.235,7.045L20.57,9.253ZM21.451,6.34L21.451,6L17.451,6L17.451,6.34L21.451,6.34ZM21.451,6C21.451,5.47 21.661,4.961 22.036,4.586L19.208,1.757C18.083,2.883 17.451,4.409 17.451,6L21.451,6ZM22.036,4.586C22.411,4.211 22.92,4 23.451,4L23.451,0C21.859,0 20.333,0.632 19.208,1.757L22.036,4.586ZM23.451,4C23.981,4 24.49,4.211 24.865,4.586L27.693,1.757C26.568,0.632 25.042,0 23.451,0L23.451,4ZM24.865,4.586C25.24,4.961 25.451,5.47 25.451,6L29.451,6C29.451,4.409 28.818,2.883 27.693,1.757L24.865,4.586ZM25.451,6L25.451,6.18L29.451,6.18L29.451,6L25.451,6ZM25.451,6.188C25.455,7.222 25.761,8.231 26.332,9.093L29.667,6.885C29.527,6.673 29.452,6.426 29.451,6.172L25.451,6.188ZM26.332,9.093C26.902,9.955 27.713,10.631 28.663,11.038L30.238,7.362C30.005,7.262 29.807,7.096 29.667,6.885L26.332,9.093ZM28.643,11.03C29.612,11.457 30.687,11.585 31.729,11.396L31.015,7.46C30.759,7.506 30.496,7.475 30.258,7.37L28.643,11.03ZM31.729,11.396C32.771,11.207 33.732,10.71 34.489,9.97L31.692,7.11C31.506,7.292 31.271,7.414 31.015,7.46L31.729,11.396ZM34.505,9.954L34.625,9.834L31.796,7.006L31.676,7.126L34.505,9.954ZM34.626,9.833C34.811,9.647 35.032,9.5 35.275,9.399L33.743,5.704C33.015,6.006 32.353,6.449 31.796,7.007L34.626,9.833ZM35.275,9.399C35.518,9.299 35.778,9.247 36.041,9.247L36.041,5.247C35.252,5.247 34.471,5.402 33.743,5.704L35.275,9.399ZM36.041,9.247C36.303,9.247 36.564,9.299 36.806,9.399L38.338,5.704C37.61,5.402 36.829,5.247 36.041,5.247L36.041,9.247ZM36.806,9.399C37.049,9.5 37.27,9.647 37.456,9.833L40.286,7.007C39.728,6.449 39.067,6.006 38.338,5.704L36.806,9.399ZM37.457,9.835C37.643,10.021 37.791,10.241 37.891,10.484L41.586,8.952C41.284,8.224 40.842,7.562 40.284,7.005L37.457,9.835ZM37.891,10.484C37.992,10.727 38.044,10.987 38.044,11.25L42.044,11.25C42.044,10.462 41.888,9.681 41.586,8.952L37.891,10.484ZM38.044,11.25C38.044,11.513 37.992,11.773 37.891,12.016L41.586,13.548C41.888,12.819 42.044,12.038 42.044,11.25L38.044,11.25ZM37.891,12.016C37.791,12.259 37.643,12.479 37.457,12.665L40.284,15.495C40.842,14.938 41.284,14.276 41.586,13.548L37.891,12.016ZM37.456,12.666L37.336,12.786L40.165,15.614L40.285,15.494L37.456,12.666ZM37.321,12.801C36.58,13.559 36.084,14.52 35.895,15.562L39.831,16.276C39.877,16.02 39.999,15.784 40.18,15.599L37.321,12.801ZM35.895,15.562C35.706,16.604 35.833,17.679 36.261,18.648L39.92,17.032C39.815,16.795 39.784,16.531 39.831,16.276L35.895,15.562ZM36.091,17.84L36.091,18L40.091,18L40.091,17.84L36.091,17.84ZM36.252,18.788C36.66,19.738 37.336,20.548 38.197,21.119L40.406,17.784C40.195,17.644 40.029,17.445 39.929,17.212L36.252,18.788ZM38.197,21.119C39.059,21.69 40.069,21.996 41.103,22L41.119,18C40.865,17.999 40.617,17.924 40.406,17.784L38.197,21.119ZM41.111,22L41.451,22L41.451,18L41.111,18L41.111,22ZM41.451,22C41.981,22 42.49,22.211 42.865,22.586L45.693,19.757C44.568,18.632 43.042,18 41.451,18L41.451,22ZM42.865,22.586C43.24,22.961 43.451,23.47 43.451,24L47.451,24C47.451,22.409 46.818,20.883 45.693,19.757L42.865,22.586ZM43.451,24C43.451,24.53 43.24,25.039 42.865,25.414L45.693,28.243C46.818,27.117 47.451,25.591 47.451,24L43.451,24ZM42.865,25.414C42.49,25.789 41.981,26 41.451,26L41.451,30C43.042,30 44.568,29.368 45.693,28.243L42.865,25.414ZM41.451,26L41.271,26L41.271,30L41.451,30L41.451,26ZM41.263,26C40.229,26.004 39.219,26.31 38.357,26.881L40.566,30.216C40.777,30.076 41.025,30.001 41.279,30L41.263,26ZM38.357,26.881C37.496,27.452 36.82,28.262 36.412,29.212L40.089,30.788C40.189,30.555 40.355,30.356 40.566,30.216L38.357,26.881Z" fill="#4D7CFE"/>
</svg>
