<svg width="48" height="48" viewBox="0 0 48 48" fill="none" xmlns="http://www.w3.org/2000/svg" xmlns:xlink="http://www.w3.org/1999/xlink">
<mask id="mask_0_17_2986" style="mask-type:alpha" maskUnits="userSpaceOnUse" x="0" y="0" width="24" height="24">
<rect  x="0" y="0" width="48" height="48" fill="#D9D9D9"/>
</mask>
<g mask="url(#mask_0_17_2986)">
<path d="M24,27C22.6,27 21.417,26.517 20.45,25.55C19.483,24.583 19,23.4 19,22L19,10C19,8.6 19.483,7.417 20.45,6.45C21.417,5.483 22.6,5 24,5C25.4,5 26.583,5.483 27.55,6.45C28.517,7.417 29,8.6 29,10L29,22C29,23.4 28.517,24.583 27.55,25.55C26.583,26.517 25.4,27 24,27ZM22.5,41.5L22.5,34.9C19.2,34.533 16.459,33.125 14.276,30.676C12.092,28.225 11,25.333 11,22L14,22C14,24.767 14.975,27.125 16.926,29.074C18.875,31.025 21.233,32 24,32C26.767,32 29.125,31.025 31.076,29.074C33.025,27.125 34,24.767 34,22L37,22C37,25.333 35.909,28.225 33.726,30.676C31.542,33.125 28.8,34.533 25.5,34.9L25.5,41.5L22.5,41.5ZM24,24C24.567,24 25.042,23.808 25.426,23.424C25.809,23.041 26,22.567 26,22L26,10C26,9.433 25.809,8.958 25.426,8.574C25.042,8.191 24.567,8 24,8C23.433,8 22.959,8.191 22.576,8.574C22.192,8.958 22,9.433 22,10L22,22C22,22.567 22.192,23.041 22.576,23.424C22.959,23.808 23.433,24 24,24Z" fill="#FFFFFF"/>
</g>
</svg>
