<svg width="48" height="48" viewBox="0 0 48 48" fill="none" xmlns="http://www.w3.org/2000/svg" xmlns:xlink="http://www.w3.org/1999/xlink">
<mask id="mask_0_17_3058" style="mask-type:alpha" maskUnits="userSpaceOnUse" x="0" y="0" width="24" height="24">
<rect  x="0" y="0" width="48" height="48" fill="#D9D9D9"/>
</mask>
<g mask="url(#mask_0_17_3058)">
<path d="M24,39.715C23.167,39.715 22.459,39.418 21.876,38.825C21.292,38.233 21,37.514 21,36.668C21,35.822 21.292,35.102 21.876,34.509C22.459,33.917 23.167,33.621 24,33.621C24.833,33.621 25.541,33.917 26.124,34.509C26.708,35.102 27,35.822 27,36.668C27,37.514 26.708,38.233 26.124,38.825C25.541,39.418 24.833,39.715 24,39.715ZM24,27.984C23.167,27.984 22.459,27.688 21.876,27.095C21.292,26.503 21,25.784 21,24.937C21,24.091 21.292,23.372 21.876,22.78C22.459,22.187 23.167,21.891 24,21.891C24.833,21.891 25.541,22.187 26.124,22.78C26.708,23.372 27,24.091 27,24.937C27,25.784 26.708,26.503 26.124,27.095C25.541,27.688 24.833,27.984 24,27.984ZM24,16.254C23.167,16.254 22.459,15.957 21.876,15.364C21.292,14.772 21,14.053 21,13.207C21,12.361 21.292,11.641 21.876,11.048C22.459,10.456 23.167,10.16 24,10.16C24.833,10.16 25.541,10.456 26.124,11.048C26.708,11.641 27,12.361 27,13.207C27,14.053 26.708,14.772 26.124,15.364C25.541,15.957 24.833,16.254 24,16.254Z" fill="#FFFFFF"/>
</g>
</svg>
