<svg width="48" height="48" viewBox="0 0 48 48" fill="none" xmlns="http://www.w3.org/2000/svg" xmlns:xlink="http://www.w3.org/1999/xlink">
<mask id="mask_0_17_2989" style="mask-type:alpha" maskUnits="userSpaceOnUse" x="0" y="0" width="24" height="24">
<rect  x="0" y="0" width="48" height="48" fill="#D9D9D9"/>
</mask>
<g mask="url(#mask_0_17_2989)">
<path d="M24,34.25C26.3,34.25 28.25,33.45 29.85,31.85C31.45,30.25 32.25,28.3 32.25,26C32.25,23.7 31.45,21.75 29.85,20.15C28.25,18.55 26.3,17.75 24,17.75C21.7,17.75 19.75,18.55 18.15,20.15C16.55,21.75 15.75,23.7 15.75,26C15.75,28.3 16.55,30.25 18.15,31.85C19.75,33.45 21.7,34.25 24,34.25ZM24,31.25C22.533,31.25 21.291,30.742 20.274,29.726C19.258,28.709 18.75,27.467 18.75,26C18.75,24.533 19.258,23.291 20.274,22.274C21.291,21.258 22.533,20.75 24,20.75C25.467,20.75 26.709,21.258 27.726,22.274C28.742,23.291 29.25,24.533 29.25,26C29.25,27.467 28.742,28.709 27.726,29.726C26.709,30.742 25.467,31.25 24,31.25ZM8.6,41C7.6,41 6.75,40.65 6.05,39.95C5.35,39.25 5,38.4 5,37.4L5,14.6C5,13.6 5.35,12.75 6.05,12.05C6.75,11.35 7.6,11 8.6,11L14.7,11L18.4,7L29.6,7L33.3,11L39.4,11C40.4,11 41.25,11.35 41.95,12.05C42.65,12.75 43,13.6 43,14.6L43,37.4C43,38.4 42.65,39.25 41.95,39.95C41.25,40.65 40.4,41 39.4,41L8.6,41ZM39.4,38C39.567,38 39.709,37.942 39.826,37.826C39.942,37.709 40,37.567 40,37.4L40,14.6C40,14.433 39.942,14.292 39.826,14.176C39.709,14.059 39.567,14 39.4,14L31.95,14L28.25,10L19.75,10L16.05,14L8.6,14C8.433,14 8.292,14.059 8.176,14.176C8.059,14.292 8,14.433 8,14.6L8,37.4C8,37.567 8.059,37.709 8.176,37.826C8.292,37.942 8.433,38 8.6,38L39.4,38Z" fill="#FFFFFF"/>
</g>
</svg>
