<svg width="48" height="50" viewBox="0 0 48 50" fill="none" xmlns="http://www.w3.org/2000/svg" xmlns:xlink="http://www.w3.org/1999/xlink">
<path d="M16,14.535L14.5,14.535L16,14.535ZM24,22.535L24,24.035L24,22.535ZM32,14.535L33.5,14.535L32,14.535ZM24,6.535L24,5.035L24,6.535ZM14.5,14.535C14.5,17.055 15.501,19.471 17.282,21.253L19.404,19.131C18.185,17.912 17.5,16.259 17.5,14.535L14.5,14.535ZM17.282,21.253C19.064,23.034 21.48,24.035 24,24.035L24,21.035C22.276,21.035 20.623,20.35 19.404,19.131L17.282,21.253ZM24,24.035C26.52,24.035 28.936,23.034 30.718,21.253L28.596,19.131C27.377,20.35 25.724,21.035 24,21.035L24,24.035ZM30.718,21.253C32.499,19.471 33.5,17.055 33.5,14.535L30.5,14.535C30.5,16.259 29.815,17.912 28.596,19.131L30.718,21.253ZM33.5,14.535C33.5,12.015 32.499,9.599 30.718,7.818L28.596,9.939C29.815,11.158 30.5,12.811 30.5,14.535L33.5,14.535ZM30.718,7.818C28.936,6.036 26.52,5.035 24,5.035L24,8.035C25.724,8.035 27.377,8.72 28.596,9.939L30.718,7.818ZM24,5.035C21.48,5.035 19.064,6.036 17.282,7.818L19.404,9.939C20.623,8.72 22.276,8.035 24,8.035L24,5.035ZM17.282,7.818C15.501,9.599 14.5,12.015 14.5,14.535L17.5,14.535C17.5,12.811 18.185,11.158 19.404,9.939L17.282,7.818Z" fill="#98A9BC"/>
<line x1="32" y1="37.035" x2="44" y2="37.035" stroke="#98A9BC" stroke-width="1.5" stroke-miterlimit="3.999327" stroke-linecap="round" stroke-linejoin="round"/>
<line x1="36.5" y1="32.535" x2="36.5" y2="44.535" stroke="#98A9BC" stroke-width="1.5" stroke-miterlimit="3.999327" stroke-linecap="round" stroke-linejoin="round"/>
<path d="M10.5,42.535C10.5,43.363 11.172,44.035 12,44.035C12.828,44.035 13.5,43.363 13.5,42.535L10.5,42.535ZM20,30.535L20,29.035L20,30.535ZM28,32.035C28.828,32.035 29.5,31.363 29.5,30.535C29.5,29.707 28.828,29.035 28,29.035L28,32.035ZM13.5,42.535L13.5,38.535L10.5,38.535L10.5,42.535L13.5,42.535ZM13.5,38.535C13.5,36.811 14.185,35.158 15.404,33.939L13.282,31.818C11.501,33.599 10.5,36.015 10.5,38.535L13.5,38.535ZM15.404,33.939C16.623,32.72 18.276,32.035 20,32.035L20,29.035C17.48,29.035 15.064,30.036 13.282,31.818L15.404,33.939ZM20,32.035L28,32.035L28,29.035L20,29.035L20,32.035Z" fill="#98A9BC"/>
</svg>
