<svg width="48" height="50" viewBox="0 0 48 50" fill="none" xmlns="http://www.w3.org/2000/svg" xmlns:xlink="http://www.w3.org/1999/xlink">
<path d="M16,14.45L14.5,14.45L16,14.45ZM24,22.45L24,23.95L24,22.45ZM32,14.45L33.5,14.45L32,14.45ZM24,6.45L24,4.95L24,6.45ZM14.5,14.45C14.5,16.97 15.501,19.386 17.282,21.168L19.404,19.046C18.185,17.827 17.5,16.174 17.5,14.45L14.5,14.45ZM17.282,21.168C19.064,22.949 21.48,23.95 24,23.95L24,20.95C22.276,20.95 20.623,20.265 19.404,19.046L17.282,21.168ZM24,23.95C26.52,23.95 28.936,22.949 30.718,21.168L28.596,19.046C27.377,20.265 25.724,20.95 24,20.95L24,23.95ZM30.718,21.168C32.499,19.386 33.5,16.97 33.5,14.45L30.5,14.45C30.5,16.174 29.815,17.827 28.596,19.046L30.718,21.168ZM33.5,14.45C33.5,11.931 32.499,9.514 30.718,7.733L28.596,9.854C29.815,11.073 30.5,12.726 30.5,14.45L33.5,14.45ZM30.718,7.733C28.936,5.951 26.52,4.95 24,4.95L24,7.95C25.724,7.95 27.377,8.635 28.596,9.854L30.718,7.733ZM24,4.95C21.48,4.95 19.064,5.951 17.282,7.733L19.404,9.854C20.623,8.635 22.276,7.95 24,7.95L24,4.95ZM17.282,7.733C15.501,9.514 14.5,11.931 14.5,14.45L17.5,14.45C17.5,12.726 18.185,11.073 19.404,9.854L17.282,7.733Z" fill="#98A9BC"/>
<line x1="32" y1="36.95" x2="44" y2="36.95" stroke="#98A9BC" stroke-width="1.5" stroke-miterlimit="3.999327" stroke-linecap="round" stroke-linejoin="round"/>
<line x1="36.5" y1="32.45" x2="36.5" y2="44.45" stroke="#98A9BC" stroke-width="1.5" stroke-miterlimit="3.999327" stroke-linecap="round" stroke-linejoin="round"/>
<path d="M10.5,42.45C10.5,43.279 11.172,43.95 12,43.95C12.828,43.95 13.5,43.279 13.5,42.45L10.5,42.45ZM20,30.45L20,28.95L20,30.45ZM28,31.95C28.828,31.95 29.5,31.279 29.5,30.45C29.5,29.622 28.828,28.95 28,28.95L28,31.95ZM13.5,42.45L13.5,38.45L10.5,38.45L10.5,42.45L13.5,42.45ZM13.5,38.45C13.5,36.726 14.185,35.073 15.404,33.854L13.282,31.733C11.501,33.514 10.5,35.931 10.5,38.45L13.5,38.45ZM15.404,33.854C16.623,32.635 18.276,31.95 20,31.95L20,28.95C17.48,28.95 15.064,29.951 13.282,31.733L15.404,33.854ZM20,31.95L28,31.95L28,28.95L20,28.95L20,31.95Z" fill="#98A9BC"/>
</svg>
