<svg width="48" height="50" viewBox="0 0 48 50" fill="none" xmlns="http://www.w3.org/2000/svg" xmlns:xlink="http://www.w3.org/1999/xlink">
<path d="M16,14.608L14.5,14.608L16,14.608ZM24,22.608L24,24.108L24,22.608ZM32,14.608L33.5,14.608L32,14.608ZM24,6.608L24,5.108L24,6.608ZM14.5,14.608C14.5,17.128 15.501,19.544 17.282,21.326L19.404,19.204C18.185,17.985 17.5,16.332 17.5,14.608L14.5,14.608ZM17.282,21.326C19.064,23.107 21.48,24.108 24,24.108L24,21.108C22.276,21.108 20.623,20.423 19.404,19.204L17.282,21.326ZM24,24.108C26.52,24.108 28.936,23.107 30.718,21.326L28.596,19.204C27.377,20.423 25.724,21.108 24,21.108L24,24.108ZM30.718,21.326C32.499,19.544 33.5,17.128 33.5,14.608L30.5,14.608C30.5,16.332 29.815,17.985 28.596,19.204L30.718,21.326ZM33.5,14.608C33.5,12.089 32.499,9.672 30.718,7.891L28.596,10.012C29.815,11.231 30.5,12.884 30.5,14.608L33.5,14.608ZM30.718,7.891C28.936,6.109 26.52,5.108 24,5.108L24,8.108C25.724,8.108 27.377,8.793 28.596,10.012L30.718,7.891ZM24,5.108C21.48,5.108 19.064,6.109 17.282,7.891L19.404,10.012C20.623,8.793 22.276,8.108 24,8.108L24,5.108ZM17.282,7.891C15.501,9.672 14.5,12.089 14.5,14.608L17.5,14.608C17.5,12.884 18.185,11.231 19.404,10.012L17.282,7.891Z" fill="#98A9BC"/>
<line x1="32" y1="37.108" x2="44" y2="37.108" stroke="#98A9BC" stroke-width="1.5" stroke-miterlimit="3.999327" stroke-linecap="round" stroke-linejoin="round"/>
<line x1="36.5" y1="32.608" x2="36.5" y2="44.608" stroke="#98A9BC" stroke-width="1.5" stroke-miterlimit="3.999327" stroke-linecap="round" stroke-linejoin="round"/>
<path d="M10.5,42.608C10.5,43.437 11.172,44.108 12,44.108C12.828,44.108 13.5,43.437 13.5,42.608L10.5,42.608ZM20,30.608L20,29.108L20,30.608ZM28,32.108C28.828,32.108 29.5,31.437 29.5,30.608C29.5,29.78 28.828,29.108 28,29.108L28,32.108ZM13.5,42.608L13.5,38.608L10.5,38.608L10.5,42.608L13.5,42.608ZM13.5,38.608C13.5,36.884 14.185,35.231 15.404,34.012L13.282,31.891C11.501,33.672 10.5,36.089 10.5,38.608L13.5,38.608ZM15.404,34.012C16.623,32.793 18.276,32.108 20,32.108L20,29.108C17.48,29.108 15.064,30.109 13.282,31.891L15.404,34.012ZM20,32.108L28,32.108L28,29.108L20,29.108L20,32.108Z" fill="#98A9BC"/>
</svg>
