<svg width="48" height="48" viewBox="0 0 48 48" fill="none" xmlns="http://www.w3.org/2000/svg" xmlns:xlink="http://www.w3.org/1999/xlink">
<path d="M16,14L14.5,14L16,14ZM24,22L24,23.5L24,22ZM32,14L33.5,14L32,14ZM24,6L24,4.5L24,6ZM14.5,14C14.5,16.52 15.501,18.936 17.282,20.718L19.404,18.596C18.185,17.377 17.5,15.724 17.5,14L14.5,14ZM17.282,20.718C19.064,22.499 21.48,23.5 24,23.5L24,20.5C22.276,20.5 20.623,19.815 19.404,18.596L17.282,20.718ZM24,23.5C26.52,23.5 28.936,22.499 30.718,20.718L28.596,18.596C27.377,19.815 25.724,20.5 24,20.5L24,23.5ZM30.718,20.718C32.499,18.936 33.5,16.52 33.5,14L30.5,14C30.5,15.724 29.815,17.377 28.596,18.596L30.718,20.718ZM33.5,14C33.5,11.48 32.499,9.064 30.718,7.282L28.596,9.404C29.815,10.623 30.5,12.276 30.5,14L33.5,14ZM30.718,7.282C28.936,5.501 26.52,4.5 24,4.5L24,7.5C25.724,7.5 27.377,8.185 28.596,9.404L30.718,7.282ZM24,4.5C21.48,4.5 19.064,5.501 17.282,7.282L19.404,9.404C20.623,8.185 22.276,7.5 24,7.5L24,4.5ZM17.282,7.282C15.501,9.064 14.5,11.48 14.5,14L17.5,14C17.5,12.276 18.185,10.623 19.404,9.404L17.282,7.282Z" fill="#000000"/>
<line x1="32" y1="36.5" x2="44" y2="36.5" stroke="#000000" stroke-width="1.5" stroke-miterlimit="3.999327" stroke-linecap="round" stroke-linejoin="round"/>
<line x1="36.5" y1="32" x2="36.5" y2="44" stroke="#000000" stroke-width="1.5" stroke-miterlimit="3.999327" stroke-linecap="round" stroke-linejoin="round"/>
<path d="M10.5,42C10.5,42.828 11.172,43.5 12,43.5C12.828,43.5 13.5,42.828 13.5,42L10.5,42ZM20,30L20,28.5L20,30ZM28,31.5C28.828,31.5 29.5,30.828 29.5,30C29.5,29.172 28.828,28.5 28,28.5L28,31.5ZM13.5,42L13.5,38L10.5,38L10.5,42L13.5,42ZM13.5,38C13.5,36.276 14.185,34.623 15.404,33.404L13.282,31.282C11.501,33.064 10.5,35.48 10.5,38L13.5,38ZM15.404,33.404C16.623,32.185 18.276,31.5 20,31.5L20,28.5C17.48,28.5 15.064,29.501 13.282,31.282L15.404,33.404ZM20,31.5L28,31.5L28,28.5L20,28.5L20,31.5Z" fill="#000000"/>
</svg>
