<svg width="46" height="40" viewBox="0 0 46 40" fill="none" xmlns="http://www.w3.org/2000/svg" xmlns:xlink="http://www.w3.org/1999/xlink">
<path d="M15.333,11.667L13.833,11.667L15.333,11.667ZM23,18.333L23,19.833L23,18.333ZM30.667,11.667L32.167,11.667L30.667,11.667ZM23,5L23,3.5L23,5ZM13.833,11.667C13.833,13.906 14.858,16.003 16.595,17.513L18.563,15.249C17.424,14.258 16.833,12.964 16.833,11.667L13.833,11.667ZM16.595,17.513C18.325,19.017 20.631,19.833 23,19.833L23,16.833C21.302,16.833 19.709,16.245 18.563,15.249L16.595,17.513ZM23,19.833C25.369,19.833 27.676,19.017 29.406,17.513L27.437,15.249C26.291,16.245 24.698,16.833 23,16.833L23,19.833ZM29.406,17.513C31.142,16.003 32.167,13.906 32.167,11.667L29.167,11.667C29.167,12.964 28.576,14.258 27.437,15.249L29.406,17.513ZM32.167,11.667C32.167,9.428 31.142,7.331 29.406,5.821L27.437,8.085C28.576,9.075 29.167,10.369 29.167,11.667L32.167,11.667ZM29.406,5.821C27.676,4.316 25.369,3.5 23,3.5L23,6.5C24.698,6.5 26.291,7.088 27.437,8.085L29.406,5.821ZM23,3.5C20.631,3.5 18.325,4.316 16.595,5.821L18.563,8.085C19.709,7.088 21.302,6.5 23,6.5L23,3.5ZM16.595,5.821C14.858,7.331 13.833,9.428 13.833,11.667L16.833,11.667C16.833,10.369 17.424,9.075 18.563,8.085L16.595,5.821Z" fill="#778CA2"/>
<path d="M10,35C10,35.828 10.672,36.5 11.5,36.5C12.328,36.5 13,35.828 13,35L10,35ZM19.167,25L19.167,23.5L19.167,25ZM28.44,26.677C29.249,26.858 30.051,26.349 30.231,25.54C30.412,24.732 29.903,23.93 29.094,23.749L28.44,26.677ZM13,35L13,31.667L10,31.667L10,35L13,35ZM13,31.667C13,30.369 13.591,29.075 14.73,28.085L12.761,25.821C11.025,27.331 10,29.428 10,31.667L13,31.667ZM14.73,28.085C15.875,27.088 17.469,26.5 19.167,26.5L19.167,23.5C16.798,23.5 14.491,24.316 12.761,25.821L14.73,28.085ZM19.167,26.5L26.833,26.5L26.833,23.5L19.167,23.5L19.167,26.5ZM26.833,26.5C27.388,26.5 27.926,26.562 28.44,26.677L29.094,23.749C28.37,23.588 27.613,23.5 26.833,23.5L26.833,26.5Z" fill="#778CA2"/>
<line x1="30.667" y1="30.167" x2="42.167" y2="30.167" stroke="#778CA2" stroke-width="1.5" stroke-miterlimit="3.999327" stroke-linecap="round" stroke-linejoin="round"/>
</svg>
