<svg width="22" height="12" viewBox="0 0 22 12" fill="none" xmlns="http://www.w3.org/2000/svg" xmlns:xlink="http://www.w3.org/1999/xlink">
<path d="M10.886,12C10.684,12 10.499,11.966 10.331,11.899C10.163,11.832 10.012,11.714 9.878,11.546L0.302,1.971C0.101,1.769 0,1.501 0,1.165C0,0.829 0.101,0.56 0.302,0.358C0.571,0.09 0.848,-0.028 1.134,0.006C1.42,0.039 1.68,0.157 1.915,0.358L10.886,9.329L19.856,0.358C20.058,0.157 20.327,0.048 20.663,0.031C20.999,0.014 21.267,0.123 21.469,0.358C21.738,0.594 21.855,0.871 21.822,1.19C21.788,1.509 21.671,1.786 21.469,2.021L11.894,11.546C11.759,11.714 11.608,11.832 11.44,11.899C11.272,11.966 11.087,12 10.886,12L10.886,12Z" stroke="#000000" stroke-width="3" stroke-miterlimit="3.999327"/>
</svg>
