<svg width="32" height="28" viewBox="0 0 32 28" fill="none" xmlns="http://www.w3.org/2000/svg" xmlns:xlink="http://www.w3.org/1999/xlink">
<path d="M28.961,2L30.109,2.967C30.485,2.52 30.568,1.897 30.321,1.368C30.075,0.839 29.545,0.5 28.961,0.5L28.961,2ZM2.406,2L2.406,0.5C1.822,0.5 1.292,0.839 1.046,1.368C0.8,1.897 0.883,2.52 1.258,2.967L2.406,2ZM13.028,14.614L14.528,14.614C14.528,14.26 14.403,13.918 14.175,13.648L13.028,14.614ZM13.028,23.334L11.528,23.334C11.528,23.901 11.848,24.42 12.355,24.674L13.028,23.334ZM18.339,26L17.666,27.341C18.131,27.574 18.684,27.55 19.127,27.277C19.569,27.004 19.839,26.521 19.839,26L18.339,26ZM18.339,14.614L17.192,13.648C16.964,13.918 16.839,14.26 16.839,14.614L18.339,14.614ZM28.961,0.5L2.406,0.5L2.406,3.5L28.961,3.5L28.961,0.5ZM1.258,2.967L11.881,15.58L14.175,13.648L3.553,1.034L1.258,2.967ZM11.528,14.614L11.528,23.334L14.528,23.334L14.528,14.614L11.528,14.614ZM12.355,24.674L17.666,27.341L19.012,24.66L13.701,21.993L12.355,24.674ZM19.839,26L19.839,14.614L16.839,14.614L16.839,26L19.839,26ZM19.486,15.58L30.109,2.967L27.814,1.034L17.192,13.648L19.486,15.58Z" fill="#98A9BC"/>
</svg>
