<svg width="18" height="12" viewBox="0 0 18 12" fill="none" xmlns="http://www.w3.org/2000/svg" xmlns:xlink="http://www.w3.org/1999/xlink">
<path d="M13.555,10.077C14.334,10.86 15.601,10.863 16.384,10.084C17.166,9.305 17.169,8.039 16.39,7.256L13.555,10.077ZM8.337,2L9.755,0.589C9.379,0.212 8.869,0 8.337,0C7.805,0 7.295,0.212 6.92,0.589L8.337,2ZM0.284,7.256C-0.495,8.039 -0.492,9.305 0.291,10.084C1.074,10.863 2.34,10.86 3.119,10.077L0.284,7.256ZM16.39,7.256L9.755,0.589L6.92,3.411L13.555,10.077L16.39,7.256ZM6.92,0.589L0.284,7.256L3.119,10.077L9.755,3.411L6.92,0.589Z" transform="rotate(-360 8.337 5.333)" fill="#98A9BC"/>
</svg>
