<svg width="32" height="28" viewBox="0 0 32 28" fill="none" xmlns="http://www.w3.org/2000/svg" xmlns:xlink="http://www.w3.org/1999/xlink">
<path d="M28.961,2L30.109,2.966C30.485,2.52 30.568,1.896 30.321,1.367C30.075,0.838 29.545,0.5 28.961,0.5L28.961,2ZM2.406,2L2.406,0.5C1.822,0.5 1.292,0.838 1.046,1.367C0.8,1.896 0.883,2.52 1.258,2.966L2.406,2ZM13.028,14.613L14.528,14.613C14.528,14.26 14.403,13.918 14.175,13.647L13.028,14.613ZM13.028,23.334L11.528,23.334C11.528,23.901 11.848,24.42 12.355,24.674L13.028,23.334ZM18.339,26L17.666,27.341C18.131,27.574 18.684,27.55 19.127,27.277C19.569,27.004 19.839,26.521 19.839,26L18.339,26ZM18.339,14.613L17.192,13.647C16.964,13.918 16.839,14.26 16.839,14.613L18.339,14.613ZM28.961,0.5L2.406,0.5L2.406,3.5L28.961,3.5L28.961,0.5ZM1.258,2.966L11.881,15.58L14.175,13.647L3.553,1.034L1.258,2.966ZM11.528,14.613L11.528,23.334L14.528,23.334L14.528,14.613L11.528,14.613ZM12.355,24.674L17.666,27.341L19.012,24.66L13.701,21.993L12.355,24.674ZM19.839,26L19.839,14.613L16.839,14.613L16.839,26L19.839,26ZM19.486,15.58L30.109,2.966L27.814,1.034L17.192,13.647L19.486,15.58Z" fill="#98A9BC"/>
</svg>
