<svg width="18" height="12" viewBox="0 0 18 12" fill="none" xmlns="http://www.w3.org/2000/svg" xmlns:xlink="http://www.w3.org/1999/xlink">
<path d="M12.921,10.851C13.7,11.634 14.966,11.637 15.749,10.859C16.533,10.08 16.536,8.813 15.757,8.03L12.921,10.851ZM7.679,2.744L9.097,1.334C8.722,0.956 8.212,0.744 7.679,0.744C7.147,0.744 6.637,0.956 6.261,1.334L7.679,2.744ZM-0.399,8.03C-1.177,8.813 -1.174,10.08 -0.391,10.859C0.392,11.637 1.659,11.634 2.438,10.851L-0.399,8.03ZM15.757,8.03L9.097,1.334L6.261,4.154L12.921,10.851L15.757,8.03ZM6.261,1.334L-0.399,8.03L2.438,10.851L9.097,4.154L6.261,1.334Z" fill="#98A9BC"/>
</svg>
