<svg width="44" height="44" viewBox="0 0 44 44" fill="none" xmlns="http://www.w3.org/2000/svg" xmlns:xlink="http://www.w3.org/1999/xlink">
<path d="M32,3.164L30.586,1.749L32,3.164ZM36,1.507L36,-0.493L36,1.507ZM41.657,7.164L43.657,7.164L41.657,7.164ZM40,11.164L41.414,12.578L41.414,12.578L40,11.164ZM13,38.164L13.526,40.093C13.862,40.002 14.168,39.824 14.414,39.578L13,38.164ZM2,41.164L0.07,40.637C-0.118,41.33 0.078,42.07 0.586,42.578C1.093,43.085 1.834,43.282 2.526,43.093L2,41.164ZM5,30.164L3.586,28.749C3.34,28.996 3.162,29.302 3.07,29.637L5,30.164ZM33.414,4.578C33.754,4.238 34.157,3.969 34.601,3.785L33.07,0.09C32.141,0.474 31.297,1.038 30.586,1.749L33.414,4.578ZM34.601,3.785C35.044,3.601 35.52,3.507 36,3.507L36,-0.493C34.994,-0.493 33.999,-0.295 33.07,0.09L34.601,3.785ZM36,3.507C36.48,3.507 36.956,3.601 37.399,3.785L38.93,0.09C38.001,-0.295 37.006,-0.493 36,-0.493L36,3.507ZM37.399,3.785C37.843,3.969 38.246,4.238 38.586,4.578L41.414,1.749C40.703,1.038 39.859,0.474 38.93,0.09L37.399,3.785ZM38.586,4.578C38.925,4.917 39.195,5.321 39.378,5.764L43.074,4.234C42.689,3.305 42.125,2.46 41.414,1.749L38.586,4.578ZM39.378,5.764C39.562,6.208 39.657,6.683 39.657,7.164L43.657,7.164C43.657,6.158 43.459,5.163 43.074,4.234L39.378,5.764ZM39.657,7.164C39.657,7.644 39.562,8.119 39.378,8.563L43.074,10.094C43.459,9.165 43.657,8.169 43.657,7.164L39.657,7.164ZM39.378,8.563C39.195,9.007 38.925,9.41 38.586,9.749L41.414,12.578C42.125,11.867 42.689,11.023 43.074,10.094L39.378,8.563ZM38.586,9.749L11.586,36.749L14.414,39.578L41.414,12.578L38.586,9.749ZM12.474,36.234L1.474,39.234L2.526,43.093L13.526,40.093L12.474,36.234ZM3.93,41.69L6.93,30.69L3.07,29.637L0.07,40.637L3.93,41.69ZM6.414,31.578L33.414,4.578L30.586,1.749L3.586,28.749L6.414,31.578Z" fill="#98A9BC"/>
</svg>
