<svg width="44" height="44" viewBox="0 0 44 44" fill="none" xmlns="http://www.w3.org/2000/svg" xmlns:xlink="http://www.w3.org/1999/xlink">
<path d="M32,4L30.586,2.585L32,4ZM36,2.343L36,0.343L36,2.343ZM41.657,8L43.657,8L41.657,8ZM40,12L41.414,13.414L41.414,13.414L40,12ZM13,39L13.526,40.929C13.862,40.838 14.168,40.66 14.414,40.414L13,39ZM2,42L0.07,41.473C-0.118,42.166 0.078,42.906 0.586,43.414C1.093,43.921 1.834,44.118 2.526,43.929L2,42ZM5,31L3.586,29.585C3.34,29.832 3.162,30.138 3.07,30.473L5,31ZM33.414,5.414C33.754,5.074 34.157,4.805 34.601,4.621L33.07,0.926C32.141,1.31 31.297,1.874 30.586,2.585L33.414,5.414ZM34.601,4.621C35.044,4.437 35.52,4.343 36,4.343L36,0.343C34.994,0.343 33.999,0.541 33.07,0.926L34.601,4.621ZM36,4.343C36.48,4.343 36.956,4.437 37.399,4.621L38.93,0.926C38.001,0.541 37.006,0.343 36,0.343L36,4.343ZM37.399,4.621C37.843,4.805 38.246,5.074 38.586,5.414L41.414,2.585C40.703,1.874 39.859,1.31 38.93,0.926L37.399,4.621ZM38.586,5.414C38.925,5.753 39.195,6.157 39.378,6.6L43.074,5.069C42.689,4.141 42.125,3.296 41.414,2.585L38.586,5.414ZM39.378,6.6C39.562,7.044 39.657,7.519 39.657,8L43.657,8C43.657,6.994 43.459,5.998 43.074,5.069L39.378,6.6ZM39.657,8C39.657,8.48 39.562,8.955 39.378,9.399L43.074,10.93C43.459,10.001 43.657,9.005 43.657,8L39.657,8ZM39.378,9.399C39.195,9.843 38.925,10.246 38.586,10.585L41.414,13.414C42.125,12.703 42.689,11.859 43.074,10.93L39.378,9.399ZM38.586,10.585L11.586,37.585L14.414,40.414L41.414,13.414L38.586,10.585ZM12.474,37.07L1.474,40.07L2.526,43.929L13.526,40.929L12.474,37.07ZM3.93,42.526L6.93,31.526L3.07,30.473L0.07,41.473L3.93,42.526ZM6.414,32.414L33.414,5.414L30.586,2.585L3.586,29.585L6.414,32.414Z" fill="#98A9BC"/>
</svg>
