<svg width="44" height="44" viewBox="0 0 44 44" fill="none" xmlns="http://www.w3.org/2000/svg" xmlns:xlink="http://www.w3.org/1999/xlink">
<path d="M32,4L30.586,2.586L32,4ZM36,2.343L36,0.343L36,2.343ZM41.657,8L43.657,8L41.657,8ZM40,12L41.414,13.414L41.414,13.414L40,12ZM13,39L13.526,40.93C13.862,40.838 14.168,40.66 14.414,40.414L13,39ZM2,42L0.07,41.474C-0.118,42.166 0.078,42.907 0.586,43.414C1.093,43.922 1.834,44.118 2.526,43.93L2,42ZM5,31L3.586,29.586C3.34,29.832 3.162,30.138 3.07,30.474L5,31ZM33.414,5.414C33.754,5.075 34.157,4.805 34.601,4.622L33.07,0.926C32.141,1.311 31.297,1.875 30.586,2.586L33.414,5.414ZM34.601,4.622C35.044,4.438 35.52,4.343 36,4.343L36,0.343C34.994,0.343 33.999,0.541 33.07,0.926L34.601,4.622ZM36,4.343C36.48,4.343 36.956,4.438 37.399,4.622L38.93,0.926C38.001,0.541 37.006,0.343 36,0.343L36,4.343ZM37.399,4.622C37.843,4.805 38.246,5.075 38.586,5.414L41.414,2.586C40.703,1.875 39.859,1.311 38.93,0.926L37.399,4.622ZM38.586,5.414C38.925,5.754 39.195,6.157 39.378,6.601L43.074,5.07C42.689,4.141 42.125,3.297 41.414,2.586L38.586,5.414ZM39.378,6.601C39.562,7.044 39.657,7.52 39.657,8L43.657,8C43.657,6.995 43.459,5.999 43.074,5.07L39.378,6.601ZM39.657,8C39.657,8.48 39.562,8.956 39.378,9.4L43.074,10.93C43.459,10.001 43.657,9.006 43.657,8L39.657,8ZM39.378,9.4C39.195,9.843 38.925,10.246 38.586,10.586L41.414,13.414C42.125,12.703 42.689,11.859 43.074,10.93L39.378,9.4ZM38.586,10.586L11.586,37.586L14.414,40.414L41.414,13.414L38.586,10.586ZM12.474,37.071L1.474,40.071L2.526,43.93L13.526,40.93L12.474,37.071ZM3.93,42.526L6.93,31.526L3.07,30.474L0.07,41.474L3.93,42.526ZM6.414,32.414L33.414,5.414L30.586,2.586L3.586,29.586L6.414,32.414Z" fill="#F5FAF3"/>
</svg>
