<svg width="44" height="46" viewBox="0 0 44 46" fill="none" xmlns="http://www.w3.org/2000/svg" xmlns:xlink="http://www.w3.org/1999/xlink">
<path d="M32,4.414L30.586,2.999L32,4.414ZM36,2.757L36,0.757L36,2.757ZM41.657,8.414L43.657,8.414L41.657,8.414ZM40,12.414L41.414,13.828L41.414,13.828L40,12.414ZM13,39.414L13.526,41.343C13.862,41.252 14.168,41.074 14.414,40.828L13,39.414ZM2,42.414L0.07,41.887C-0.118,42.58 0.078,43.32 0.586,43.828C1.093,44.335 1.834,44.532 2.526,44.343L2,42.414ZM5,31.414L3.586,29.999C3.34,30.246 3.162,30.552 3.07,30.887L5,31.414ZM33.414,5.828C33.754,5.488 34.157,5.219 34.601,5.035L33.07,1.34C32.141,1.724 31.297,2.288 30.586,2.999L33.414,5.828ZM34.601,5.035C35.044,4.851 35.52,4.757 36,4.757L36,0.757C34.994,0.757 33.999,0.955 33.07,1.34L34.601,5.035ZM36,4.757C36.48,4.757 36.956,4.851 37.399,5.035L38.93,1.34C38.001,0.955 37.006,0.757 36,0.757L36,4.757ZM37.399,5.035C37.843,5.219 38.246,5.488 38.586,5.828L41.414,2.999C40.703,2.288 39.859,1.724 38.93,1.34L37.399,5.035ZM38.586,5.828C38.925,6.167 39.195,6.571 39.378,7.014L43.074,5.484C42.689,4.555 42.125,3.71 41.414,2.999L38.586,5.828ZM39.378,7.014C39.562,7.458 39.657,7.933 39.657,8.414L43.657,8.414C43.657,7.408 43.459,6.413 43.074,5.484L39.378,7.014ZM39.657,8.414C39.657,8.894 39.562,9.369 39.378,9.813L43.074,11.344C43.459,10.415 43.657,9.419 43.657,8.414L39.657,8.414ZM39.378,9.813C39.195,10.257 38.925,10.66 38.586,10.999L41.414,13.828C42.125,13.117 42.689,12.273 43.074,11.344L39.378,9.813ZM38.586,10.999L11.586,37.999L14.414,40.828L41.414,13.828L38.586,10.999ZM12.474,37.484L1.474,40.484L2.526,44.343L13.526,41.343L12.474,37.484ZM3.93,42.94L6.93,31.94L3.07,30.887L0.07,41.887L3.93,42.94ZM6.414,32.828L33.414,5.828L30.586,2.999L3.586,29.999L6.414,32.828Z" fill="#98A9BC"/>
</svg>
