<svg width="18" height="12" viewBox="0 0 18 12" fill="none" xmlns="http://www.w3.org/2000/svg" xmlns:xlink="http://www.w3.org/1999/xlink">
<path d="M12.921,10.85C13.7,11.633 14.967,11.637 15.75,10.858C16.533,10.079 16.536,8.813 15.758,8.03L12.921,10.85ZM7.68,2.744L9.098,1.333C8.722,0.956 8.212,0.744 7.68,0.744C7.147,0.744 6.637,0.956 6.262,1.333L7.68,2.744ZM-0.398,8.03C-1.177,8.813 -1.174,10.079 -0.39,10.858C0.393,11.637 1.659,11.633 2.438,10.85L-0.398,8.03ZM15.758,8.03L9.098,1.333L6.262,4.154L12.921,10.85L15.758,8.03ZM6.262,1.333L-0.398,8.03L2.438,10.85L9.098,4.154L6.262,1.333Z" fill="#98A9BC"/>
</svg>
