<svg width="36" height="36" viewBox="0 0 36 36" fill="none" xmlns="http://www.w3.org/2000/svg" xmlns:xlink="http://www.w3.org/1999/xlink">
<path d="M15.48,21.24L11.565,17.325C11.235,16.995 10.83,16.83 10.35,16.83C9.87,16.83 9.45,17.01 9.09,17.37C8.76,17.7 8.595,18.12 8.595,18.63C8.595,19.14 8.76,19.56 9.09,19.89L14.22,25.02C14.55,25.35 14.97,25.515 15.48,25.515C15.99,25.515 16.41,25.35 16.74,25.02L26.955,14.805C27.285,14.475 27.45,14.07 27.45,13.59C27.45,13.11 27.27,12.69 26.91,12.33C26.58,12 26.16,11.835 25.65,11.835C25.14,11.835 24.72,12 24.39,12.33L15.48,21.24ZM18,36C15.51,36 13.17,35.527 10.98,34.582C8.79,33.637 6.885,32.355 5.265,30.735C3.645,29.115 2.363,27.21 1.418,25.02C0.473,22.83 0,20.49 0,18C0,15.51 0.473,13.17 1.418,10.98C2.363,8.79 3.645,6.885 5.265,5.265C6.885,3.645 8.79,2.362 10.98,1.417C13.17,0.472 15.51,0 18,0C20.49,0 22.83,0.472 25.02,1.417C27.21,2.362 29.115,3.645 30.735,5.265C32.355,6.885 33.637,8.79 34.582,10.98C35.527,13.17 36,15.51 36,18C36,20.49 35.527,22.83 34.582,25.02C33.637,27.21 32.355,29.115 30.735,30.735C29.115,32.355 27.21,33.637 25.02,34.582C22.83,35.527 20.49,36 18,36Z" fill="#27AE60"/>
</svg>
