<svg width="44" height="44" viewBox="0 0 44 44" fill="none" xmlns="http://www.w3.org/2000/svg" xmlns:xlink="http://www.w3.org/1999/xlink">
<path d="M32,3.164L30.586,1.75L32,3.164ZM36,1.507L36,-0.493L36,1.507ZM41.657,7.164L43.657,7.164L41.657,7.164ZM40,11.164L41.414,12.578L41.414,12.578L40,11.164ZM13,38.164L13.526,40.094C13.862,40.002 14.168,39.825 14.414,39.578L13,38.164ZM2,41.164L0.07,40.638C-0.118,41.33 0.078,42.071 0.586,42.578C1.093,43.086 1.834,43.283 2.526,43.094L2,41.164ZM5,30.164L3.586,28.75C3.34,28.996 3.162,29.302 3.07,29.638L5,30.164ZM33.414,4.578C33.754,4.239 34.157,3.969 34.601,3.786L33.07,0.09C32.141,0.475 31.297,1.039 30.586,1.75L33.414,4.578ZM34.601,3.786C35.044,3.602 35.52,3.507 36,3.507L36,-0.493C34.994,-0.493 33.999,-0.295 33.07,0.09L34.601,3.786ZM36,3.507C36.48,3.507 36.956,3.602 37.399,3.786L38.93,0.09C38.001,-0.295 37.006,-0.493 36,-0.493L36,3.507ZM37.399,3.786C37.843,3.969 38.246,4.239 38.586,4.578L41.414,1.75C40.703,1.039 39.859,0.475 38.93,0.09L37.399,3.786ZM38.586,4.578C38.925,4.918 39.195,5.321 39.378,5.765L43.074,4.234C42.689,3.305 42.125,2.461 41.414,1.75L38.586,4.578ZM39.378,5.765C39.562,6.208 39.657,6.684 39.657,7.164L43.657,7.164C43.657,6.159 43.459,5.163 43.074,4.234L39.378,5.765ZM39.657,7.164C39.657,7.644 39.562,8.12 39.378,8.564L43.074,10.094C43.459,9.165 43.657,8.17 43.657,7.164L39.657,7.164ZM39.378,8.564C39.195,9.007 38.925,9.41 38.586,9.75L41.414,12.578C42.125,11.867 42.689,11.023 43.074,10.094L39.378,8.564ZM38.586,9.75L11.586,36.75L14.414,39.578L41.414,12.578L38.586,9.75ZM12.474,36.235L1.474,39.235L2.526,43.094L13.526,40.094L12.474,36.235ZM3.93,41.69L6.93,30.69L3.07,29.638L0.07,40.638L3.93,41.69ZM6.414,31.578L33.414,4.578L30.586,1.75L3.586,28.75L6.414,31.578Z" fill="#98A9BC"/>
</svg>
