<svg width="20" height="20" viewBox="0 0 20 20" fill="none" xmlns="http://www.w3.org/2000/svg" xmlns:xlink="http://www.w3.org/1999/xlink">
<path d="M2,10L0.5,10L2,10ZM10,18L10,19.5L10,18ZM18,10L19.5,10L18,10ZM10,2L10,0.5L10,2ZM0.5,10C0.5,12.52 1.501,14.936 3.282,16.718L5.404,14.596C4.185,13.377 3.5,11.724 3.5,10L0.5,10ZM3.282,16.718C5.064,18.499 7.48,19.5 10,19.5L10,16.5C8.276,16.5 6.623,15.815 5.404,14.596L3.282,16.718ZM10,19.5C12.52,19.5 14.936,18.499 16.718,16.718L14.596,14.596C13.377,15.815 11.724,16.5 10,16.5L10,19.5ZM16.718,16.718C18.499,14.936 19.5,12.52 19.5,10L16.5,10C16.5,11.724 15.815,13.377 14.596,14.596L16.718,16.718ZM19.5,10C19.5,7.48 18.499,5.064 16.718,3.282L14.596,5.404C15.815,6.623 16.5,8.276 16.5,10L19.5,10ZM16.718,3.282C14.936,1.501 12.52,0.5 10,0.5L10,3.5C11.724,3.5 13.377,4.185 14.596,5.404L16.718,3.282ZM10,0.5C7.48,0.5 5.064,1.501 3.282,3.282L5.404,5.404C6.623,4.185 8.276,3.5 10,3.5L10,0.5ZM3.282,3.282C1.501,5.064 0.5,7.48 0.5,10L3.5,10C3.5,8.276 4.185,6.623 5.404,5.404L3.282,3.282Z" fill="#000000"/>
</svg>
