<svg width="22" height="16" viewBox="0 0 22 16" fill="none" xmlns="http://www.w3.org/2000/svg" xmlns:xlink="http://www.w3.org/1999/xlink">
<path d="M0.5,14C0.5,14.828 1.172,15.5 2,15.5C2.828,15.5 3.5,14.828 3.5,14L0.5,14ZM10,2L10,0.5L10,2ZM19.645,3.709C20.447,3.915 21.265,3.432 21.471,2.629C21.677,1.827 21.194,1.009 20.391,0.803L19.645,3.709ZM3.5,14L3.5,10L0.5,10L0.5,14L3.5,14ZM3.5,10C3.5,8.276 4.185,6.623 5.404,5.404L3.282,3.282C1.501,5.064 0.5,7.48 0.5,10L3.5,10ZM5.404,5.404C6.623,4.185 8.276,3.5 10,3.5L10,0.5C7.48,0.5 5.064,1.501 3.282,3.282L5.404,5.404ZM10,3.5L18,3.5L18,0.5L10,0.5L10,3.5ZM18,3.5C18.566,3.5 19.117,3.573 19.645,3.709L20.391,0.803C19.627,0.607 18.826,0.5 18,0.5L18,3.5Z" fill="#000000"/>
</svg>
