<svg width="30" height="28" viewBox="0 0 30 28" fill="none" xmlns="http://www.w3.org/2000/svg" xmlns:xlink="http://www.w3.org/1999/xlink">
<path d="M-0.55,1.439C-0.332,0.968 0.138,0.667 0.654,0.667L27.196,0.667C27.713,0.667 28.182,0.968 28.4,1.439C28.617,1.91 28.543,2.464 28.209,2.861L17.906,15.101L17.906,26C17.906,26.462 17.668,26.891 17.277,27.134C16.886,27.377 16.397,27.399 15.986,27.193L10.677,24.526C10.228,24.3 9.944,23.838 9.944,23.333L9.944,15.101L-0.359,2.861C-0.693,2.464 -0.767,1.91 -0.55,1.439ZM3.515,3.333L12.284,13.752C12.487,13.993 12.598,14.298 12.598,14.613L12.598,22.509L15.252,23.843L15.252,14.613C15.252,14.298 15.363,13.993 15.566,13.752L24.336,3.333L3.515,3.333Z" clip-rule="evenodd" fill-rule="evenodd" fill="#98A9BC"/>
</svg>
