<svg width="44" height="44" viewBox="0 0 44 44" fill="none" xmlns="http://www.w3.org/2000/svg" xmlns:xlink="http://www.w3.org/1999/xlink">
<path d="M32,3.664L30.586,2.25L32,3.664ZM36,2.007L36,0.007L36,2.007ZM41.657,7.664L43.657,7.664L41.657,7.664ZM40,11.664L41.414,13.078L41.414,13.078L40,11.664ZM13,38.664L13.526,40.594C13.862,40.502 14.168,40.325 14.414,40.078L13,38.664ZM2,41.664L0.07,41.138C-0.118,41.83 0.078,42.571 0.586,43.078C1.093,43.586 1.834,43.783 2.526,43.594L2,41.664ZM5,30.664L3.586,29.25C3.34,29.496 3.162,29.802 3.07,30.138L5,30.664ZM33.414,5.078C33.754,4.739 34.157,4.469 34.601,4.286L33.07,0.59C32.141,0.975 31.297,1.539 30.586,2.25L33.414,5.078ZM34.601,4.286C35.044,4.102 35.52,4.007 36,4.007L36,0.007C34.994,0.007 33.999,0.205 33.07,0.59L34.601,4.286ZM36,4.007C36.48,4.007 36.956,4.102 37.399,4.286L38.93,0.59C38.001,0.205 37.006,0.007 36,0.007L36,4.007ZM37.399,4.286C37.843,4.469 38.246,4.739 38.586,5.078L41.414,2.25C40.703,1.539 39.859,0.975 38.93,0.59L37.399,4.286ZM38.586,5.078C38.925,5.418 39.195,5.821 39.378,6.265L43.074,4.734C42.689,3.805 42.125,2.961 41.414,2.25L38.586,5.078ZM39.378,6.265C39.562,6.708 39.657,7.184 39.657,7.664L43.657,7.664C43.657,6.659 43.459,5.663 43.074,4.734L39.378,6.265ZM39.657,7.664C39.657,8.144 39.562,8.62 39.378,9.064L43.074,10.594C43.459,9.665 43.657,8.67 43.657,7.664L39.657,7.664ZM39.378,9.064C39.195,9.507 38.925,9.91 38.586,10.25L41.414,13.078C42.125,12.367 42.689,11.523 43.074,10.594L39.378,9.064ZM38.586,10.25L11.586,37.25L14.414,40.078L41.414,13.078L38.586,10.25ZM12.474,36.735L1.474,39.735L2.526,43.594L13.526,40.594L12.474,36.735ZM3.93,42.19L6.93,31.19L3.07,30.138L0.07,41.138L3.93,42.19ZM6.414,32.078L33.414,5.078L30.586,2.25L3.586,29.25L6.414,32.078Z" fill="#98A9BC"/>
</svg>
