<svg width="18" height="12" viewBox="0 0 18 12" fill="none" xmlns="http://www.w3.org/2000/svg" xmlns:xlink="http://www.w3.org/1999/xlink">
<path d="M12.921,9.582C13.7,10.365 14.967,10.369 15.75,9.59C16.533,8.811 16.536,7.545 15.757,6.762L12.921,9.582ZM7.68,1.476L9.098,0.065C8.722,-0.312 8.212,-0.524 7.68,-0.524C7.147,-0.524 6.637,-0.312 6.262,0.065L7.68,1.476ZM-0.398,6.762C-1.177,7.545 -1.174,8.811 -0.39,9.59C0.393,10.369 1.659,10.365 2.438,9.582L-0.398,6.762ZM15.757,6.762L9.098,0.065L6.262,2.886L12.921,9.582L15.757,6.762ZM6.262,0.065L-0.398,6.762L2.438,9.582L9.098,2.886L6.262,0.065Z" transform="rotate(-360 7.68 4.824)" fill="#98A9BC"/>
</svg>
