<svg width="28" height="30" viewBox="0 0 28 30" fill="none" xmlns="http://www.w3.org/2000/svg" xmlns:xlink="http://www.w3.org/1999/xlink">
<path d="M16.193,14L27.533,2.66C27.788,2.363 27.921,1.98 27.906,1.588C27.891,1.197 27.729,0.825 27.452,0.548C27.175,0.271 26.803,0.109 26.412,0.094C26.02,0.079 25.637,0.212 25.34,0.467L14,11.807L2.66,0.451C2.362,0.196 1.979,0.063 1.588,0.078C1.196,0.093 0.825,0.256 0.548,0.533C0.271,0.81 0.109,1.181 0.094,1.573C0.079,1.964 0.212,2.347 0.467,2.645L11.807,14L0.451,25.34C0.288,25.48 0.156,25.651 0.062,25.844C-0.031,26.037 -0.083,26.247 -0.092,26.462C-0.1,26.676 -0.064,26.889 0.014,27.089C0.093,27.289 0.211,27.47 0.363,27.622C0.514,27.773 0.696,27.892 0.895,27.97C1.095,28.048 1.309,28.084 1.523,28.076C1.737,28.068 1.947,28.015 2.14,27.922C2.333,27.829 2.505,27.696 2.644,27.533L14,16.193L25.34,27.533C25.637,27.788 26.02,27.921 26.412,27.906C26.803,27.891 27.175,27.729 27.452,27.452C27.729,27.175 27.891,26.803 27.906,26.412C27.921,26.02 27.788,25.638 27.533,25.34L16.193,14Z" fill="#CCCCCC"/>
</svg>
