<svg width="18" height="10" viewBox="0 0 18 10" fill="none" xmlns="http://www.w3.org/2000/svg" xmlns:xlink="http://www.w3.org/1999/xlink">
<path d="M13.555,9.411C14.334,10.194 15.601,10.197 16.384,9.417C17.166,8.638 17.169,7.372 16.39,6.589L13.555,9.411ZM8.337,1.333L9.755,-0.078C9.38,-0.455 8.869,-0.667 8.337,-0.667C7.805,-0.667 7.295,-0.455 6.92,-0.078L8.337,1.333ZM0.284,6.589C-0.495,7.372 -0.492,8.638 0.291,9.417C1.074,10.197 2.34,10.194 3.119,9.411L0.284,6.589ZM16.39,6.589L9.755,-0.078L6.92,2.744L13.555,9.411L16.39,6.589ZM6.92,-0.078L0.284,6.589L3.119,9.411L9.755,2.744L6.92,-0.078Z" fill="#98A9BC"/>
</svg>
