<svg width="48" height="48" viewBox="0 0 48 48" fill="none" xmlns="http://www.w3.org/2000/svg" xmlns:xlink="http://www.w3.org/1999/xlink">
<mask id="mask_0_17_3055" style="mask-type:alpha" maskUnits="userSpaceOnUse" x="0" y="0" width="24" height="24">
<rect  x="0" y="0" width="48" height="48" fill="#D9D9D9"/>
</mask>
<g mask="url(#mask_0_17_3055)">
<path d="M9.1,40.172C8.1,40.172 7.25,39.816 6.55,39.106C5.85,38.395 5.5,37.531 5.5,36.516L5.5,13.359C5.5,12.344 5.85,11.48 6.55,10.77C7.25,10.059 8.1,9.703 9.1,9.703L31.85,9.703C32.883,9.703 33.75,10.059 34.45,10.77C35.15,11.48 35.5,12.344 35.5,13.359L35.5,22.652L42.5,15.543L42.5,34.332L35.5,27.223L35.5,36.516C35.5,37.531 35.15,38.395 34.45,39.106C33.75,39.816 32.883,40.172 31.85,40.172L9.1,40.172ZM9.1,37.125L31.85,37.125C32.05,37.125 32.209,37.066 32.326,36.948C32.442,36.829 32.5,36.685 32.5,36.516L32.5,13.359C32.5,13.19 32.442,13.047 32.326,12.929C32.209,12.81 32.05,12.75 31.85,12.75L9.1,12.75C8.933,12.75 8.792,12.81 8.676,12.929C8.559,13.047 8.5,13.19 8.5,13.359L8.5,36.516C8.5,36.685 8.559,36.829 8.676,36.948C8.792,37.066 8.933,37.125 9.1,37.125Z" fill="#FFFFFF"/>
</g>
</svg>
