<svg width="32" height="32" viewBox="0 0 32 32" fill="none" xmlns="http://www.w3.org/2000/svg" xmlns:xlink="http://www.w3.org/1999/xlink">
<path d="M16,4C9.373,4 4,9.373 4,16C4,22.627 9.373,28 16,28C22.627,28 28,22.627 28,16C28,9.373 22.627,4 16,4ZM1.333,16C1.333,7.9 7.9,1.333 16,1.333C24.1,1.333 30.667,7.9 30.667,16C30.667,24.1 24.1,30.667 16,30.667C7.9,30.667 1.333,24.1 1.333,16Z" clip-rule="evenodd" fill-rule="evenodd" fill="#98A9BC"/>
<path d="M16,9.333C16.736,9.333 17.333,9.93 17.333,10.667L17.333,21.333C17.333,22.07 16.736,22.667 16,22.667C15.264,22.667 14.667,22.07 14.667,21.333L14.667,10.667C14.667,9.93 15.264,9.333 16,9.333Z" clip-rule="evenodd" fill-rule="evenodd" fill="#98A9BC"/>
<path d="M9.333,16C9.333,15.264 9.93,14.667 10.667,14.667L21.333,14.667C22.07,14.667 22.667,15.264 22.667,16C22.667,16.736 22.07,17.333 21.333,17.333L10.667,17.333C9.93,17.333 9.333,16.736 9.333,16Z" clip-rule="evenodd" fill-rule="evenodd" fill="#98A9BC"/>
</svg>
