<svg width="48" height="48" viewBox="0 0 48 48" fill="none" xmlns="http://www.w3.org/2000/svg" xmlns:xlink="http://www.w3.org/1999/xlink">
<path d="M6,24L4.214,23.1C3.929,23.666 3.929,24.334 4.214,24.899L6,24ZM42,24L43.786,24.899C44.071,24.334 44.071,23.666 43.786,23.1L42,24ZM6,24C7.786,24.899 7.786,24.9 7.786,24.9C7.786,24.901 7.786,24.901 7.785,24.901C7.785,24.902 7.785,24.902 7.785,24.902C7.785,24.902 7.785,24.901 7.786,24.9C7.788,24.897 7.791,24.891 7.795,24.882C7.804,24.864 7.82,24.835 7.841,24.794C7.884,24.714 7.952,24.589 8.044,24.427C8.227,24.103 8.507,23.63 8.878,23.059C9.624,21.913 10.727,20.389 12.159,18.873C15.057,15.803 19.066,13 24,13L24,9C17.479,9 12.488,12.697 9.25,16.127C7.613,17.861 6.365,19.587 5.525,20.878C5.104,21.526 4.782,22.069 4.563,22.456C4.454,22.649 4.37,22.804 4.311,22.913C4.282,22.968 4.259,23.012 4.243,23.043C4.235,23.059 4.228,23.072 4.223,23.081C4.221,23.086 4.219,23.09 4.217,23.093C4.217,23.095 4.216,23.096 4.215,23.097C4.215,23.098 4.214,23.099 4.214,23.099C4.214,23.1 4.214,23.1 6,24ZM24,13C28.934,13 32.943,15.803 35.841,18.873C37.273,20.389 38.376,21.913 39.122,23.059C39.493,23.63 39.773,24.103 39.956,24.427C40.048,24.589 40.116,24.714 40.159,24.794C40.18,24.835 40.196,24.864 40.205,24.882C40.209,24.891 40.212,24.897 40.214,24.9C40.215,24.901 40.215,24.902 40.215,24.902C40.215,24.902 40.215,24.902 40.215,24.901C40.214,24.901 40.214,24.901 40.214,24.9C40.214,24.9 40.214,24.899 42,24C43.786,23.1 43.786,23.1 43.786,23.099C43.786,23.099 43.785,23.098 43.785,23.097C43.784,23.096 43.783,23.095 43.783,23.093C43.781,23.09 43.779,23.086 43.777,23.081C43.772,23.072 43.765,23.059 43.757,23.043C43.741,23.012 43.718,22.968 43.689,22.913C43.63,22.804 43.546,22.649 43.437,22.456C43.218,22.069 42.896,21.526 42.475,20.878C41.635,19.587 40.387,17.861 38.75,16.127C35.512,12.697 30.521,9 24,9L24,13ZM42,24C40.214,23.1 40.214,23.1 40.214,23.099C40.214,23.099 40.214,23.099 40.215,23.099C40.215,23.098 40.215,23.098 40.215,23.098C40.215,23.098 40.215,23.099 40.214,23.1C40.212,23.103 40.209,23.109 40.205,23.118C40.196,23.135 40.18,23.165 40.159,23.205C40.116,23.286 40.048,23.411 39.956,23.573C39.773,23.897 39.493,24.37 39.122,24.941C38.376,26.087 37.273,27.611 35.841,29.127C32.943,32.197 28.934,35 24,35L24,39C30.521,39 35.512,35.303 38.75,31.873C40.387,30.139 41.635,28.413 42.475,27.122C42.896,26.474 43.218,25.931 43.437,25.544C43.546,25.351 43.63,25.196 43.689,25.086C43.718,25.032 43.741,24.988 43.757,24.957C43.765,24.941 43.772,24.928 43.777,24.919C43.779,24.914 43.781,24.91 43.783,24.907C43.783,24.905 43.784,24.904 43.785,24.902C43.785,24.902 43.786,24.901 43.786,24.901C43.786,24.9 43.786,24.899 42,24ZM24,35C19.066,35 15.057,32.197 12.159,29.127C10.727,27.611 9.624,26.087 8.878,24.941C8.507,24.37 8.227,23.897 8.044,23.573C7.952,23.411 7.884,23.286 7.841,23.205C7.82,23.165 7.804,23.135 7.795,23.118C7.791,23.109 7.788,23.103 7.786,23.1C7.785,23.099 7.785,23.098 7.785,23.098C7.785,23.098 7.785,23.098 7.785,23.099C7.786,23.099 7.786,23.099 7.786,23.099C7.786,23.1 7.786,23.1 6,24C4.214,24.899 4.214,24.9 4.214,24.901C4.214,24.901 4.215,24.902 4.215,24.902C4.216,24.904 4.217,24.905 4.217,24.907C4.219,24.91 4.221,24.914 4.223,24.919C4.228,24.928 4.235,24.941 4.243,24.957C4.259,24.988 4.282,25.032 4.311,25.086C4.37,25.196 4.454,25.351 4.563,25.544C4.782,25.931 5.104,26.474 5.525,27.122C6.365,28.413 7.613,30.139 9.25,31.873C12.488,35.303 17.479,39 24,39L24,35Z" fill="#98A9BC"/>
<path d="M26,24C26,26.096 24.711,27 24,27L24,31C27.707,31 30,27.426 30,24L26,24ZM24,27C23.289,27 22,26.096 22,24L18,24C18,27.426 20.293,31 24,31L24,27ZM22,24C22,21.904 23.289,21 24,21L24,17C20.293,17 18,20.573 18,24L22,24ZM24,21C24.711,21 26,21.904 26,24L30,24C30,20.573 27.707,17 24,17L24,21Z" fill="#98A9BC"/>
</svg>
