<svg width="30" height="28" viewBox="0 0 30 28" fill="none" xmlns="http://www.w3.org/2000/svg" xmlns:xlink="http://www.w3.org/1999/xlink">
<path d="M27.51,2L28.658,2.966C29.034,2.52 29.117,1.896 28.87,1.367C28.624,0.838 28.094,0.5 27.51,0.5L27.51,2ZM0.955,2L0.955,0.5C0.371,0.5 -0.159,0.838 -0.405,1.367C-0.651,1.896 -0.568,2.52 -0.193,2.966L0.955,2ZM11.577,14.613L13.077,14.613C13.077,14.26 12.952,13.918 12.724,13.647L11.577,14.613ZM11.577,23.334L10.077,23.334C10.077,23.901 10.397,24.42 10.904,24.674L11.577,23.334ZM16.888,26L16.215,27.341C16.68,27.574 17.233,27.55 17.676,27.277C18.119,27.004 18.388,26.521 18.388,26L16.888,26ZM16.888,14.613L15.741,13.647C15.513,13.918 15.388,14.26 15.388,14.613L16.888,14.613ZM27.51,0.5L0.955,0.5L0.955,3.5L27.51,3.5L27.51,0.5ZM-0.193,2.966L10.43,15.58L12.724,13.647L2.102,1.034L-0.193,2.966ZM10.077,14.613L10.077,23.334L13.077,23.334L13.077,14.613L10.077,14.613ZM10.904,24.674L16.215,27.341L17.561,24.66L12.25,21.993L10.904,24.674ZM18.388,26L18.388,14.613L15.388,14.613L15.388,26L18.388,26ZM18.036,15.58L28.658,2.966L26.363,1.034L15.741,13.647L18.036,15.58Z" fill="#98A9BC"/>
</svg>
